<?xml version="1.0" encoding="UTF-8" standalone="no"?>
<!DOCTYPE svg PUBLIC "-//W3C//DTD SVG 1.0//EN" "http://www.w3.org/TR/2001/REC-SVG-20010904/DTD/svg10.dtd">
<svg xmlns="http://www.w3.org/2000/svg" xmlns:xlink="http://www.w3.org/1999/xlink" fill-rule="evenodd" height="4.5in" preserveAspectRatio="none" stroke-linecap="round" viewBox="0 0 532 324" width="7.385416666666667in">
<style type="text/css">
.brush0 { fill: rgb(255,255,255); }
.pen0 { stroke: rgb(0,0,0); stroke-width: 1; stroke-linejoin: round; }
.font0 { font-size: 11px; font-family: "MS Sans Serif"; }
.pen1 { stroke: rgb(0,0,0); stroke-width: 7; stroke-linejoin: round; }
.brush1 { fill: none; }
.font1 { font-weight: bold; font-size: 16px; font-family: System, sans-serif; }
</style>
<g>
<path class="pen1" d="M 74.95775686614864,289.16012090199274 A 44.5,44.5 0 0 0 8.501657828992187,288.6443570833739" fill="none"/>
<path class="pen1" d="M 74.18960422511782,289.79816324422944 A 45.0,45.0 0 0 0 136.81980515339464,288.8198051533946" fill="none"/>
<line class="pen1" fill="none" x1="10" x2="42" y1="258" y2="194"/>
<line class="pen1" fill="none" x1="42" x2="74" y1="194" y2="258"/>
<line class="pen1" fill="none" x1="74" x2="106" y1="258" y2="194"/>
<line class="pen1" fill="none" x1="106" x2="138" y1="194" y2="258"/>
<line class="pen1" fill="none" x1="10" x2="138" y1="194" y2="194"/>
<path class="pen1" d="M 232.99627285096017,225.98455804386091 A 31.5,31.5 0 1 0 170.00396750426663,225.9999370237418" fill="none"/>
<path class="pen1" d="M 360.99627285096017,225.98455804386091 A 31.5,31.5 0 1 0 298.00396750426665,225.9999370237418" fill="none"/>
<path class="pen1" d="M 234.00396750426663,225.9999370237418 A 31.5,31.5 0 0 0 296.99627285096017,225.98455804386091" fill="none"/>
<line class="pen1" fill="none" x1="394" x2="426" y1="194" y2="258"/>
<line class="pen1" fill="none" x1="426" x2="458" y1="258" y2="194"/>
<line class="pen1" fill="none" x1="458" x2="490" y1="194" y2="258"/>
<line class="pen1" fill="none" x1="490" x2="522" y1="258" y2="194"/>
<line class="pen1" fill="none" x1="394" x2="522" y1="194" y2="194"/>
</g>
</svg>
