<?xml version="1.0" encoding="UTF-8" standalone="no"?>
<!DOCTYPE svg PUBLIC "-//W3C//DTD SVG 1.0//EN" "http://www.w3.org/TR/2001/REC-SVG-20010904/DTD/svg10.dtd">
<svg xmlns="http://www.w3.org/2000/svg" xmlns:xlink="http://www.w3.org/1999/xlink" fill-rule="evenodd" height="4.5in" preserveAspectRatio="none" stroke-linecap="round" viewBox="0 0 452 324" width="6.270833333333333in">
<style type="text/css">
.brush0 { fill: rgb(255,255,255); }
.pen0 { stroke: rgb(0,0,0); stroke-width: 1; stroke-linejoin: round; }
.font0 { font-size: 11px; font-family: "MS Sans Serif"; }
.pen1 { stroke: rgb(0,0,0); stroke-width: 7; stroke-linejoin: round; }
.brush1 { fill: none; }
.font1 { font-weight: bold; font-size: 16px; font-family: System, sans-serif; }
</style>
<g>
<line class="pen1" fill="none" x1="138" x2="266" y1="130" y2="130"/>
<line class="pen1" fill="none" x1="266" x2="266" y1="130" y2="258"/>
<line class="pen1" fill="none" x1="266" x2="138" y1="258" y2="258"/>
<line class="pen1" fill="none" x1="10" x2="138" y1="258" y2="258"/>
<line class="pen1" fill="none" x1="330" x2="394" y1="226" y2="226"/>
<line class="pen1" fill="none" x1="362" x2="362" y1="162" y2="226"/>
<circle class="pen1" cx="361.5" cy="193.5" fill="none" r="63.5"/>
<path class="pen1" d="M 329.44365081389594,97.44365081389596 A 22.0,22.0 0 0 0 330.4443239840894,129.49643281803205" fill="none"/>
<path class="pen1" d="M 361.44365081389594,97.44365081389596 A 22.0,22.0 0 0 0 362.4443239840894,129.49643281803205" fill="none"/>
<path class="pen1" d="M 393.44365081389594,97.44365081389596 A 22.0,22.0 0 0 0 394.4443239840894,129.49643281803205" fill="none"/>
<line class="pen1" fill="none" x1="442" x2="410" y1="66" y2="98"/>
<line class="pen1" fill="none" x1="410" x2="442" y1="98" y2="130"/>
</g>
</svg>
