<?xml version="1.0" encoding="UTF-8" standalone="no"?>
<!DOCTYPE svg PUBLIC "-//W3C//DTD SVG 1.0//EN" "http://www.w3.org/TR/2001/REC-SVG-20010904/DTD/svg10.dtd">
<svg xmlns="http://www.w3.org/2000/svg" xmlns:xlink="http://www.w3.org/1999/xlink" fill-rule="evenodd" height="4.5in" preserveAspectRatio="none" stroke-linecap="round" viewBox="0 0 436 324" width="6.052083333333333in">
<style type="text/css">
.brush0 { fill: rgb(255,255,255); }
.pen0 { stroke: rgb(0,0,0); stroke-width: 1; stroke-linejoin: round; }
.font0 { font-size: 11px; font-family: "MS Sans Serif"; }
.pen1 { stroke: rgb(0,0,0); stroke-width: 7; stroke-linejoin: round; }
.brush1 { fill: none; }
.font1 { font-weight: bold; font-size: 16px; font-family: System, sans-serif; }
</style>
<g>
<circle class="pen1" cx="41.5" cy="225.5" fill="none" r="31.5"/>
<path class="pen1" d="M 88.81980515339464,256.8198051533946 A 45.0,45.0 0 0 0 89.32081002551281,193.68921528778446" fill="none"/>
<path class="pen1" d="M 153.18019484660536,129.18019484660536 A 45.0,45.0 0 0 0 154.18960422511782,193.7981632442294" fill="none"/>
<path class="pen1" d="M 152.81980515339464,256.8198051533946 A 45.0,45.0 0 0 0 153.3208100255128,193.68921528778446" fill="none"/>
<line class="pen1" fill="none" x1="154" x2="154" y1="130" y2="258"/>
<line class="pen1" fill="none" x1="202" x2="266" y1="194" y2="194"/>
<circle class="pen1" cx="361.5" cy="193.5" fill="none" r="63.5"/>
<path class="pen1" d="M 394.89381678346916,193.22806732336755 A 45.0,44.5 0 0 0 328.0425932509952,192.20044863397945" fill="none"/>
<path class="pen1" d="M 330.1896042251178,193.7981632442294 A 45.0,45.0 0 0 0 392.81980515339467,192.81980515339464" fill="none"/>
</g>
</svg>
