<?xml version="1.0" encoding="UTF-8" standalone="no"?>
<!DOCTYPE svg PUBLIC "-//W3C//DTD SVG 1.0//EN" "http://www.w3.org/TR/2001/REC-SVG-20010904/DTD/svg10.dtd">
<svg xmlns="http://www.w3.org/2000/svg" xmlns:xlink="http://www.w3.org/1999/xlink" fill-rule="evenodd" height="4.5in" preserveAspectRatio="none" stroke-linecap="round" viewBox="0 0 244 324" width="3.3854166666666665in">
<style type="text/css">
.brush0 { fill: rgb(255,255,255); }
.pen0 { stroke: rgb(0,0,0); stroke-width: 1; stroke-linejoin: round; }
.font0 { font-size: 11px; font-family: "MS Sans Serif"; }
.pen1 { stroke: rgb(0,0,0); stroke-width: 7; stroke-linejoin: round; }
.brush1 { fill: none; }
.brush2 { fill: rgb(0,0,0); }
.font1 { font-weight: bold; font-size: 16px; font-family: System, sans-serif; }
</style>
<g>
<circle class="pen1" cx="41.5" cy="193.5" fill="none" r="31.5"/>
<line class="pen1" fill="none" x1="10" x2="74" y1="258" y2="258"/>
<line class="pen1" fill="none" x1="42" x2="42" y1="194" y2="194"/>
<path class="pen1" d="M 166.2922625493724,266.25260069167587 A 15.5,15.5 0 0 0 168.99816600602801,257.73843332316966" fill="none"/>
<ellipse class="pen1 brush2" cx="166" cy="257" rx="3" ry="3"/>
<line class="pen1" fill="none" x1="122" x2="122" y1="194" y2="258"/>
<line class="pen1" fill="none" x1="106" x2="138" y1="258" y2="258"/>
<line class="pen1" fill="none" x1="106" x2="122" y1="210" y2="194"/>
<path class="pen1" d="M 232.9928882767534,209.96948146293192 A 15.5,15.5 0 1 0 202.00805822773467,209.99974005716984" fill="none"/>
<path class="pen1" d="M 202.00805822773467,241.99974005716984 A 15.5,15.5 0 0 0 232.9928882767534,241.96948146293192" fill="none"/>
<line class="pen1" fill="none" x1="202" x2="202" y1="210" y2="242"/>
<line class="pen1" fill="none" x1="234" x2="234" y1="210" y2="242"/>
</g>
</svg>
