<?xml version="1.0" encoding="UTF-8" standalone="no"?>
<!DOCTYPE svg PUBLIC "-//W3C//DTD SVG 1.0//EN" "http://www.w3.org/TR/2001/REC-SVG-20010904/DTD/svg10.dtd">
<svg xmlns="http://www.w3.org/2000/svg" xmlns:xlink="http://www.w3.org/1999/xlink" fill-rule="evenodd" height="4.5in" preserveAspectRatio="none" stroke-linecap="round" viewBox="0 0 340 324" width="4.71875in">
<style type="text/css">
.brush0 { fill: rgb(255,255,255); }
.pen0 { stroke: rgb(0,0,0); stroke-width: 1; stroke-linejoin: round; }
.font0 { font-size: 11px; font-family: "MS Sans Serif"; }
.pen1 { stroke: rgb(0,0,0); stroke-width: 7; stroke-linejoin: round; }
.brush1 { fill: none; }
.font1 { font-weight: bold; font-size: 16px; font-family: System, sans-serif; }
</style>
<g>
<circle class="pen1" cx="233.5" cy="193.5" fill="none" r="63.5"/>
<line class="pen1" fill="none" x1="266" x2="298" y1="162" y2="194"/>
<line class="pen1" fill="none" x1="330" x2="298" y1="162" y2="194"/>
<line class="pen1" fill="none" x1="26" x2="26" y1="194" y2="258"/>
<line class="pen1" fill="none" x1="10" x2="42" y1="258" y2="258"/>
<line class="pen1" fill="none" x1="10" x2="26" y1="210" y2="194"/>
<path class="pen1" d="M 136.9928882767534,209.96948146293192 A 15.5,15.5 0 1 0 106.00805822773465,209.99974005716984" fill="none"/>
<path class="pen1" d="M 106.00805822773465,241.99974005716984 A 15.5,15.5 0 0 0 136.9928882767534,241.96948146293192" fill="none"/>
<line class="pen1" fill="none" x1="106" x2="106" y1="210" y2="242"/>
<line class="pen1" fill="none" x1="138" x2="138" y1="210" y2="242"/>
<path class="pen1" d="M 88.9928882767534,209.96948146293192 A 15.5,15.5 0 1 0 58.00805822773466,209.99974005716984" fill="none"/>
<path class="pen1" d="M 58.00805822773466,241.99974005716984 A 15.5,15.5 0 0 0 88.9928882767534,241.96948146293192" fill="none"/>
<line class="pen1" fill="none" x1="58" x2="58" y1="210" y2="242"/>
<line class="pen1" fill="none" x1="90" x2="90" y1="210" y2="242"/>
</g>
</svg>
