<?xml version="1.0" encoding="UTF-8" standalone="no"?>
<!DOCTYPE svg PUBLIC "-//W3C//DTD SVG 1.0//EN" "http://www.w3.org/TR/2001/REC-SVG-20010904/DTD/svg10.dtd">
<svg xmlns="http://www.w3.org/2000/svg" xmlns:xlink="http://www.w3.org/1999/xlink" fill-rule="evenodd" height="4.5in" preserveAspectRatio="none" stroke-linecap="round" viewBox="0 0 356 324" width="4.9375in">
<style type="text/css">
.brush0 { fill: rgb(255,255,255); }
.pen0 { stroke: rgb(0,0,0); stroke-width: 1; stroke-linejoin: round; }
.font0 { font-size: 11px; font-family: "MS Sans Serif"; }
.pen1 { stroke: rgb(0,0,0); stroke-width: 7; stroke-linejoin: round; }
.brush1 { fill: none; }
.font1 { font-weight: bold; font-size: 16px; font-family: System, sans-serif; }
</style>
<g>
<line class="pen1" fill="none" x1="74" x2="138" y1="130" y2="258"/>
<line class="pen1" fill="none" x1="138" x2="10" y1="258" y2="258"/>
<line class="pen1" fill="none" x1="10" x2="74" y1="258" y2="130"/>
<line class="pen1" fill="none" x1="10" x2="74" y1="194" y2="66"/>
<line class="pen1" fill="none" x1="74" x2="138" y1="66" y2="194"/>
<line class="pen1" fill="none" x1="10" x2="42" y1="194" y2="194"/>
<line class="pen1" fill="none" x1="106" x2="138" y1="194" y2="194"/>
<line class="pen1" fill="none" x1="282" x2="346" y1="194" y2="258"/>
<line class="pen1" fill="none" x1="346" x2="346" y1="258" y2="130"/>
<line class="pen1" fill="none" x1="186" x2="186" y1="194" y2="258"/>
<line class="pen1" fill="none" x1="170" x2="202" y1="258" y2="258"/>
<line class="pen1" fill="none" x1="170" x2="186" y1="210" y2="194"/>
<path class="pen1" d="M 248.9928882767534,209.96948146293192 A 15.5,15.5 0 1 0 218.00805822773467,209.99974005716984" fill="none"/>
<path class="pen1" d="M 218.00805822773467,241.99974005716984 A 15.5,15.5 0 0 0 248.9928882767534,241.96948146293192" fill="none"/>
<line class="pen1" fill="none" x1="218" x2="218" y1="210" y2="242"/>
<line class="pen1" fill="none" x1="250" x2="250" y1="210" y2="242"/>
</g>
</svg>
