<?xml version="1.0" encoding="UTF-8" standalone="no"?>
<!DOCTYPE svg PUBLIC "-//W3C//DTD SVG 1.0//EN" "http://www.w3.org/TR/2001/REC-SVG-20010904/DTD/svg10.dtd">
<svg xmlns="http://www.w3.org/2000/svg" xmlns:xlink="http://www.w3.org/1999/xlink" fill-rule="evenodd" height="4.5in" preserveAspectRatio="none" stroke-linecap="round" viewBox="0 0 532 324" width="7.385416666666667in">
<style type="text/css">
.brush0 { fill: rgb(255,255,255); }
.pen0 { stroke: rgb(0,0,0); stroke-width: 1; stroke-linejoin: round; }
.font0 { font-size: 11px; font-family: "MS Sans Serif"; }
.pen1 { stroke: rgb(0,0,0); stroke-width: 7; stroke-linejoin: round; }
.brush1 { fill: none; }
.font1 { font-weight: bold; font-size: 16px; font-family: System, sans-serif; }
</style>
<g>
<line class="pen1" fill="none" x1="10" x2="10" y1="130" y2="258"/>
<path class="pen1" d="M 9.992233272463265,256.9980921477605 A 63.5,63.5 0 0 0 9.999984500689715,130.00196841240611" fill="none"/>
<line class="pen1" fill="none" x1="138" x2="138" y1="130" y2="258"/>
<line class="pen1" fill="none" x1="170" x2="298" y1="194" y2="194"/>
<line class="pen1" fill="none" x1="106" x2="106" y1="194" y2="194"/>
<path class="pen1" d="M 296.99627285096017,193.98455804386091 A 31.5,31.5 0 1 0 234.00396750426663,193.9999370237418" fill="none"/>
<path class="pen1" d="M 297.99223327246324,192.99809214776047 A 63.5,63.5 0 0 0 360.9980921477605,129.99223327246327" fill="none"/>
<path class="pen1" d="M 360.9980921477605,257.99223327246324 A 63.5,63.5 0 0 0 297.9999845006897,194.00196841240611" fill="none"/>
<line class="pen1" fill="none" x1="458" x2="522" y1="130" y2="258"/>
<line class="pen1" fill="none" x1="522" x2="394" y1="258" y2="258"/>
<line class="pen1" fill="none" x1="394" x2="458" y1="258" y2="130"/>
<line class="pen1" fill="none" x1="394" x2="522" y1="162" y2="162"/>
<line class="pen1" fill="none" x1="522" x2="458" y1="162" y2="290"/>
<line class="pen1" fill="none" x1="458" x2="394" y1="290" y2="162"/>
</g>
</svg>
