<?xml version="1.0" encoding="UTF-8" standalone="no"?>
<!DOCTYPE svg PUBLIC "-//W3C//DTD SVG 1.0//EN" "http://www.w3.org/TR/2001/REC-SVG-20010904/DTD/svg10.dtd">
<svg xmlns="http://www.w3.org/2000/svg" xmlns:xlink="http://www.w3.org/1999/xlink" fill-rule="evenodd" height="4.5in" preserveAspectRatio="none" stroke-linecap="round" viewBox="0 0 532 324" width="7.385416666666667in">
<style type="text/css">
.brush0 { fill: rgb(255,255,255); }
.pen0 { stroke: rgb(0,0,0); stroke-width: 1; stroke-linejoin: round; }
.font0 { font-size: 11px; font-family: "MS Sans Serif"; }
.pen1 { stroke: rgb(0,0,0); stroke-width: 7; stroke-linejoin: round; }
.brush1 { fill: none; }
.font1 { font-weight: bold; font-size: 16px; font-family: System, sans-serif; }
</style>
<g>
<path class="pen1" d="M 136.99809214776047,257.99223327246324 A 63.5,63.5 0 0 0 73.99998450068972,194.00196841240611" fill="none"/>
<line class="pen1" fill="none" x1="10" x2="138" y1="258" y2="258"/>
<line class="pen1" fill="none" x1="202" x2="202" y1="130" y2="258"/>
<line class="pen1" fill="none" x1="234" x2="362" y1="258" y2="258"/>
<line class="pen1" fill="none" x1="394" x2="522" y1="258" y2="258"/>
<circle class="pen1" cx="297.5" cy="193.5" fill="none" r="63.5"/>
<path class="pen1" d="M 394.0668133480156,161.991250632998 A 127.0,127.5 0 0 0 458.51660167769637,257.0626179235348" fill="none"/>
<path class="pen1" d="M 456.99627285096017,161.98455804386091 A 31.5,31.5 0 1 0 394.00396750426665,161.9999370237418" fill="none"/>
<path class="pen1" d="M 520.9962728509602,161.98455804386091 A 31.5,31.5 0 1 0 458.00396750426665,161.9999370237418" fill="none"/>
<path class="pen1" d="M 457.1722459475495,256.53350659998927 A 127.5,127.5 0 0 0 520.9455787256084,161.86354548213757" fill="none"/>
<line class="pen1" fill="none" x1="170" x2="170" y1="194" y2="194"/>
<path class="pen1" d="M 104.99846653871734,257.9937792952715 A 79.5,79.5 0 0 0 73.75534462938107,194.3203219800887" fill="none"/>
</g>
</svg>
