<?xml version="1.0" encoding="UTF-8" standalone="no"?>
<!DOCTYPE svg PUBLIC "-//W3C//DTD SVG 1.0//EN" "http://www.w3.org/TR/2001/REC-SVG-20010904/DTD/svg10.dtd">
<svg xmlns="http://www.w3.org/2000/svg" xmlns:xlink="http://www.w3.org/1999/xlink" fill-rule="evenodd" height="4.5in" preserveAspectRatio="none" stroke-linecap="round" viewBox="0 0 692 324" width="9.604166666666666in">
<style type="text/css">
.brush0 { fill: rgb(255,255,255); }
.pen0 { stroke: rgb(0,0,0); stroke-width: 1; stroke-linejoin: round; }
.font0 { font-size: 11px; font-family: "MS Sans Serif"; }
.pen1 { stroke: rgb(0,0,0); stroke-width: 7; stroke-linejoin: round; }
.brush1 { fill: none; }
.font1 { font-weight: bold; font-size: 16px; font-family: System, sans-serif; }
</style>
<g>
<line class="pen1" fill="none" x1="138" x2="266" y1="130" y2="130"/>
<line class="pen1" fill="none" x1="266" x2="266" y1="130" y2="258"/>
<line class="pen1" fill="none" x1="266" x2="138" y1="258" y2="258"/>
<line class="pen1" fill="none" x1="10" x2="138" y1="258" y2="258"/>
<line class="pen1" fill="none" x1="298" x2="362" y1="258" y2="194"/>
<line class="pen1" fill="none" x1="362" x2="426" y1="194" y2="258"/>
<line class="pen1" fill="none" x1="426" x2="298" y1="258" y2="258"/>
<path class="pen1" d="M 424.9980921477605,193.99223327246327 A 63.5,63.5 0 1 0 298.00196841240614,193.9999845006897" fill="none"/>
<path class="pen1" d="M 458.1896042251178,193.7981632442294 A 45.0,45.0 0 0 0 520.8198051533947,192.81980515339464" fill="none"/>
<path class="pen1" d="M 586.8938167834691,193.22806732336755 A 45.0,44.5 0 0 0 520.0425932509952,192.20044863397945" fill="none"/>
<path class="pen1" d="M 650.8938167834691,193.22806732336755 A 45.0,44.5 0 0 0 584.0425932509952,192.20044863397945" fill="none"/>
<path class="pen1" d="M 586.1896042251178,193.7981632442294 A 45.0,45.0 0 0 0 648.8198051533947,192.81980515339464" fill="none"/>
<circle class="pen1" cx="617.5" cy="193.5" fill="none" r="63.5"/>
</g>
</svg>
