<?xml version="1.0" encoding="UTF-8" standalone="no"?>
<!DOCTYPE svg PUBLIC "-//W3C//DTD SVG 1.0//EN" "http://www.w3.org/TR/2001/REC-SVG-20010904/DTD/svg10.dtd">
<svg xmlns="http://www.w3.org/2000/svg" xmlns:xlink="http://www.w3.org/1999/xlink" fill-rule="evenodd" height="4.5in" preserveAspectRatio="none" stroke-linecap="round" viewBox="0 0 340 324" width="4.71875in">
<style type="text/css">
.brush0 { fill: rgb(255,255,255); }
.pen0 { stroke: rgb(0,0,0); stroke-width: 1; stroke-linejoin: round; }
.font0 { font-size: 11px; font-family: "MS Sans Serif"; }
.pen1 { stroke: rgb(0,0,0); stroke-width: 7; stroke-linejoin: round; }
.brush1 { fill: none; }
.font1 { font-weight: bold; font-size: 16px; font-family: System, sans-serif; }
</style>
<g>
<line class="pen1" fill="none" x1="154" x2="170" y1="226" y2="194"/>
<line class="pen1" fill="none" x1="170" x2="186" y1="194" y2="226"/>
<path class="pen1" d="M 233.99998450068972,130.00196841240611 A 63.5,63.5 0 0 0 170.00196841240611,193.9999845006897" fill="none"/>
<path class="pen1" d="M 168.99809214776047,193.99223327246327 A 63.5,63.5 0 0 0 105.99998450068972,130.00196841240611" fill="none"/>
<line class="pen1" fill="none" x1="266" x2="330" y1="130" y2="130"/>
<line class="pen1" fill="none" x1="266" x2="330" y1="258" y2="258"/>
<line class="pen1" fill="none" x1="298" x2="298" y1="130" y2="258"/>
<line class="pen1" fill="none" x1="10" x2="74" y1="258" y2="258"/>
<circle class="pen1" cx="41.5" cy="193.5" fill="none" r="31.5"/>
<path class="pen1" d="M 170.89381678346916,289.22806732336755 A 45.0,44.5 0 0 0 104.0425932509952,288.2004486339795" fill="none"/>
<path class="pen1" d="M 170.18960422511782,289.79816324422944 A 45.0,45.0 0 0 0 232.81980515339464,288.8198051533946" fill="none"/>
</g>
</svg>
