<?xml version="1.0" encoding="UTF-8" standalone="no"?>
<!DOCTYPE svg PUBLIC "-//W3C//DTD SVG 1.0//EN" "http://www.w3.org/TR/2001/REC-SVG-20010904/DTD/svg10.dtd">
<svg xmlns="http://www.w3.org/2000/svg" xmlns:xlink="http://www.w3.org/1999/xlink" fill-rule="evenodd" height="4.5in" preserveAspectRatio="none" stroke-linecap="round" viewBox="0 0 660 324" width="9.166666666666666in">
<style type="text/css">
.brush0 { fill: rgb(255,255,255); }
.pen0 { stroke: rgb(0,0,0); stroke-width: 1; stroke-linejoin: round; }
.font0 { font-size: 11px; font-family: "MS Sans Serif"; }
.pen1 { stroke: rgb(0,0,0); stroke-width: 7; stroke-linejoin: round; }
.brush1 { fill: none; }
.font1 { font-weight: bold; font-size: 16px; font-family: System, sans-serif; }
</style>
<g>
<line class="pen1" fill="none" x1="10" x2="74" y1="130" y2="130"/>
<line class="pen1" fill="none" x1="74" x2="74" y1="130" y2="258"/>
<line class="pen1" fill="none" x1="74" x2="10" y1="258" y2="258"/>
<line class="pen1" fill="none" x1="10" x2="10" y1="258" y2="130"/>
<line class="pen1" fill="none" x1="74" x2="138" y1="130" y2="130"/>
<line class="pen1" fill="none" x1="138" x2="138" y1="130" y2="258"/>
<line class="pen1" fill="none" x1="138" x2="74" y1="258" y2="258"/>
<line class="pen1" fill="none" x1="74" x2="74" y1="258" y2="130"/>
<circle class="pen1" cx="297.5" cy="193.5" fill="none" r="63.5"/>
<path class="pen1" d="M 409.1801948466054,193.18019484660536 A 45.0,45.0 0 0 0 410.1896042251178,257.79816324422944" fill="none"/>
<line class="pen1" fill="none" x1="410" x2="538" y1="194" y2="194"/>
<line class="pen1" fill="none" x1="410" x2="538" y1="258" y2="258"/>
<path class="pen1" d="M 536.8198051533947,256.8198051533946 A 45.0,45.0 0 0 0 537.3208100255129,193.68921528778446" fill="none"/>
<line class="pen1" fill="none" x1="234" x2="362" y1="258" y2="258"/>
<line class="pen1" fill="none" x1="586" x2="650" y1="194" y2="194"/>
<line class="pen1" fill="none" x1="586" x2="650" y1="258" y2="258"/>
<line class="pen1" fill="none" x1="170" x2="202" y1="194" y2="194"/>
<line class="pen1" fill="none" x1="202" x2="186" y1="194" y2="258"/>
</g>
</svg>
