<?xml version="1.0" encoding="UTF-8" standalone="no"?>
<!DOCTYPE svg PUBLIC "-//W3C//DTD SVG 1.0//EN" "http://www.w3.org/TR/2001/REC-SVG-20010904/DTD/svg10.dtd">
<svg xmlns="http://www.w3.org/2000/svg" xmlns:xlink="http://www.w3.org/1999/xlink" fill-rule="evenodd" height="4.5in" preserveAspectRatio="none" stroke-linecap="round" viewBox="0 0 436 324" width="6.052083333333333in">
<style type="text/css">
.brush0 { fill: rgb(255,255,255); }
.pen0 { stroke: rgb(0,0,0); stroke-width: 1; stroke-linejoin: round; }
.font0 { font-size: 11px; font-family: "MS Sans Serif"; }
.pen1 { stroke: rgb(0,0,0); stroke-width: 7; stroke-linejoin: round; }
.brush1 { fill: none; }
.font1 { font-weight: bold; font-size: 16px; font-family: System, sans-serif; }
</style>
<g>
<line class="pen1" fill="none" x1="10" x2="138" y1="194" y2="194"/>
<path class="pen1" d="M 185.18019484660536,129.18019484660536 A 45.0,45.0 0 0 0 186.18960422511782,193.7981632442294" fill="none"/>
<path class="pen1" d="M 184.81980515339464,256.8198051533946 A 45.0,45.0 0 0 0 185.3208100255128,193.68921528778446" fill="none"/>
<line class="pen1" fill="none" x1="186" x2="186" y1="130" y2="258"/>
<line class="pen1" fill="none" x1="266" x2="394" y1="130" y2="130"/>
<line class="pen1" fill="none" x1="266" x2="394" y1="258" y2="258"/>
<line class="pen1" fill="none" x1="330" x2="362" y1="162" y2="226"/>
<line class="pen1" fill="none" x1="362" x2="298" y1="226" y2="226"/>
<line class="pen1" fill="none" x1="298" x2="330" y1="226" y2="162"/>
<path class="pen1" d="M 393.27877372651983,257.04084340949544 A 79.5,79.5 0 0 0 393.75534462938106,130.3203219800887" fill="none"/>
<path class="pen1" d="M 265.88023962806767,129.8398992922589 A 79.5,79.5 0 0 0 266.3576053756417,257.5144095425497" fill="none"/>
</g>
</svg>
