<?xml version="1.0" encoding="UTF-8" standalone="no"?>
<!DOCTYPE svg PUBLIC "-//W3C//DTD SVG 1.0//EN" "http://www.w3.org/TR/2001/REC-SVG-20010904/DTD/svg10.dtd">
<svg xmlns="http://www.w3.org/2000/svg" xmlns:xlink="http://www.w3.org/1999/xlink" fill-rule="evenodd" height="4.5in" preserveAspectRatio="none" stroke-linecap="round" viewBox="0 0 468 324" width="6.5in">
<style type="text/css">
.brush0 { fill: rgb(255,255,255); }
.pen0 { stroke: rgb(0,0,0); stroke-width: 1; stroke-linejoin: round; }
.font0 { font-size: 11px; font-family: "MS Sans Serif"; }
.pen1 { stroke: rgb(0,0,0); stroke-width: 7; stroke-linejoin: round; }
.brush1 { fill: none; }
.brush2 { fill: rgb(0,0,0); }
.font1 { font-weight: bold; font-size: 16px; font-family: System, sans-serif; }
</style>
<g>
<circle class="pen1" cx="41.5" cy="193.5" fill="none" r="31.5"/>
<circle class="pen1" cx="425.5" cy="193.5" fill="none" r="31.5"/>
<path class="pen1" d="M 102.2922625493724,266.25260069167587 A 15.5,15.5 0 0 0 104.99816600602801,257.73843332316966" fill="none"/>
<ellipse class="pen1 brush2" cx="102" cy="257" rx="3" ry="3"/>
<path class="pen1" d="M 138.06681334801561,161.991250632998 A 127.0,127.5 0 0 0 202.51660167769637,257.0626179235348" fill="none"/>
<path class="pen1" d="M 200.99627285096017,161.98455804386091 A 31.5,31.5 0 1 0 138.00396750426663,161.9999370237418" fill="none"/>
<path class="pen1" d="M 264.99627285096017,161.98455804386091 A 31.5,31.5 0 1 0 202.00396750426663,161.9999370237418" fill="none"/>
<path class="pen1" d="M 201.1722459475495,256.53350659998927 A 127.5,127.5 0 0 0 264.94557872560836,161.86354548213757" fill="none"/>
<line class="pen1" fill="none" x1="330" x2="298" y1="130" y2="162"/>
<line class="pen1" fill="none" x1="330" x2="362" y1="130" y2="162"/>
<line class="pen1" fill="none" x1="330" x2="330" y1="130" y2="258"/>
<line class="pen1" fill="none" x1="26" x2="42" y1="98" y2="66"/>
<line class="pen1" fill="none" x1="42" x2="58" y1="66" y2="98"/>
</g>
</svg>
