<?xml version="1.0" encoding="UTF-8" standalone="no"?>
<!DOCTYPE svg PUBLIC "-//W3C//DTD SVG 1.0//EN" "http://www.w3.org/TR/2001/REC-SVG-20010904/DTD/svg10.dtd">
<svg xmlns="http://www.w3.org/2000/svg" xmlns:xlink="http://www.w3.org/1999/xlink" fill-rule="evenodd" height="4.5in" preserveAspectRatio="none" stroke-linecap="round" viewBox="0 0 500 324" width="6.9375in">
<style type="text/css">
.brush0 { fill: rgb(255,255,255); }
.pen0 { stroke: rgb(0,0,0); stroke-width: 1; stroke-linejoin: round; }
.font0 { font-size: 11px; font-family: "MS Sans Serif"; }
.pen1 { stroke: rgb(0,0,0); stroke-width: 7; stroke-linejoin: round; }
.brush1 { fill: none; }
.brush2 { fill: rgb(0,0,0); }
.font1 { font-weight: bold; font-size: 16px; font-family: System, sans-serif; }
</style>
<g>
<line class="pen1" fill="none" x1="10" x2="138" y1="258" y2="258"/>
<path class="pen1" d="M 73.99223327246327,256.9980921477605 A 63.5,63.5 0 0 0 73.99998450068972,130.00196841240611" fill="none"/>
<path class="pen1" d="M 73.27877372651983,257.04084340949544 A 79.5,79.5 0 0 0 73.75534462938107,130.3203219800887" fill="none"/>
<path class="pen1" d="M 166.2922625493724,266.25260069167587 A 15.5,15.5 0 0 0 168.99816600602801,257.73843332316966" fill="none"/>
<ellipse class="pen1 brush2" cx="166" cy="257" rx="3" ry="3"/>
<path class="pen1" d="M 216.81980515339464,192.81980515339464 A 45.0,45.0 0 0 0 217.3208100255128,129.68921528778446" fill="none"/>
<path class="pen1" d="M 217.18019484660536,193.18019484660536 A 45.0,45.0 0 0 0 218.18960422511782,257.79816324422944" fill="none"/>
<path class="pen1" d="M 266.0668133480156,161.991250632998 A 127.0,127.5 0 0 0 330.51660167769637,257.0626179235348" fill="none"/>
<path class="pen1" d="M 328.99627285096017,161.98455804386091 A 31.5,31.5 0 1 0 266.00396750426665,161.9999370237418" fill="none"/>
<path class="pen1" d="M 392.99627285096017,161.98455804386091 A 31.5,31.5 0 1 0 330.00396750426665,161.9999370237418" fill="none"/>
<path class="pen1" d="M 329.1722459475495,256.53350659998927 A 127.5,127.5 0 0 0 392.94557872560836,161.86354548213757" fill="none"/>
<line class="pen1" fill="none" x1="458" x2="426" y1="130" y2="162"/>
<line class="pen1" fill="none" x1="458" x2="490" y1="130" y2="162"/>
<line class="pen1" fill="none" x1="458" x2="458" y1="130" y2="258"/>
</g>
</svg>
