<?xml version="1.0" encoding="UTF-8" standalone="no"?>
<!DOCTYPE svg PUBLIC "-//W3C//DTD SVG 1.0//EN" "http://www.w3.org/TR/2001/REC-SVG-20010904/DTD/svg10.dtd">
<svg xmlns="http://www.w3.org/2000/svg" xmlns:xlink="http://www.w3.org/1999/xlink" fill-rule="evenodd" height="4.5in" preserveAspectRatio="none" stroke-linecap="round" viewBox="0 0 804 324" width="11.15625in">
<style type="text/css">
.brush0 { fill: rgb(255,255,255); }
.pen0 { stroke: rgb(0,0,0); stroke-width: 1; stroke-linejoin: round; }
.font0 { font-size: 11px; font-family: "MS Sans Serif"; }
.pen1 { stroke: rgb(0,0,0); stroke-width: 7; stroke-linejoin: round; }
.brush1 { fill: none; }
.font1 { font-weight: bold; font-size: 16px; font-family: System, sans-serif; }
</style>
<g>
<line class="pen1" fill="none" x1="250" x2="218" y1="162" y2="194"/>
<line class="pen1" fill="none" x1="218" x2="250" y1="194" y2="226"/>
<path class="pen1" d="M 73.99223327246327,192.99809214776047 A 63.5,63.5 0 0 0 136.99809214776047,129.99223327246327" fill="none"/>
<path class="pen1" d="M 138.00196841240611,129.9999845006897 A 63.5,63.5 0 0 0 201.99223327246327,192.99809214776047" fill="none"/>
<line class="pen1" fill="none" x1="138" x2="138" y1="130" y2="258"/>
<circle class="pen1" cx="409.5" cy="193.5" fill="none" r="63.5"/>
<line class="pen1" fill="none" x1="346" x2="474" y1="258" y2="258"/>
<line class="pen1" fill="none" x1="506" x2="570" y1="194" y2="130"/>
<line class="pen1" fill="none" x1="570" x2="634" y1="130" y2="194"/>
<line class="pen1" fill="none" x1="554" x2="586" y1="66" y2="66"/>
<line class="pen1" fill="none" x1="586" x2="586" y1="66" y2="98"/>
<line class="pen1" fill="none" x1="586" x2="554" y1="98" y2="98"/>
<line class="pen1" fill="none" x1="554" x2="554" y1="98" y2="66"/>
<line class="pen1" fill="none" x1="714" x2="746" y1="66" y2="98"/>
<line class="pen1" fill="none" x1="746" x2="714" y1="66" y2="98"/>
<path class="pen1" d="M 665.9922332724633,192.99809214776047 A 63.5,63.5 0 0 0 728.9980921477604,129.99223327246327" fill="none"/>
<path class="pen1" d="M 730.0019684124061,129.9999845006897 A 63.5,63.5 0 0 0 793.9922332724633,192.99809214776047" fill="none"/>
<line class="pen1" fill="none" x1="730" x2="730" y1="130" y2="258"/>
<path class="pen1" d="M 25.969481462931924,224.9928882767534 A 15.5,15.5 0 1 0 10.008058227734656,209.99974005716984" fill="none"/>
<path class="pen1" d="M 10.008058227734656,241.99974005716984 A 15.5,15.5 0 1 0 25.99974005716985,226.00805822773467" fill="none"/>
<line class="pen1" fill="none" x1="282" x2="314" y1="194" y2="194"/>
<line class="pen1" fill="none" x1="314" x2="298" y1="194" y2="258"/>
</g>
</svg>
