<?xml version="1.0" encoding="UTF-8" standalone="no"?>
<!DOCTYPE svg PUBLIC "-//W3C//DTD SVG 1.0//EN" "http://www.w3.org/TR/2001/REC-SVG-20010904/DTD/svg10.dtd">
<svg xmlns="http://www.w3.org/2000/svg" xmlns:xlink="http://www.w3.org/1999/xlink" fill-rule="evenodd" height="4.5in" preserveAspectRatio="none" stroke-linecap="round" viewBox="0 0 628 324" width="8.71875in">
<style type="text/css">
.brush0 { fill: rgb(255,255,255); }
.pen0 { stroke: rgb(0,0,0); stroke-width: 1; stroke-linejoin: round; }
.font0 { font-size: 11px; font-family: "MS Sans Serif"; }
.pen1 { stroke: rgb(0,0,0); stroke-width: 7; stroke-linejoin: round; }
.brush1 { fill: none; }
.font1 { font-weight: bold; font-size: 16px; font-family: System, sans-serif; }
</style>
<g>
<line class="pen1" fill="none" x1="138" x2="138" y1="130" y2="258"/>
<line class="pen1" fill="none" x1="10" x2="138" y1="194" y2="194"/>
<line class="pen1" fill="none" x1="138" x2="106" y1="194" y2="162"/>
<line class="pen1" fill="none" x1="138" x2="106" y1="194" y2="226"/>
<path class="pen1" d="M 234.89381678346916,193.22806732336755 A 45.0,44.5 0 0 0 168.0425932509952,192.20044863397945" fill="none"/>
<path class="pen1" d="M 234.18960422511782,193.7981632442294 A 45.0,45.0 0 0 0 296.81980515339467,192.81980515339464" fill="none"/>
<path class="pen1" d="M 361.88023962806767,129.8398992922589 A 79.5,79.5 0 0 0 362.3576053756417,257.5144095425497" fill="none"/>
<line class="pen1" fill="none" x1="362" x2="490" y1="258" y2="258"/>
<line class="pen1" fill="none" x1="362" x2="490" y1="130" y2="130"/>
<path class="pen1" d="M 489.27877372651983,257.04084340949544 A 79.5,79.5 0 0 0 489.75534462938106,130.3203219800887" fill="none"/>
<path class="pen1" d="M 553.9922332724633,256.9980921477605 A 63.5,63.5 0 0 0 553.9999845006897,130.00196841240611" fill="none"/>
<line class="pen1" fill="none" x1="554" x2="554" y1="130" y2="258"/>
<line class="pen1" fill="none" x1="426" x2="458" y1="162" y2="226"/>
<line class="pen1" fill="none" x1="458" x2="394" y1="226" y2="226"/>
<line class="pen1" fill="none" x1="394" x2="426" y1="226" y2="162"/>
</g>
</svg>
