<?xml version="1.0" encoding="UTF-8" standalone="no"?>
<!DOCTYPE svg PUBLIC "-//W3C//DTD SVG 1.0//EN" "http://www.w3.org/TR/2001/REC-SVG-20010904/DTD/svg10.dtd">
<svg xmlns="http://www.w3.org/2000/svg" xmlns:xlink="http://www.w3.org/1999/xlink" fill-rule="evenodd" height="4.5in" preserveAspectRatio="none" stroke-linecap="round" viewBox="0 0 148 324" width="2.0520833333333335in">
<style type="text/css">
.brush0 { fill: rgb(255,255,255); }
.pen0 { stroke: rgb(0,0,0); stroke-width: 1; stroke-linejoin: round; }
.font0 { font-size: 11px; font-family: "MS Sans Serif"; }
.pen1 { stroke: rgb(0,0,0); stroke-width: 7; stroke-linejoin: round; }
.brush1 { fill: none; }
.font1 { font-weight: bold; font-size: 16px; font-family: System, sans-serif; }
</style>
<g>
<path class="pen1" d="M 72.99627285096015,193.98455804386091 A 31.5,31.5 0 1 0 10.003967504266633,193.9999370237418" fill="none"/>
<path class="pen1" d="M 136.99627285096017,193.98455804386091 A 31.5,31.5 0 1 0 74.00396750426663,193.9999370237418" fill="none"/>
<path class="pen1" d="M 73.99223327246327,256.9980921477605 A 63.5,63.5 0 0 0 136.99809214776047,193.99223327246327" fill="none"/>
<path class="pen1" d="M 10.001968412406121,193.9999845006897 A 63.5,63.5 0 0 0 73.99223327246327,256.9980921477605" fill="none"/>
<path class="pen1" d="M 72.55634918610404,240.55634918610406 A 22.0,22.0 0 0 0 73.04981849108188,209.95329516461075" fill="none"/>
<path class="pen1" d="M 73.44365081389596,209.44365081389594 A 22.0,22.0 0 0 0 74.44432398408938,241.49643281803205" fill="none"/>
<path class="pen1" d="M 137.99998450068972,130.00196841240611 A 63.5,63.5 0 0 0 74.00196841240611,193.9999845006897" fill="none"/>
</g>
</svg>
