<?xml version="1.0" encoding="UTF-8" standalone="no"?>
<!DOCTYPE svg PUBLIC "-//W3C//DTD SVG 1.0//EN" "http://www.w3.org/TR/2001/REC-SVG-20010904/DTD/svg10.dtd">
<svg xmlns="http://www.w3.org/2000/svg" xmlns:xlink="http://www.w3.org/1999/xlink" fill-rule="evenodd" height="4.5in" preserveAspectRatio="none" stroke-linecap="round" viewBox="0 0 388 324" width="5.385416666666667in">
<style type="text/css">
.brush0 { fill: rgb(255,255,255); }
.pen0 { stroke: rgb(0,0,0); stroke-width: 1; stroke-linejoin: round; }
.font0 { font-size: 11px; font-family: "MS Sans Serif"; }
.pen1 { stroke: rgb(0,0,0); stroke-width: 7; stroke-linejoin: round; }
.brush1 { fill: none; }
.font1 { font-weight: bold; font-size: 16px; font-family: System, sans-serif; }
</style>
<g>
<circle class="pen1" cx="297.5" cy="225.5" fill="none" r="31.5"/>
<path class="pen1" d="M 344.81980515339467,256.8198051533946 A 45.0,45.0 0 0 0 345.3208100255128,193.68921528778446" fill="none"/>
<line class="pen1" fill="none" x1="26" x2="154" y1="258" y2="258"/>
<line class="pen1" fill="none" x1="26" x2="154" y1="194" y2="194"/>
<line class="pen1" fill="none" x1="58" x2="90" y1="306" y2="274"/>
<line class="pen1" fill="none" x1="90" x2="122" y1="274" y2="306"/>
<line class="pen1" fill="none" x1="58" x2="90" y1="146" y2="178"/>
<line class="pen1" fill="none" x1="90" x2="122" y1="178" y2="146"/>
<path class="pen1" d="M 152.81980515339464,256.8198051533946 A 45.0,45.0 0 0 0 153.3208100255128,193.68921528778446" fill="none"/>
<path class="pen1" d="M 25.180194846605364,193.18019484660536 A 45.0,45.0 0 0 0 26.189604225117815,257.79816324422944" fill="none"/>
<path class="pen1" d="M 216.81980515339464,192.81980515339464 A 45.0,45.0 0 0 0 217.3208100255128,129.68921528778446" fill="none"/>
<path class="pen1" d="M 217.18019484660536,193.18019484660536 A 45.0,45.0 0 0 0 218.18960422511782,257.79816324422944" fill="none"/>
</g>
</svg>
