<?xml version="1.0" encoding="UTF-8" standalone="no"?>
<!DOCTYPE svg PUBLIC "-//W3C//DTD SVG 1.0//EN" "http://www.w3.org/TR/2001/REC-SVG-20010904/DTD/svg10.dtd">
<svg xmlns="http://www.w3.org/2000/svg" xmlns:xlink="http://www.w3.org/1999/xlink" fill-rule="evenodd" height="4.5in" preserveAspectRatio="none" stroke-linecap="round" viewBox="0 0 420 324" width="5.833333333333333in">
<style type="text/css">
.brush0 { fill: rgb(255,255,255); }
.pen0 { stroke: rgb(0,0,0); stroke-width: 1; stroke-linejoin: round; }
.font0 { font-size: 11px; font-family: "MS Sans Serif"; }
.pen1 { stroke: rgb(0,0,0); stroke-width: 7; stroke-linejoin: round; }
.brush1 { fill: none; }
.font1 { font-weight: bold; font-size: 16px; font-family: System, sans-serif; }
</style>
<g>
<line class="pen1" fill="none" x1="298" x2="362" y1="226" y2="226"/>
<line class="pen1" fill="none" x1="330" x2="330" y1="162" y2="226"/>
<circle class="pen1" cx="329.5" cy="193.5" fill="none" r="63.5"/>
<path class="pen1" d="M 297.44365081389594,257.44365081389594 A 22.0,22.0 0 0 0 298.4443239840894,289.496432818032" fill="none"/>
<path class="pen1" d="M 329.44365081389594,257.44365081389594 A 22.0,22.0 0 0 0 330.4443239840894,289.496432818032" fill="none"/>
<path class="pen1" d="M 361.44365081389594,257.44365081389594 A 22.0,22.0 0 0 0 362.4443239840894,289.496432818032" fill="none"/>
<line class="pen1" fill="none" x1="410" x2="378" y1="258" y2="290"/>
<line class="pen1" fill="none" x1="378" x2="410" y1="290" y2="322"/>
<line class="pen1" fill="none" x1="362" x2="362" y1="162" y2="162"/>
<line class="pen1" fill="none" x1="298" x2="298" y1="162" y2="162"/>
<path class="pen1" d="M 106.00196841240611,193.9999845006897 A 63.5,63.5 0 0 0 232.99809214776047,193.99223327246327" fill="none"/>
<path class="pen1" d="M 170.89381678346916,193.22806732336755 A 45.0,44.5 0 0 0 104.0425932509952,192.20044863397945" fill="none"/>
<path class="pen1" d="M 170.18960422511782,193.7981632442294 A 45.0,45.0 0 0 0 232.81980515339464,192.81980515339464" fill="none"/>
<line class="pen1" fill="none" x1="10" x2="74" y1="162" y2="162"/>
<line class="pen1" fill="none" x1="74" x2="74" y1="162" y2="226"/>
<line class="pen1" fill="none" x1="74" x2="10" y1="226" y2="226"/>
<line class="pen1" fill="none" x1="10" x2="10" y1="226" y2="162"/>
</g>
</svg>
