<?xml version="1.0" encoding="UTF-8" standalone="no"?>
<!DOCTYPE svg PUBLIC "-//W3C//DTD SVG 1.0//EN" "http://www.w3.org/TR/2001/REC-SVG-20010904/DTD/svg10.dtd">
<svg xmlns="http://www.w3.org/2000/svg" xmlns:xlink="http://www.w3.org/1999/xlink" fill-rule="evenodd" height="4.5in" preserveAspectRatio="none" stroke-linecap="round" viewBox="0 0 468 324" width="6.5in">
<style type="text/css">
.brush0 { fill: rgb(255,255,255); }
.pen0 { stroke: rgb(0,0,0); stroke-width: 1; stroke-linejoin: round; }
.font0 { font-size: 11px; font-family: "MS Sans Serif"; }
.pen1 { stroke: rgb(0,0,0); stroke-width: 7; stroke-linejoin: round; }
.brush1 { fill: none; }
.font1 { font-weight: bold; font-size: 16px; font-family: System, sans-serif; }
</style>
<g>
<path class="pen1" d="M 394.89381678346916,193.22806732336755 A 45.0,44.5 0 0 0 328.0425932509952,192.20044863397945" fill="none"/>
<path class="pen1" d="M 394.1896042251178,193.7981632442294 A 45.0,45.0 0 0 0 456.81980515339467,192.81980515339464" fill="none"/>
<line class="pen1" fill="none" x1="394" x2="394" y1="130" y2="258"/>
<line class="pen1" fill="none" x1="378" x2="410" y1="242" y2="274"/>
<line class="pen1" fill="none" x1="410" x2="378" y1="242" y2="274"/>
<line class="pen1" fill="none" x1="106" x2="170" y1="258" y2="130"/>
<line class="pen1" fill="none" x1="170" x2="234" y1="130" y2="258"/>
<line class="pen1" fill="none" x1="106" x2="170" y1="258" y2="258"/>
<line class="pen1" fill="none" x1="234" x2="298" y1="258" y2="258"/>
<line class="pen1" fill="none" x1="42" x2="42" y1="130" y2="258"/>
<path class="pen1" d="M 41.27877372651982,257.04084340949544 A 79.5,79.5 0 0 0 41.75534462938107,130.3203219800887" fill="none"/>
<path class="pen1" d="M 41.88023962806765,129.8398992922589 A 79.5,79.5 0 0 0 42.35760537564172,257.5144095425497" fill="none"/>
<line class="pen1" fill="none" x1="10" x2="74" y1="194" y2="194"/>
<line class="pen1" fill="none" x1="42" x2="42" y1="258" y2="322"/>
<line class="pen1" fill="none" x1="394" x2="394" y1="258" y2="290"/>
</g>
</svg>
