<?xml version="1.0" encoding="UTF-8" standalone="no"?>
<!DOCTYPE svg PUBLIC "-//W3C//DTD SVG 1.0//EN" "http://www.w3.org/TR/2001/REC-SVG-20010904/DTD/svg10.dtd">
<svg xmlns="http://www.w3.org/2000/svg" xmlns:xlink="http://www.w3.org/1999/xlink" fill-rule="evenodd" height="4.5in" preserveAspectRatio="none" stroke-linecap="round" viewBox="0 0 340 324" width="4.71875in">
<style type="text/css">
.brush0 { fill: rgb(255,255,255); }
.pen0 { stroke: rgb(0,0,0); stroke-width: 1; stroke-linejoin: round; }
.font0 { font-size: 11px; font-family: "MS Sans Serif"; }
.pen1 { stroke: rgb(0,0,0); stroke-width: 7; stroke-linejoin: round; }
.brush1 { fill: none; }
.font1 { font-weight: bold; font-size: 16px; font-family: System, sans-serif; }
</style>
<g>
<circle class="pen1" cx="41.5" cy="193.5" fill="none" r="31.5"/>
<line class="pen1" fill="none" x1="42" x2="42" y1="194" y2="194"/>
<line class="pen1" fill="none" x1="106" x2="170" y1="162" y2="162"/>
<line class="pen1" fill="none" x1="170" x2="170" y1="162" y2="226"/>
<line class="pen1" fill="none" x1="170" x2="106" y1="226" y2="226"/>
<line class="pen1" fill="none" x1="106" x2="106" y1="226" y2="162"/>
<path class="pen1" d="M 233.9999370237418,130.00396750426663 A 31.5,31.5 0 1 0 233.98455804386091,192.99627285096017" fill="none"/>
<path class="pen1" d="M 202.00396750426663,161.9999370237418 A 31.5,31.5 0 0 0 264.99627285096017,161.98455804386091" fill="none"/>
<path class="pen1" d="M 265.9999370237418,162.00396750426663 A 31.5,31.5 0 1 0 265.98455804386094,224.99627285096017" fill="none"/>
<path class="pen1" d="M 234.00396750426663,193.9999370237418 A 31.5,31.5 0 0 0 296.99627285096017,193.98455804386091" fill="none"/>
<path class="pen1" d="M 266.00396750426665,225.9999370237418 A 31.5,31.5 0 0 0 328.99627285096017,225.98455804386091" fill="none"/>
<path class="pen1" d="M 297.9999370237418,194.00396750426663 A 31.5,31.5 0 1 0 297.98455804386094,256.99627285096017" fill="none"/>
</g>
</svg>
