<?xml version="1.0" encoding="UTF-8" standalone="no"?>
<!DOCTYPE svg PUBLIC "-//W3C//DTD SVG 1.0//EN" "http://www.w3.org/TR/2001/REC-SVG-20010904/DTD/svg10.dtd">
<svg xmlns="http://www.w3.org/2000/svg" xmlns:xlink="http://www.w3.org/1999/xlink" fill-rule="evenodd" height="4.5in" preserveAspectRatio="none" stroke-linecap="round" viewBox="0 0 468 324" width="6.5in">
<style type="text/css">
.brush0 { fill: rgb(255,255,255); }
.pen0 { stroke: rgb(0,0,0); stroke-width: 1; stroke-linejoin: round; }
.font0 { font-size: 11px; font-family: "MS Sans Serif"; }
.pen1 { stroke: rgb(0,0,0); stroke-width: 7; stroke-linejoin: round; }
.brush1 { fill: none; }
.font1 { font-weight: bold; font-size: 16px; font-family: System, sans-serif; }
</style>
<g>
<line class="pen1" fill="none" x1="74" x2="10" y1="130" y2="194"/>
<line class="pen1" fill="none" x1="10" x2="10" y1="194" y2="258"/>
<line class="pen1" fill="none" x1="10" x2="138" y1="258" y2="258"/>
<line class="pen1" fill="none" x1="138" x2="138" y1="258" y2="194"/>
<line class="pen1" fill="none" x1="138" x2="74" y1="194" y2="130"/>
<line class="pen1" fill="none" x1="170" x2="234" y1="194" y2="130"/>
<line class="pen1" fill="none" x1="234" x2="298" y1="130" y2="194"/>
<line class="pen1" fill="none" x1="394" x2="394" y1="130" y2="258"/>
<path class="pen1" d="M 329.99223327246324,192.99809214776047 A 63.5,63.5 0 0 0 392.9980921477605,129.99223327246327" fill="none"/>
<path class="pen1" d="M 394.00196841240614,129.9999845006897 A 63.5,63.5 0 0 0 457.99223327246324,192.99809214776047" fill="none"/>
<line class="pen1" fill="none" x1="378" x2="410" y1="66" y2="98"/>
<line class="pen1" fill="none" x1="410" x2="378" y1="66" y2="98"/>
<line class="pen1" fill="none" x1="218" x2="250" y1="66" y2="66"/>
<line class="pen1" fill="none" x1="250" x2="250" y1="66" y2="98"/>
<line class="pen1" fill="none" x1="250" x2="218" y1="98" y2="98"/>
<line class="pen1" fill="none" x1="218" x2="218" y1="98" y2="66"/>
</g>
</svg>
