<?xml version="1.0" encoding="UTF-8" standalone="no"?>
<!DOCTYPE svg PUBLIC "-//W3C//DTD SVG 1.0//EN" "http://www.w3.org/TR/2001/REC-SVG-20010904/DTD/svg10.dtd">
<svg xmlns="http://www.w3.org/2000/svg" xmlns:xlink="http://www.w3.org/1999/xlink" fill-rule="evenodd" height="4.5in" preserveAspectRatio="none" stroke-linecap="round" viewBox="0 0 500 324" width="6.9375in">
<style type="text/css">
.brush0 { fill: rgb(255,255,255); }
.pen0 { stroke: rgb(0,0,0); stroke-width: 1; stroke-linejoin: round; }
.font0 { font-size: 11px; font-family: "MS Sans Serif"; }
.pen1 { stroke: rgb(0,0,0); stroke-width: 7; stroke-linejoin: round; }
.brush1 { fill: none; }
.font1 { font-weight: bold; font-size: 16px; font-family: System, sans-serif; }
</style>
<g>
<circle class="pen1" cx="41.5" cy="193.5" fill="none" r="31.5"/>
<line class="pen1" fill="none" x1="10" x2="74" y1="258" y2="258"/>
<line class="pen1" fill="none" x1="10" x2="42" y1="226" y2="258"/>
<line class="pen1" fill="none" x1="42" x2="74" y1="258" y2="226"/>
<line class="pen1" fill="none" x1="106" x2="234" y1="258" y2="258"/>
<line class="pen1" fill="none" x1="138" x2="138" y1="290" y2="290"/>
<line class="pen1" fill="none" x1="202" x2="202" y1="290" y2="290"/>
<line class="pen1" fill="none" x1="426" x2="426" y1="130" y2="258"/>
<line class="pen1" fill="none" x1="410" x2="442" y1="242" y2="274"/>
<line class="pen1" fill="none" x1="442" x2="410" y1="242" y2="274"/>
<path class="pen1" d="M 426.89381678346916,193.22806732336755 A 45.0,44.5 0 0 0 360.0425932509952,192.20044863397945" fill="none"/>
<path class="pen1" d="M 426.1896042251178,193.7981632442294 A 45.0,45.0 0 0 0 488.81980515339467,192.81980515339464" fill="none"/>
<line class="pen1" fill="none" x1="298" x2="298" y1="194" y2="194"/>
<circle class="pen1" cx="297.5" cy="193.5" fill="none" r="31.5"/>
<line class="pen1" fill="none" x1="266" x2="330" y1="258" y2="258"/>
<line class="pen1" fill="none" x1="426" x2="426" y1="258" y2="290"/>
</g>
</svg>
