<?xml version="1.0" encoding="UTF-8" standalone="no"?>
<!DOCTYPE svg PUBLIC "-//W3C//DTD SVG 1.0//EN" "http://www.w3.org/TR/2001/REC-SVG-20010904/DTD/svg10.dtd">
<svg xmlns="http://www.w3.org/2000/svg" xmlns:xlink="http://www.w3.org/1999/xlink" fill-rule="evenodd" height="4.5in" preserveAspectRatio="none" stroke-linecap="round" viewBox="0 0 692 324" width="9.604166666666666in">
<style type="text/css">
.brush0 { fill: rgb(255,255,255); }
.pen0 { stroke: rgb(0,0,0); stroke-width: 1; stroke-linejoin: round; }
.font0 { font-size: 11px; font-family: "MS Sans Serif"; }
.pen1 { stroke: rgb(0,0,0); stroke-width: 7; stroke-linejoin: round; }
.brush1 { fill: none; }
.brush2 { fill: rgb(0,0,0); }
.font1 { font-weight: bold; font-size: 16px; font-family: System, sans-serif; }
</style>
<g>
<line class="pen1" fill="none" x1="10" x2="138" y1="162" y2="162"/>
<line class="pen1" fill="none" x1="10" x2="138" y1="226" y2="226"/>
<line class="pen1" fill="none" x1="42" x2="42" y1="130" y2="258"/>
<line class="pen1" fill="none" x1="106" x2="106" y1="130" y2="258"/>
<line class="pen1" fill="none" x1="10" x2="74" y1="194" y2="130"/>
<line class="pen1" fill="none" x1="74" x2="138" y1="130" y2="194"/>
<path class="pen1" d="M 166.2922625493724,266.25260069167587 A 15.5,15.5 0 0 0 168.99816600602801,257.73843332316966" fill="none"/>
<ellipse class="pen1 brush2" cx="166" cy="257" rx="3" ry="3"/>
<circle class="pen1" cx="233.5" cy="193.5" fill="none" r="31.5"/>
<line class="pen1" fill="none" x1="298" x2="330" y1="162" y2="194"/>
<line class="pen1" fill="none" x1="330" x2="298" y1="194" y2="226"/>
<line class="pen1" fill="none" x1="362" x2="362" y1="162" y2="226"/>
<line class="pen1" fill="none" x1="394" x2="426" y1="194" y2="194"/>
<line class="pen1" fill="none" x1="490" x2="522" y1="194" y2="194"/>
<line class="pen1" fill="none" x1="458" x2="522" y1="130" y2="258"/>
<line class="pen1" fill="none" x1="522" x2="394" y1="258" y2="258"/>
<line class="pen1" fill="none" x1="394" x2="458" y1="258" y2="130"/>
<line class="pen1" fill="none" x1="394" x2="458" y1="194" y2="66"/>
<line class="pen1" fill="none" x1="458" x2="522" y1="66" y2="194"/>
<line class="pen1" fill="none" x1="618" x2="682" y1="130" y2="258"/>
<line class="pen1" fill="none" x1="682" x2="554" y1="258" y2="258"/>
<line class="pen1" fill="none" x1="554" x2="618" y1="258" y2="130"/>
<line class="pen1" fill="none" x1="554" x2="682" y1="162" y2="162"/>
<line class="pen1" fill="none" x1="682" x2="618" y1="162" y2="290"/>
<line class="pen1" fill="none" x1="618" x2="554" y1="290" y2="162"/>
</g>
</svg>
