<?xml version="1.0" encoding="UTF-8" standalone="no"?>
<!DOCTYPE svg PUBLIC "-//W3C//DTD SVG 1.0//EN" "http://www.w3.org/TR/2001/REC-SVG-20010904/DTD/svg10.dtd">
<svg xmlns="http://www.w3.org/2000/svg" xmlns:xlink="http://www.w3.org/1999/xlink" fill-rule="evenodd" height="4.5in" preserveAspectRatio="none" stroke-linecap="round" viewBox="0 0 500 324" width="6.9375in">
<style type="text/css">
.brush0 { fill: rgb(255,255,255); }
.pen0 { stroke: rgb(0,0,0); stroke-width: 1; stroke-linejoin: round; }
.font0 { font-size: 11px; font-family: "MS Sans Serif"; }
.pen1 { stroke: rgb(0,0,0); stroke-width: 7; stroke-linejoin: round; }
.brush1 { fill: none; }
.font1 { font-weight: bold; font-size: 16px; font-family: System, sans-serif; }
</style>
<g>
<line class="pen1" fill="none" x1="10" x2="10" y1="130" y2="258"/>
<path class="pen1" d="M 9.992233272463265,256.9980921477605 A 63.5,63.5 0 0 0 9.999984500689715,130.00196841240611" fill="none"/>
<circle class="pen1" cx="169.5" cy="193.5" fill="none" r="63.5"/>
<line class="pen1" fill="none" x1="362" x2="330" y1="162" y2="194"/>
<line class="pen1" fill="none" x1="330" x2="362" y1="194" y2="226"/>
<path class="pen1" d="M 408.81980515339467,192.81980515339464 A 45.0,45.0 0 0 0 409.3208100255128,129.68921528778446" fill="none"/>
<path class="pen1" d="M 409.1801948466054,193.18019484660536 A 45.0,45.0 0 0 0 410.1896042251178,257.79816324422944" fill="none"/>
<line class="pen1" fill="none" x1="458" x2="490" y1="162" y2="194"/>
<line class="pen1" fill="none" x1="490" x2="458" y1="194" y2="226"/>
<path class="pen1" d="M 296.99288827675343,209.96948146293192 A 15.5,15.5 0 1 0 266.00805822773464,209.99974005716984" fill="none"/>
<line class="pen1" fill="none" x1="298" x2="266" y1="210" y2="258"/>
<line class="pen1" fill="none" x1="266" x2="298" y1="258" y2="258"/>
</g>
</svg>
