<?xml version="1.0" encoding="UTF-8" standalone="no"?>
<!DOCTYPE svg PUBLIC "-//W3C//DTD SVG 1.0//EN" "http://www.w3.org/TR/2001/REC-SVG-20010904/DTD/svg10.dtd">
<svg xmlns="http://www.w3.org/2000/svg" xmlns:xlink="http://www.w3.org/1999/xlink" fill-rule="evenodd" height="4.5in" preserveAspectRatio="none" stroke-linecap="round" viewBox="0 0 260 324" width="3.6145833333333335in">
<style type="text/css">
.brush0 { fill: rgb(255,255,255); }
.pen0 { stroke: rgb(0,0,0); stroke-width: 1; stroke-linejoin: round; }
.font0 { font-size: 11px; font-family: "MS Sans Serif"; }
.pen1 { stroke: rgb(0,0,0); stroke-width: 7; stroke-linejoin: round; }
.brush1 { fill: none; }
.font1 { font-weight: bold; font-size: 16px; font-family: System, sans-serif; }
</style>
<g>
<path class="pen1" d="M 24.901771941420765,192.88487612513492 A 44.5,45.0 0 0 0 25.390808735949605,129.61539457731942" fill="none"/>
<path class="pen1" d="M 25.180194846605364,193.18019484660536 A 45.0,45.0 0 0 0 26.189604225117815,257.79816324422944" fill="none"/>
<line class="pen1" fill="none" x1="90" x2="218" y1="258" y2="258"/>
<line class="pen1" fill="none" x1="90" x2="218" y1="194" y2="194"/>
<line class="pen1" fill="none" x1="122" x2="154" y1="306" y2="274"/>
<line class="pen1" fill="none" x1="154" x2="186" y1="274" y2="306"/>
<line class="pen1" fill="none" x1="122" x2="154" y1="146" y2="178"/>
<line class="pen1" fill="none" x1="154" x2="186" y1="178" y2="146"/>
<line class="pen1" fill="none" x1="10" x2="26" y1="98" y2="66"/>
<line class="pen1" fill="none" x1="26" x2="42" y1="66" y2="98"/>
<path class="pen1" d="M 216.81980515339464,256.8198051533946 A 45.0,45.0 0 0 0 217.3208100255128,193.68921528778446" fill="none"/>
<path class="pen1" d="M 89.18019484660536,193.18019484660536 A 45.0,45.0 0 0 0 90.18960422511782,257.79816324422944" fill="none"/>
</g>
</svg>
