<?xml version="1.0" encoding="UTF-8" standalone="no"?>
<!DOCTYPE svg PUBLIC "-//W3C//DTD SVG 1.0//EN" "http://www.w3.org/TR/2001/REC-SVG-20010904/DTD/svg10.dtd">
<svg xmlns="http://www.w3.org/2000/svg" xmlns:xlink="http://www.w3.org/1999/xlink" fill-rule="evenodd" height="4.5in" preserveAspectRatio="none" stroke-linecap="round" viewBox="0 0 628 324" width="8.71875in">
<style type="text/css">
.brush0 { fill: rgb(255,255,255); }
.pen0 { stroke: rgb(0,0,0); stroke-width: 1; stroke-linejoin: round; }
.font0 { font-size: 11px; font-family: "MS Sans Serif"; }
.pen1 { stroke: rgb(0,0,0); stroke-width: 7; stroke-linejoin: round; }
.brush1 { fill: none; }
.font1 { font-weight: bold; font-size: 16px; font-family: System, sans-serif; }
</style>
<g>
<line class="pen1" fill="none" x1="490" x2="554" y1="258" y2="130"/>
<line class="pen1" fill="none" x1="554" x2="618" y1="130" y2="258"/>
<line class="pen1" fill="none" x1="490" x2="554" y1="194" y2="66"/>
<line class="pen1" fill="none" x1="554" x2="618" y1="66" y2="194"/>
<line class="pen1" fill="none" x1="490" x2="618" y1="258" y2="258"/>
<line class="pen1" fill="none" x1="490" x2="522" y1="194" y2="194"/>
<line class="pen1" fill="none" x1="586" x2="618" y1="194" y2="194"/>
<circle class="pen1" cx="41.5" cy="193.5" fill="none" r="31.5"/>
<line class="pen1" fill="none" x1="10" x2="74" y1="258" y2="258"/>
<line class="pen1" fill="none" x1="42" x2="42" y1="162" y2="226"/>
<path class="pen1" d="M 248.81980515339464,192.81980515339464 A 45.0,45.0 0 0 0 249.3208100255128,129.68921528778446" fill="none"/>
<path class="pen1" d="M 217.18019484660536,129.18019484660536 A 45.0,45.0 0 0 0 218.18960422511782,193.7981632442294" fill="none"/>
<line class="pen1" fill="none" x1="138" x2="138" y1="130" y2="258"/>
<line class="pen1" fill="none" x1="106" x2="170" y1="162" y2="162"/>
<line class="pen1" fill="none" x1="330" x2="330" y1="130" y2="258"/>
<line class="pen1" fill="none" x1="298" x2="362" y1="258" y2="258"/>
<line class="pen1" fill="none" x1="394" x2="458" y1="258" y2="258"/>
<line class="pen1" fill="none" x1="426" x2="426" y1="226" y2="290"/>
</g>
</svg>
