<?xml version="1.0" encoding="UTF-8" standalone="no"?>
<!DOCTYPE svg PUBLIC "-//W3C//DTD SVG 1.0//EN" "http://www.w3.org/TR/2001/REC-SVG-20010904/DTD/svg10.dtd">
<svg xmlns="http://www.w3.org/2000/svg" xmlns:xlink="http://www.w3.org/1999/xlink" fill-rule="evenodd" height="4.5in" preserveAspectRatio="none" stroke-linecap="round" viewBox="0 0 596 324" width="8.270833333333334in">
<style type="text/css">
.brush0 { fill: rgb(255,255,255); }
.pen0 { stroke: rgb(0,0,0); stroke-width: 1; stroke-linejoin: round; }
.font0 { font-size: 11px; font-family: "MS Sans Serif"; }
.pen1 { stroke: rgb(0,0,0); stroke-width: 7; stroke-linejoin: round; }
.brush1 { fill: none; }
.font1 { font-weight: bold; font-size: 16px; font-family: System, sans-serif; }
</style>
<g>
<circle class="pen1" cx="41.5" cy="193.5" fill="none" r="31.5"/>
<line class="pen1" fill="none" x1="10" x2="74" y1="258" y2="258"/>
<line class="pen1" fill="none" x1="42" x2="42" y1="162" y2="226"/>
<path class="pen1" d="M 248.81980515339464,192.81980515339464 A 45.0,45.0 0 0 0 249.3208100255128,129.68921528778446" fill="none"/>
<path class="pen1" d="M 217.18019484660536,129.18019484660536 A 45.0,45.0 0 0 0 218.18960422511782,193.7981632442294" fill="none"/>
<line class="pen1" fill="none" x1="138" x2="138" y1="130" y2="258"/>
<line class="pen1" fill="none" x1="106" x2="170" y1="162" y2="162"/>
<path class="pen1" d="M 362.89381678346916,193.22806732336755 A 45.0,44.5 0 0 0 296.0425932509952,192.20044863397945" fill="none"/>
<path class="pen1" d="M 362.1896042251178,193.7981632442294 A 45.0,45.0 0 0 0 424.81980515339467,192.81980515339464" fill="none"/>
<path class="pen1" d="M 362.89381678346916,257.22806732336755 A 45.0,44.5 0 0 0 296.0425932509952,256.2004486339795" fill="none"/>
<path class="pen1" d="M 362.1896042251178,257.79816324422944 A 45.0,45.0 0 0 0 424.81980515339467,256.8198051533946" fill="none"/>
<line class="pen1" fill="none" x1="458" x2="522" y1="258" y2="194"/>
<line class="pen1" fill="none" x1="522" x2="586" y1="194" y2="258"/>
<line class="pen1" fill="none" x1="586" x2="586" y1="194" y2="258"/>
</g>
</svg>
