<?xml version="1.0" encoding="UTF-8" standalone="no"?>
<!DOCTYPE svg PUBLIC "-//W3C//DTD SVG 1.0//EN" "http://www.w3.org/TR/2001/REC-SVG-20010904/DTD/svg10.dtd">
<svg xmlns="http://www.w3.org/2000/svg" xmlns:xlink="http://www.w3.org/1999/xlink" fill-rule="evenodd" height="4.5in" preserveAspectRatio="none" stroke-linecap="round" viewBox="0 0 468 324" width="6.5in">
<style type="text/css">
.brush0 { fill: rgb(255,255,255); }
.pen0 { stroke: rgb(0,0,0); stroke-width: 1; stroke-linejoin: round; }
.font0 { font-size: 11px; font-family: "MS Sans Serif"; }
.pen1 { stroke: rgb(0,0,0); stroke-width: 7; stroke-linejoin: round; }
.brush1 { fill: none; }
.font1 { font-weight: bold; font-size: 16px; font-family: System, sans-serif; }
</style>
<g>
<line class="pen1" fill="none" x1="42" x2="42" y1="130" y2="258"/>
<line class="pen1" fill="none" x1="10" x2="74" y1="258" y2="258"/>
<line class="pen1" fill="none" x1="122" x2="122" y1="130" y2="258"/>
<path class="pen1" d="M 121.18019484660536,129.18019484660536 A 45.0,45.0 0 0 0 122.18960422511782,193.7981632442294" fill="none"/>
<path class="pen1" d="M 120.81980515339464,256.8198051533946 A 45.0,45.0 0 0 0 121.32081002551281,193.68921528778446" fill="none"/>
<path class="pen1" d="M 232.99627285096017,161.98455804386091 A 31.5,31.5 0 1 0 170.00396750426663,161.9999370237418" fill="none"/>
<path class="pen1" d="M 169.23834446969337,256.63990083873813 A 127.0,127.5 0 0 0 232.94971371099808,161.86354548213757" fill="none"/>
<line class="pen1" fill="none" x1="298" x2="234" y1="130" y2="258"/>
<line class="pen1" fill="none" x1="234" x2="298" y1="258" y2="258"/>
<circle class="pen1" cx="393.5" cy="193.5" fill="none" r="63.5"/>
<line class="pen1" fill="none" x1="394" x2="394" y1="162" y2="226"/>
<line class="pen1" fill="none" x1="362" x2="426" y1="226" y2="226"/>
<line class="pen1" fill="none" x1="378" x2="378" y1="258" y2="290"/>
<line class="pen1" fill="none" x1="410" x2="410" y1="258" y2="290"/>
<line class="pen1" fill="none" x1="458" x2="426" y1="258" y2="290"/>
<line class="pen1" fill="none" x1="426" x2="458" y1="290" y2="322"/>
</g>
</svg>
