<?xml version="1.0" encoding="UTF-8" standalone="no"?>
<!DOCTYPE svg PUBLIC "-//W3C//DTD SVG 1.0//EN" "http://www.w3.org/TR/2001/REC-SVG-20010904/DTD/svg10.dtd">
<svg xmlns="http://www.w3.org/2000/svg" xmlns:xlink="http://www.w3.org/1999/xlink" fill-rule="evenodd" height="4.5in" preserveAspectRatio="none" stroke-linecap="round" viewBox="0 0 628 324" width="8.71875in">
<style type="text/css">
.brush0 { fill: rgb(255,255,255); }
.pen0 { stroke: rgb(0,0,0); stroke-width: 1; stroke-linejoin: round; }
.font0 { font-size: 11px; font-family: "MS Sans Serif"; }
.pen1 { stroke: rgb(0,0,0); stroke-width: 7; stroke-linejoin: round; }
.brush1 { fill: none; }
.brush2 { fill: rgb(0,0,0); }
.font1 { font-weight: bold; font-size: 16px; font-family: System, sans-serif; }
</style>
<g>
<circle class="pen1" cx="201.5" cy="225.5" fill="none" r="31.5"/>
<line class="pen1" fill="none" x1="224" x2="179" y1="203" y2="248"/>
<line class="pen1" fill="none" x1="179" x2="224" y1="203" y2="248"/>
<path class="pen1" d="M 136.9928882767534,209.96948146293192 A 15.5,15.5 0 1 0 106.00805822773465,209.99974005716984" fill="none"/>
<line class="pen1" fill="none" x1="138" x2="106" y1="210" y2="258"/>
<line class="pen1" fill="none" x1="106" x2="138" y1="258" y2="258"/>
<line class="pen1" fill="none" x1="10" x2="42" y1="258" y2="194"/>
<line class="pen1" fill="none" x1="42" x2="74" y1="194" y2="258"/>
<line class="pen1" fill="none" x1="74" x2="74" y1="130" y2="258"/>
<line class="pen1" fill="none" x1="10" x2="74" y1="194" y2="194"/>
<line class="pen1" fill="none" x1="10" x2="10" y1="130" y2="194"/>
<circle class="pen1" cx="329.5" cy="193.5" fill="none" r="63.5"/>
<circle class="pen1" cx="329.5" cy="225.5" fill="none" r="31.5"/>
<line class="pen1" fill="none" x1="352" x2="307" y1="203" y2="248"/>
<line class="pen1" fill="none" x1="307" x2="352" y1="203" y2="248"/>
<line class="pen1" fill="none" x1="426" x2="554" y1="194" y2="194"/>
<line class="pen1" fill="none" x1="554" x2="522" y1="194" y2="162"/>
<line class="pen1" fill="none" x1="554" x2="522" y1="194" y2="226"/>
<line class="pen1" fill="none" x1="586" x2="586" y1="162" y2="210"/>
<line class="pen1" fill="none" x1="586" x2="586" y1="225" y2="225"/>
</g>
</svg>
