<?xml version="1.0" encoding="UTF-8" standalone="no"?>
<!DOCTYPE svg PUBLIC "-//W3C//DTD SVG 1.0//EN" "http://www.w3.org/TR/2001/REC-SVG-20010904/DTD/svg10.dtd">
<svg xmlns="http://www.w3.org/2000/svg" xmlns:xlink="http://www.w3.org/1999/xlink" fill-rule="evenodd" height="4.5in" preserveAspectRatio="none" stroke-linecap="round" viewBox="0 0 340 324" width="4.71875in">
<style type="text/css">
.brush0 { fill: rgb(255,255,255); }
.pen0 { stroke: rgb(0,0,0); stroke-width: 1; stroke-linejoin: round; }
.font0 { font-size: 11px; font-family: "MS Sans Serif"; }
.pen1 { stroke: rgb(0,0,0); stroke-width: 7; stroke-linejoin: round; }
.brush1 { fill: none; }
.font1 { font-weight: bold; font-size: 16px; font-family: System, sans-serif; }
</style>
<g>
<line class="pen1" fill="none" x1="26" x2="154" y1="226" y2="226"/>
<line class="pen1" fill="none" x1="26" x2="154" y1="258" y2="258"/>
<path class="pen1" d="M 153.96948146293192,256.99288827675343 A 15.5,15.5 0 0 0 153.99974005716984,226.00805822773467" fill="none"/>
<path class="pen1" d="M 25.99974005716985,226.00805822773467 A 15.5,15.5 0 1 0 25.969481462931924,256.99288827675343" fill="none"/>
<path class="pen1" d="M 266.89381678346916,193.22806732336755 A 45.0,44.5 0 0 0 200.0425932509952,192.20044863397945" fill="none"/>
<path class="pen1" d="M 266.1896042251178,193.7981632442294 A 45.0,45.0 0 0 0 328.81980515339467,192.81980515339464" fill="none"/>
<line class="pen1" fill="none" x1="266" x2="266" y1="130" y2="258"/>
<line class="pen1" fill="none" x1="250" x2="282" y1="242" y2="274"/>
<line class="pen1" fill="none" x1="282" x2="250" y1="242" y2="274"/>
<line class="pen1" fill="none" x1="266" x2="266" y1="258" y2="290"/>
</g>
</svg>
