<?xml version="1.0" encoding="UTF-8" standalone="no"?>
<!DOCTYPE svg PUBLIC "-//W3C//DTD SVG 1.0//EN" "http://www.w3.org/TR/2001/REC-SVG-20010904/DTD/svg10.dtd">
<svg xmlns="http://www.w3.org/2000/svg" xmlns:xlink="http://www.w3.org/1999/xlink" fill-rule="evenodd" height="4.5in" preserveAspectRatio="none" stroke-linecap="round" viewBox="0 0 308 324" width="4.270833333333333in">
<style type="text/css">
.brush0 { fill: rgb(255,255,255); }
.pen0 { stroke: rgb(0,0,0); stroke-width: 1; stroke-linejoin: round; }
.font0 { font-size: 11px; font-family: "MS Sans Serif"; }
.pen1 { stroke: rgb(0,0,0); stroke-width: 7; stroke-linejoin: round; }
.brush1 { fill: none; }
.font1 { font-weight: bold; font-size: 16px; font-family: System, sans-serif; }
</style>
<g>
<line class="pen1" fill="none" x1="10" x2="138" y1="194" y2="194"/>
<path class="pen1" d="M 10.001968412406121,193.9999845006897 A 63.5,63.5 0 0 0 136.99809214776047,193.99223327246327" fill="none"/>
<line class="pen1" fill="none" x1="10" x2="74" y1="130" y2="130"/>
<line class="pen1" fill="none" x1="74" x2="74" y1="130" y2="194"/>
<line class="pen1" fill="none" x1="74" x2="10" y1="194" y2="194"/>
<line class="pen1" fill="none" x1="10" x2="10" y1="194" y2="130"/>
<path class="pen1" d="M 234.89381678346916,257.22806732336755 A 45.0,44.5 0 0 0 168.0425932509952,256.2004486339795" fill="none"/>
<path class="pen1" d="M 234.18960422511782,257.79816324422944 A 45.0,45.0 0 0 0 296.81980515339467,256.8198051533946" fill="none"/>
<line class="pen1" fill="none" x1="170" x2="298" y1="194" y2="194"/>
<line class="pen1" fill="none" x1="298" x2="266" y1="194" y2="162"/>
<line class="pen1" fill="none" x1="298" x2="266" y1="194" y2="226"/>
</g>
</svg>
