<?xml version="1.0" encoding="UTF-8" standalone="no"?>
<!DOCTYPE svg PUBLIC "-//W3C//DTD SVG 1.0//EN" "http://www.w3.org/TR/2001/REC-SVG-20010904/DTD/svg10.dtd">
<svg xmlns="http://www.w3.org/2000/svg" xmlns:xlink="http://www.w3.org/1999/xlink" fill-rule="evenodd" height="4.5in" preserveAspectRatio="none" stroke-linecap="round" viewBox="0 0 500 324" width="6.9375in">
<style type="text/css">
.brush0 { fill: rgb(255,255,255); }
.pen0 { stroke: rgb(0,0,0); stroke-width: 1; stroke-linejoin: round; }
.font0 { font-size: 11px; font-family: "MS Sans Serif"; }
.pen1 { stroke: rgb(0,0,0); stroke-width: 7; stroke-linejoin: round; }
.brush1 { fill: none; }
.font1 { font-weight: bold; font-size: 16px; font-family: System, sans-serif; }
</style>
<g>
<circle class="pen1" cx="41.5" cy="193.5" fill="none" r="31.5"/>
<line class="pen1" fill="none" x1="10" x2="74" y1="258" y2="258"/>
<line class="pen1" fill="none" x1="106" x2="106" y1="258" y2="258"/>
<line class="pen1" fill="none" x1="170" x2="170" y1="258" y2="258"/>
<line class="pen1" fill="none" x1="170" x2="170" y1="194" y2="194"/>
<path class="pen1" d="M 265.9999845006897,194.00196841240611 A 63.5,63.5 0 0 0 202.00196841240611,257.9999845006897" fill="none"/>
<path class="pen1" d="M 329.9999845006897,194.00196841240611 A 63.5,63.5 0 0 0 266.00196841240614,257.9999845006897" fill="none"/>
<path class="pen1" d="M 457.27877372651983,257.04084340949544 A 79.5,79.5 0 0 0 457.75534462938106,130.3203219800887" fill="none"/>
<path class="pen1" d="M 457.88023962806767,129.8398992922589 A 79.5,79.5 0 0 0 458.3576053756417,257.5144095425497" fill="none"/>
<path class="pen1" d="M 393.27877372651983,257.04084340949544 A 79.5,79.5 0 0 0 393.75534462938106,130.3203219800887" fill="none"/>
<path class="pen1" d="M 393.88023962806767,129.8398992922589 A 79.5,79.5 0 0 0 394.3576053756417,257.5144095425497" fill="none"/>
</g>
</svg>
