<?xml version="1.0" encoding="UTF-8" standalone="no"?>
<!DOCTYPE svg PUBLIC "-//W3C//DTD SVG 1.0//EN" "http://www.w3.org/TR/2001/REC-SVG-20010904/DTD/svg10.dtd">
<svg xmlns="http://www.w3.org/2000/svg" xmlns:xlink="http://www.w3.org/1999/xlink" fill-rule="evenodd" height="4.5in" preserveAspectRatio="none" stroke-linecap="round" viewBox="0 0 436 324" width="6.052083333333333in">
<style type="text/css">
.brush0 { fill: rgb(255,255,255); }
.pen0 { stroke: rgb(0,0,0); stroke-width: 1; stroke-linejoin: round; }
.font0 { font-size: 11px; font-family: "MS Sans Serif"; }
.pen1 { stroke: rgb(0,0,0); stroke-width: 7; stroke-linejoin: round; }
.brush1 { fill: none; }
.font1 { font-weight: bold; font-size: 16px; font-family: System, sans-serif; }
</style>
<g>
<circle class="pen1" cx="73.5" cy="193.5" fill="none" r="63.5"/>
<path class="pen1" d="M 106.89381678346916,193.22806732336755 A 45.0,44.5 0 0 0 40.042593250995196,192.20044863397945" fill="none"/>
<path class="pen1" d="M 42.18960422511782,193.7981632442294 A 45.0,45.0 0 0 0 104.81980515339464,192.81980515339464" fill="none"/>
<path class="pen1" d="M 184.81980515339464,192.81980515339464 A 45.0,45.0 0 0 0 185.3208100255128,129.68921528778446" fill="none"/>
<path class="pen1" d="M 185.18019484660536,193.18019484660536 A 45.0,45.0 0 0 0 186.18960422511782,257.79816324422944" fill="none"/>
<path class="pen1" d="M 360.9980921477605,193.99223327246327 A 63.5,63.5 0 1 0 234.00196841240611,193.9999845006897" fill="none"/>
<path class="pen1" d="M 298.00196841240614,193.9999845006897 A 63.5,63.5 0 0 0 424.9980921477605,193.99223327246327" fill="none"/>
<line class="pen1" fill="none" x1="330" x2="362" y1="162" y2="194"/>
<line class="pen1" fill="none" x1="362" x2="394" y1="194" y2="162"/>
<line class="pen1" fill="none" x1="266" x2="298" y1="226" y2="194"/>
<line class="pen1" fill="none" x1="298" x2="330" y1="194" y2="226"/>
</g>
</svg>
