<?xml version="1.0" encoding="UTF-8" standalone="no"?>
<!DOCTYPE svg PUBLIC "-//W3C//DTD SVG 1.0//EN" "http://www.w3.org/TR/2001/REC-SVG-20010904/DTD/svg10.dtd">
<svg xmlns="http://www.w3.org/2000/svg" xmlns:xlink="http://www.w3.org/1999/xlink" fill-rule="evenodd" height="4.5in" preserveAspectRatio="none" stroke-linecap="round" viewBox="0 0 564 324" width="7.833333333333333in">
<style type="text/css">
.brush0 { fill: rgb(255,255,255); }
.pen0 { stroke: rgb(0,0,0); stroke-width: 1; stroke-linejoin: round; }
.font0 { font-size: 11px; font-family: "MS Sans Serif"; }
.pen1 { stroke: rgb(0,0,0); stroke-width: 7; stroke-linejoin: round; }
.brush1 { fill: none; }
.font1 { font-weight: bold; font-size: 16px; font-family: System, sans-serif; }
</style>
<g>
<line class="pen1" fill="none" x1="10" x2="138" y1="194" y2="194"/>
<line class="pen1" fill="none" x1="74" x2="74" y1="130" y2="258"/>
<line class="pen1" fill="none" x1="58" x2="90" y1="66" y2="66"/>
<line class="pen1" fill="none" x1="90" x2="90" y1="66" y2="98"/>
<line class="pen1" fill="none" x1="90" x2="58" y1="98" y2="98"/>
<line class="pen1" fill="none" x1="58" x2="58" y1="98" y2="66"/>
<circle class="pen1" cx="201.5" cy="193.5" fill="none" r="31.5"/>
<line class="pen1" fill="none" x1="234" x2="170" y1="130" y2="258"/>
<line class="pen1" fill="none" x1="170" x2="234" y1="258" y2="258"/>
<line class="pen1" fill="none" x1="266" x2="330" y1="194" y2="130"/>
<line class="pen1" fill="none" x1="330" x2="394" y1="130" y2="194"/>
<path class="pen1" d="M 425.99223327246324,192.99809214776047 A 63.5,63.5 0 0 0 488.9980921477605,129.99223327246327" fill="none"/>
<path class="pen1" d="M 490.00196841240614,129.9999845006897 A 63.5,63.5 0 0 0 553.9922332724633,192.99809214776047" fill="none"/>
<line class="pen1" fill="none" x1="490" x2="490" y1="130" y2="258"/>
<line class="pen1" fill="none" x1="538" x2="506" y1="194" y2="226"/>
<line class="pen1" fill="none" x1="506" x2="538" y1="226" y2="258"/>
</g>
</svg>
