<?xml version="1.0" encoding="UTF-8" standalone="no"?>
<!DOCTYPE svg PUBLIC "-//W3C//DTD SVG 1.0//EN" "http://www.w3.org/TR/2001/REC-SVG-20010904/DTD/svg10.dtd">
<svg xmlns="http://www.w3.org/2000/svg" xmlns:xlink="http://www.w3.org/1999/xlink" fill-rule="evenodd" height="4.5in" preserveAspectRatio="none" stroke-linecap="round" viewBox="0 0 436 324" width="6.052083333333333in">
<style type="text/css">
.brush0 { fill: rgb(255,255,255); }
.pen0 { stroke: rgb(0,0,0); stroke-width: 1; stroke-linejoin: round; }
.font0 { font-size: 11px; font-family: "MS Sans Serif"; }
.pen1 { stroke: rgb(0,0,0); stroke-width: 7; stroke-linejoin: round; }
.brush1 { fill: none; }
.font1 { font-weight: bold; font-size: 16px; font-family: System, sans-serif; }
</style>
<g>
<path class="pen1" d="M 296.9980921477605,193.99223327246327 A 63.5,63.5 0 1 0 170.00196841240611,193.9999845006897" fill="none"/>
<path class="pen1" d="M 234.00196841240611,193.9999845006897 A 63.5,63.5 0 0 0 360.9980921477605,193.99223327246327" fill="none"/>
<line class="pen1" fill="none" x1="266" x2="298" y1="162" y2="194"/>
<line class="pen1" fill="none" x1="298" x2="330" y1="194" y2="162"/>
<line class="pen1" fill="none" x1="202" x2="234" y1="226" y2="194"/>
<line class="pen1" fill="none" x1="234" x2="266" y1="194" y2="226"/>
<path class="pen1" d="M 408.81980515339467,192.81980515339464 A 45.0,45.0 0 0 0 409.3208100255128,129.68921528778446" fill="none"/>
<path class="pen1" d="M 409.1801948466054,193.18019484660536 A 45.0,45.0 0 0 0 410.1896042251178,257.79816324422944" fill="none"/>
<circle class="pen1" cx="73.5" cy="193.5" fill="none" r="31.5"/>
<line class="pen1" fill="none" x1="42" x2="106" y1="258" y2="258"/>
<line class="pen1" fill="none" x1="42" x2="74" y1="226" y2="258"/>
<line class="pen1" fill="none" x1="74" x2="106" y1="258" y2="226"/>
<path class="pen1" d="M 74.95775686614864,193.16012090199274 A 44.5,44.5 0 0 0 8.501657828992187,192.64435708337388" fill="none"/>
<path class="pen1" d="M 74.18960422511782,193.7981632442294 A 45.0,45.0 0 0 0 136.81980515339464,192.81980515339464" fill="none"/>
</g>
</svg>
