<?xml version="1.0" encoding="UTF-8" standalone="no"?>
<!DOCTYPE svg PUBLIC "-//W3C//DTD SVG 1.0//EN" "http://www.w3.org/TR/2001/REC-SVG-20010904/DTD/svg10.dtd">
<svg xmlns="http://www.w3.org/2000/svg" xmlns:xlink="http://www.w3.org/1999/xlink" fill-rule="evenodd" height="4.5in" preserveAspectRatio="none" stroke-linecap="round" viewBox="0 0 372 324" width="5.166666666666667in">
<style type="text/css">
.brush0 { fill: rgb(255,255,255); }
.pen0 { stroke: rgb(0,0,0); stroke-width: 1; stroke-linejoin: round; }
.font0 { font-size: 11px; font-family: "MS Sans Serif"; }
.pen1 { stroke: rgb(0,0,0); stroke-width: 7; stroke-linejoin: round; }
.brush1 { fill: none; }
.font1 { font-weight: bold; font-size: 16px; font-family: System, sans-serif; }
</style>
<g>
<line class="pen1" fill="none" x1="42" x2="106" y1="162" y2="162"/>
<line class="pen1" fill="none" x1="106" x2="106" y1="162" y2="226"/>
<line class="pen1" fill="none" x1="106" x2="42" y1="226" y2="226"/>
<line class="pen1" fill="none" x1="42" x2="42" y1="226" y2="162"/>
<line class="pen1" fill="none" x1="10" x2="74" y1="194" y2="258"/>
<line class="pen1" fill="none" x1="74" x2="74" y1="258" y2="130"/>
<line class="pen1" fill="none" x1="138" x2="138" y1="130" y2="258"/>
<line class="pen1" fill="none" x1="138" x2="266" y1="258" y2="258"/>
<line class="pen1" fill="none" x1="266" x2="266" y1="258" y2="130"/>
<line class="pen1" fill="none" x1="298" x2="298" y1="130" y2="258"/>
<line class="pen1" fill="none" x1="362" x2="362" y1="130" y2="258"/>
<path class="pen1" d="M 362.89381678346916,129.22806732336755 A 45.0,44.5 0 0 0 296.0425932509952,128.20044863397945" fill="none"/>
<path class="pen1" d="M 298.1896042251178,129.7981632442294 A 45.0,45.0 0 0 0 360.81980515339467,128.81980515339464" fill="none"/>
<path class="pen1" d="M 298.1896042251178,257.79816324422944 A 45.0,45.0 0 0 0 360.81980515339467,256.8198051533946" fill="none"/>
</g>
</svg>
