<?xml version="1.0" encoding="UTF-8" standalone="no"?>
<!DOCTYPE svg PUBLIC "-//W3C//DTD SVG 1.0//EN" "http://www.w3.org/TR/2001/REC-SVG-20010904/DTD/svg10.dtd">
<svg xmlns="http://www.w3.org/2000/svg" xmlns:xlink="http://www.w3.org/1999/xlink" fill-rule="evenodd" height="4.5in" preserveAspectRatio="none" stroke-linecap="round" viewBox="0 0 404 324" width="5.604166666666667in">
<style type="text/css">
.brush0 { fill: rgb(255,255,255); }
.pen0 { stroke: rgb(0,0,0); stroke-width: 1; stroke-linejoin: round; }
.font0 { font-size: 11px; font-family: "MS Sans Serif"; }
.pen1 { stroke: rgb(0,0,0); stroke-width: 7; stroke-linejoin: round; }
.brush1 { fill: none; }
.font1 { font-weight: bold; font-size: 16px; font-family: System, sans-serif; }
</style>
<g>
<line class="pen1" fill="none" x1="10" x2="10" y1="130" y2="258"/>
<line class="pen1" fill="none" x1="74" x2="74" y1="130" y2="258"/>
<path class="pen1" d="M 74.95775686614864,129.16012090199274 A 44.5,44.5 0 0 0 8.501657828992187,128.64435708337388" fill="none"/>
<path class="pen1" d="M 10.594629888292115,129.37705440274158 A 44.5,45.0 0 0 0 72.90177194142076,128.88487612513492" fill="none"/>
<path class="pen1" d="M 10.594629888292115,257.3770544027416 A 44.5,45.0 0 0 0 72.90177194142076,256.88487612513495" fill="none"/>
<circle class="pen1" cx="137.5" cy="225.5" fill="none" r="31.5"/>
<circle class="pen1" cx="265.5" cy="193.5" fill="none" r="31.5"/>
<path class="pen1" d="M 184.81980515339464,256.8198051533946 A 45.0,45.0 0 0 0 185.3208100255128,193.68921528778446" fill="none"/>
<line class="pen1" fill="none" x1="298" x2="234" y1="130" y2="258"/>
<line class="pen1" fill="none" x1="234" x2="298" y1="258" y2="258"/>
<line class="pen1" fill="none" x1="362" x2="330" y1="130" y2="162"/>
<line class="pen1" fill="none" x1="362" x2="394" y1="130" y2="162"/>
<line class="pen1" fill="none" x1="362" x2="362" y1="130" y2="258"/>
</g>
</svg>
