<?xml version="1.0" encoding="UTF-8" standalone="no"?>
<!DOCTYPE svg PUBLIC "-//W3C//DTD SVG 1.0//EN" "http://www.w3.org/TR/2001/REC-SVG-20010904/DTD/svg10.dtd">
<svg xmlns="http://www.w3.org/2000/svg" xmlns:xlink="http://www.w3.org/1999/xlink" fill-rule="evenodd" height="4.5in" preserveAspectRatio="none" stroke-linecap="round" viewBox="0 0 564 324" width="7.833333333333333in">
<style type="text/css">
.brush0 { fill: rgb(255,255,255); }
.pen0 { stroke: rgb(0,0,0); stroke-width: 1; stroke-linejoin: round; }
.font0 { font-size: 11px; font-family: "MS Sans Serif"; }
.pen1 { stroke: rgb(0,0,0); stroke-width: 7; stroke-linejoin: round; }
.brush1 { fill: none; }
.font1 { font-weight: bold; font-size: 16px; font-family: System, sans-serif; }
</style>
<g>
<line class="pen1" fill="none" x1="10" x2="74" y1="194" y2="258"/>
<line class="pen1" fill="none" x1="74" x2="10" y1="194" y2="258"/>
<line class="pen1" fill="none" x1="122" x2="122" y1="162" y2="226"/>
<line class="pen1" fill="none" x1="106" x2="138" y1="178" y2="210"/>
<line class="pen1" fill="none" x1="138" x2="106" y1="178" y2="210"/>
<line class="pen1" fill="none" x1="170" x2="298" y1="194" y2="194"/>
<line class="pen1" fill="none" x1="170" x2="202" y1="258" y2="194"/>
<line class="pen1" fill="none" x1="202" x2="234" y1="194" y2="258"/>
<line class="pen1" fill="none" x1="234" x2="266" y1="258" y2="194"/>
<line class="pen1" fill="none" x1="266" x2="298" y1="194" y2="258"/>
<path class="pen1" d="M 393.88023962806767,129.8398992922589 A 79.5,79.5 0 0 0 394.3576053756417,257.5144095425497" fill="none"/>
<line class="pen1" fill="none" x1="394" x2="522" y1="130" y2="130"/>
<line class="pen1" fill="none" x1="394" x2="522" y1="258" y2="258"/>
<path class="pen1" d="M 521.2787737265198,257.04084340949544 A 79.5,79.5 0 0 0 521.755344629381,130.3203219800887" fill="none"/>
<path class="pen1" d="M 425.44365081389594,97.44365081389596 A 22.0,22.0 0 0 0 426.4443239840894,129.49643281803205" fill="none"/>
<path class="pen1" d="M 457.44365081389594,97.44365081389596 A 22.0,22.0 0 0 0 458.4443239840894,129.49643281803205" fill="none"/>
<path class="pen1" d="M 489.44365081389594,97.44365081389596 A 22.0,22.0 0 0 0 490.4443239840894,129.49643281803205" fill="none"/>
<line class="pen1" fill="none" x1="538" x2="506" y1="66" y2="98"/>
<line class="pen1" fill="none" x1="506" x2="538" y1="98" y2="130"/>
<path class="pen1" d="M 200.9928882767534,257.9694814629319 A 15.5,15.5 0 1 0 170.00805822773467,257.99974005716984" fill="none"/>
<path class="pen1" d="M 264.99288827675343,257.9694814629319 A 15.5,15.5 0 1 0 234.00805822773467,257.99974005716984" fill="none"/>
<path class="pen1" d="M 328.99288827675343,257.9694814629319 A 15.5,15.5 0 1 0 298.00805822773464,257.99974005716984" fill="none"/>
</g>
</svg>
