<?xml version="1.0" encoding="UTF-8" standalone="no"?>
<!DOCTYPE svg PUBLIC "-//W3C//DTD SVG 1.0//EN" "http://www.w3.org/TR/2001/REC-SVG-20010904/DTD/svg10.dtd">
<svg xmlns="http://www.w3.org/2000/svg" xmlns:xlink="http://www.w3.org/1999/xlink" fill-rule="evenodd" height="4.5in" preserveAspectRatio="none" stroke-linecap="round" viewBox="0 0 564 324" width="7.833333333333333in">
<style type="text/css">
.brush0 { fill: rgb(255,255,255); }
.pen0 { stroke: rgb(0,0,0); stroke-width: 1; stroke-linejoin: round; }
.font0 { font-size: 11px; font-family: "MS Sans Serif"; }
.pen1 { stroke: rgb(0,0,0); stroke-width: 7; stroke-linejoin: round; }
.brush1 { fill: none; }
.brush2 { fill: rgb(0,0,0); }
.font1 { font-weight: bold; font-size: 16px; font-family: System, sans-serif; }
</style>
<g>
<line class="pen1" fill="none" x1="74" x2="138" y1="130" y2="258"/>
<line class="pen1" fill="none" x1="138" x2="10" y1="258" y2="258"/>
<line class="pen1" fill="none" x1="10" x2="74" y1="258" y2="130"/>
<line class="pen1" fill="none" x1="10" x2="74" y1="194" y2="66"/>
<line class="pen1" fill="none" x1="74" x2="138" y1="66" y2="194"/>
<line class="pen1" fill="none" x1="10" x2="42" y1="194" y2="194"/>
<line class="pen1" fill="none" x1="106" x2="138" y1="194" y2="194"/>
<circle class="pen1" cx="233.5" cy="193.5" fill="none" r="63.5"/>
<line class="pen1" fill="none" x1="202" x2="234" y1="178" y2="146"/>
<line class="pen1" fill="none" x1="234" x2="266" y1="146" y2="178"/>
<line class="pen1" fill="none" x1="362" x2="330" y1="130" y2="162"/>
<line class="pen1" fill="none" x1="362" x2="362" y1="130" y2="258"/>
<line class="pen1" fill="none" x1="394" x2="362" y1="226" y2="258"/>
<line class="pen1" fill="none" x1="490" x2="554" y1="130" y2="258"/>
<line class="pen1" fill="none" x1="554" x2="426" y1="258" y2="258"/>
<line class="pen1" fill="none" x1="426" x2="490" y1="258" y2="130"/>
<path class="pen1" d="M 489.9694814629319,208.9928882767534 A 15.5,15.5 0 1 0 474.00805822773464,193.99974005716984" fill="none"/>
<line class="pen1" fill="none" x1="490" x2="490" y1="210" y2="226"/>
<line class="pen1" fill="none" x1="490" x2="490" y1="241" y2="241"/>
<path class="pen1" d="M 552.9980921477604,193.99223327246327 A 63.5,63.5 0 1 0 426.00196841240614,193.9999845006897" fill="none"/>
</g>
</svg>
