<?xml version="1.0" encoding="UTF-8" standalone="no"?>
<!DOCTYPE svg PUBLIC "-//W3C//DTD SVG 1.0//EN" "http://www.w3.org/TR/2001/REC-SVG-20010904/DTD/svg10.dtd">
<svg xmlns="http://www.w3.org/2000/svg" xmlns:xlink="http://www.w3.org/1999/xlink" fill-rule="evenodd" height="4.5in" preserveAspectRatio="none" stroke-linecap="round" viewBox="0 0 500 324" width="6.9375in">
<style type="text/css">
.brush0 { fill: rgb(255,255,255); }
.pen0 { stroke: rgb(0,0,0); stroke-width: 1; stroke-linejoin: round; }
.font0 { font-size: 11px; font-family: "MS Sans Serif"; }
.pen1 { stroke: rgb(0,0,0); stroke-width: 7; stroke-linejoin: round; }
.brush1 { fill: none; }
.font1 { font-weight: bold; font-size: 16px; font-family: System, sans-serif; }
</style>
<g>
<path class="pen1" d="M 296.9980921477605,257.99223327246324 A 63.5,63.5 0 1 0 170.00196841240611,257.9999845006897" fill="none"/>
<line class="pen1" fill="none" x1="266" x2="298" y1="226" y2="258"/>
<line class="pen1" fill="none" x1="298" x2="330" y1="258" y2="226"/>
<path class="pen1" d="M 136.99809214776047,257.99223327246324 A 63.5,63.5 0 1 0 10.001968412406121,257.9999845006897" fill="none"/>
<path class="pen1" d="M 10.001968412406121,193.9999845006897 A 63.5,63.5 0 0 0 136.99809214776047,193.99223327246327" fill="none"/>
<line class="pen1" fill="none" x1="362" x2="490" y1="194" y2="194"/>
<line class="pen1" fill="none" x1="490" x2="458" y1="194" y2="162"/>
<line class="pen1" fill="none" x1="490" x2="458" y1="194" y2="226"/>
<path class="pen1" d="M 426.89381678346916,257.22806732336755 A 45.0,44.5 0 0 0 360.0425932509952,256.2004486339795" fill="none"/>
<path class="pen1" d="M 426.1896042251178,257.79816324422944 A 45.0,45.0 0 0 0 488.81980515339467,256.8198051533946" fill="none"/>
</g>
</svg>
