<?xml version="1.0" encoding="UTF-8" standalone="no"?>
<!DOCTYPE svg PUBLIC "-//W3C//DTD SVG 1.0//EN" "http://www.w3.org/TR/2001/REC-SVG-20010904/DTD/svg10.dtd">
<svg xmlns="http://www.w3.org/2000/svg" xmlns:xlink="http://www.w3.org/1999/xlink" fill-rule="evenodd" height="4.5in" preserveAspectRatio="none" stroke-linecap="round" viewBox="0 0 564 324" width="7.833333333333333in">
<style type="text/css">
.brush0 { fill: rgb(255,255,255); }
.pen0 { stroke: rgb(0,0,0); stroke-width: 1; stroke-linejoin: round; }
.font0 { font-size: 11px; font-family: "MS Sans Serif"; }
.pen1 { stroke: rgb(0,0,0); stroke-width: 7; stroke-linejoin: round; }
.brush1 { fill: none; }
.brush2 { fill: rgb(0,0,0); }
.font1 { font-weight: bold; font-size: 16px; font-family: System, sans-serif; }
</style>
<g>
<line class="pen1" fill="none" x1="170" x2="298" y1="258" y2="258"/>
<line class="pen1" fill="none" x1="330" x2="394" y1="258" y2="258"/>
<circle class="pen1" cx="233.5" cy="225.5" fill="none" r="31.5"/>
<circle class="pen1" cx="361.5" cy="193.5" fill="none" r="31.5"/>
<circle class="pen1" cx="457.5" cy="193.5" fill="none" r="31.5"/>
<path class="pen1" d="M 169.99223327246327,320.9980921477605 A 63.5,63.5 0 0 0 232.99809214776047,257.99223327246324" fill="none"/>
<line class="pen1" fill="none" x1="362" x2="362" y1="194" y2="194"/>
<circle class="pen1" cx="73.5" cy="193.5" fill="none" r="31.5"/>
<line class="pen1" fill="none" x1="42" x2="106" y1="258" y2="258"/>
<path class="pen1" d="M 74.95775686614864,193.16012090199274 A 44.5,44.5 0 0 0 8.501657828992187,192.64435708337388" fill="none"/>
<path class="pen1" d="M 74.18960422511782,193.7981632442294 A 45.0,45.0 0 0 0 136.81980515339464,192.81980515339464" fill="none"/>
<line class="pen1" fill="none" x1="42" x2="74" y1="226" y2="258"/>
<line class="pen1" fill="none" x1="74" x2="106" y1="258" y2="226"/>
<line class="pen1" fill="none" x1="522" x2="522" y1="162" y2="210"/>
<line class="pen1" fill="none" x1="522" x2="522" y1="225" y2="225"/>
</g>
</svg>
