<?xml version="1.0" encoding="UTF-8" standalone="no"?>
<!DOCTYPE svg PUBLIC "-//W3C//DTD SVG 1.0//EN" "http://www.w3.org/TR/2001/REC-SVG-20010904/DTD/svg10.dtd">
<svg xmlns="http://www.w3.org/2000/svg" xmlns:xlink="http://www.w3.org/1999/xlink" fill-rule="evenodd" height="4.5in" preserveAspectRatio="none" stroke-linecap="round" viewBox="0 0 484 324" width="6.71875in">
<style type="text/css">
.brush0 { fill: rgb(255,255,255); }
.pen0 { stroke: rgb(0,0,0); stroke-width: 1; stroke-linejoin: round; }
.font0 { font-size: 11px; font-family: "MS Sans Serif"; }
.pen1 { stroke: rgb(0,0,0); stroke-width: 7; stroke-linejoin: round; }
.brush1 { fill: none; }
.font1 { font-weight: bold; font-size: 16px; font-family: System, sans-serif; }
</style>
<g>
<circle class="pen1" cx="73.5" cy="225.5" fill="none" r="31.5"/>
<line class="pen1" fill="none" x1="106" x2="106" y1="130" y2="226"/>
<line class="pen1" fill="none" x1="10" x2="74" y1="162" y2="162"/>
<line class="pen1" fill="none" x1="74" x2="74" y1="162" y2="226"/>
<line class="pen1" fill="none" x1="74" x2="10" y1="226" y2="226"/>
<line class="pen1" fill="none" x1="10" x2="10" y1="226" y2="162"/>
<line class="pen1" fill="none" x1="138" x2="202" y1="162" y2="162"/>
<line class="pen1" fill="none" x1="202" x2="202" y1="162" y2="226"/>
<line class="pen1" fill="none" x1="202" x2="138" y1="226" y2="226"/>
<line class="pen1" fill="none" x1="138" x2="138" y1="226" y2="162"/>
<line class="pen1" fill="none" x1="202" x2="266" y1="162" y2="162"/>
<line class="pen1" fill="none" x1="266" x2="266" y1="162" y2="226"/>
<line class="pen1" fill="none" x1="266" x2="202" y1="226" y2="226"/>
<line class="pen1" fill="none" x1="202" x2="202" y1="226" y2="162"/>
<path class="pen1" d="M 313.9694814629319,224.9928882767534 A 15.5,15.5 0 1 0 298.00805822773464,209.99974005716984" fill="none"/>
<path class="pen1" d="M 298.00805822773464,241.99974005716984 A 15.5,15.5 0 1 0 313.99974005716984,226.00805822773467" fill="none"/>
<circle class="pen1" cx="393.5" cy="225.5" fill="none" r="31.5"/>
<path class="pen1" d="M 440.81980515339467,256.8198051533946 A 45.0,45.0 0 0 0 441.3208100255128,193.68921528778446" fill="none"/>
</g>
</svg>
