<?xml version="1.0" encoding="UTF-8" standalone="no"?>
<!DOCTYPE svg PUBLIC "-//W3C//DTD SVG 1.0//EN" "http://www.w3.org/TR/2001/REC-SVG-20010904/DTD/svg10.dtd">
<svg xmlns="http://www.w3.org/2000/svg" xmlns:xlink="http://www.w3.org/1999/xlink" fill-rule="evenodd" height="4.5in" preserveAspectRatio="none" stroke-linecap="round" viewBox="0 0 372 324" width="5.166666666666667in">
<style type="text/css">
.brush0 { fill: rgb(255,255,255); }
.pen0 { stroke: rgb(0,0,0); stroke-width: 1; stroke-linejoin: round; }
.font0 { font-size: 11px; font-family: "MS Sans Serif"; }
.pen1 { stroke: rgb(0,0,0); stroke-width: 7; stroke-linejoin: round; }
.brush1 { fill: none; }
.font1 { font-weight: bold; font-size: 16px; font-family: System, sans-serif; }
</style>
<g>
<line class="pen1" fill="none" x1="74" x2="74" y1="130" y2="258"/>
<line class="pen1" fill="none" x1="74" x2="74" y1="258" y2="290"/>
<line class="pen1" fill="none" x1="58" x2="90" y1="242" y2="274"/>
<line class="pen1" fill="none" x1="90" x2="58" y1="242" y2="274"/>
<path class="pen1" d="M 74.95775686614864,193.16012090199274 A 44.5,44.5 0 0 0 8.501657828992187,192.64435708337388" fill="none"/>
<path class="pen1" d="M 74.18960422511782,193.7981632442294 A 45.0,45.0 0 0 0 136.81980515339464,192.81980515339464" fill="none"/>
<line class="pen1" fill="none" x1="202" x2="202" y1="130" y2="258"/>
<line class="pen1" fill="none" x1="202" x2="170" y1="258" y2="226"/>
<line class="pen1" fill="none" x1="202" x2="234" y1="258" y2="226"/>
<line class="pen1" fill="none" x1="362" x2="362" y1="130" y2="258"/>
<line class="pen1" fill="none" x1="362" x2="234" y1="258" y2="258"/>
<line class="pen1" fill="none" x1="234" x2="362" y1="258" y2="130"/>
</g>
</svg>
