<?xml version="1.0" encoding="UTF-8" standalone="no"?>
<!DOCTYPE svg PUBLIC "-//W3C//DTD SVG 1.0//EN" "http://www.w3.org/TR/2001/REC-SVG-20010904/DTD/svg10.dtd">
<svg xmlns="http://www.w3.org/2000/svg" xmlns:xlink="http://www.w3.org/1999/xlink" fill-rule="evenodd" height="4.5in" preserveAspectRatio="none" stroke-linecap="round" viewBox="0 0 468 324" width="6.5in">
<style type="text/css">
.brush0 { fill: rgb(255,255,255); }
.pen0 { stroke: rgb(0,0,0); stroke-width: 1; stroke-linejoin: round; }
.font0 { font-size: 11px; font-family: "MS Sans Serif"; }
.pen1 { stroke: rgb(0,0,0); stroke-width: 7; stroke-linejoin: round; }
.brush1 { fill: none; }
.font1 { font-weight: bold; font-size: 16px; font-family: System, sans-serif; }
</style>
<g>
<line class="pen1" fill="none" x1="10" x2="138" y1="258" y2="258"/>
<line class="pen1" fill="none" x1="42" x2="74" y1="226" y2="258"/>
<line class="pen1" fill="none" x1="74" x2="106" y1="258" y2="226"/>
<line class="pen1" fill="none" x1="170" x2="202" y1="258" y2="194"/>
<line class="pen1" fill="none" x1="202" x2="234" y1="194" y2="258"/>
<line class="pen1" fill="none" x1="330" x2="458" y1="194" y2="194"/>
<circle class="pen1" cx="361.5" cy="225.5" fill="none" r="31.5"/>
<line class="pen1" fill="none" x1="384" x2="339" y1="203" y2="248"/>
<line class="pen1" fill="none" x1="339" x2="384" y1="203" y2="248"/>
<circle class="pen1" cx="425.5" cy="225.5" fill="none" r="31.5"/>
<line class="pen1" fill="none" x1="448" x2="403" y1="203" y2="248"/>
<line class="pen1" fill="none" x1="403" x2="448" y1="203" y2="248"/>
<line class="pen1" fill="none" x1="426" x2="458" y1="162" y2="194"/>
<line class="pen1" fill="none" x1="442" x2="410" y1="146" y2="178"/>
<circle class="pen1" cx="297.5" cy="225.5" fill="none" r="31.5"/>
<line class="pen1" fill="none" x1="320" x2="275" y1="203" y2="248"/>
<line class="pen1" fill="none" x1="275" x2="320" y1="203" y2="248"/>
<line class="pen1" fill="none" x1="266" x2="330" y1="194" y2="194"/>
</g>
</svg>
