<?xml version="1.0" encoding="UTF-8" standalone="no"?>
<!DOCTYPE svg PUBLIC "-//W3C//DTD SVG 1.0//EN" "http://www.w3.org/TR/2001/REC-SVG-20010904/DTD/svg10.dtd">
<svg xmlns="http://www.w3.org/2000/svg" xmlns:xlink="http://www.w3.org/1999/xlink" fill-rule="evenodd" height="4.5in" preserveAspectRatio="none" stroke-linecap="round" viewBox="0 0 436 324" width="6.052083333333333in">
<style type="text/css">
.brush0 { fill: rgb(255,255,255); }
.pen0 { stroke: rgb(0,0,0); stroke-width: 1; stroke-linejoin: round; }
.font0 { font-size: 11px; font-family: "MS Sans Serif"; }
.pen1 { stroke: rgb(0,0,0); stroke-width: 7; stroke-linejoin: round; }
.brush1 { fill: none; }
.font1 { font-weight: bold; font-size: 16px; font-family: System, sans-serif; }
</style>
<g>
<line class="pen1" fill="none" x1="298" x2="426" y1="194" y2="194"/>
<circle class="pen1" cx="329.5" cy="225.5" fill="none" r="31.5"/>
<line class="pen1" fill="none" x1="352" x2="307" y1="203" y2="248"/>
<line class="pen1" fill="none" x1="307" x2="352" y1="203" y2="248"/>
<circle class="pen1" cx="393.5" cy="225.5" fill="none" r="31.5"/>
<line class="pen1" fill="none" x1="416" x2="371" y1="203" y2="248"/>
<line class="pen1" fill="none" x1="371" x2="416" y1="203" y2="248"/>
<line class="pen1" fill="none" x1="394" x2="426" y1="162" y2="194"/>
<line class="pen1" fill="none" x1="410" x2="378" y1="146" y2="178"/>
<circle class="pen1" cx="265.5" cy="225.5" fill="none" r="31.5"/>
<line class="pen1" fill="none" x1="288" x2="243" y1="203" y2="248"/>
<line class="pen1" fill="none" x1="243" x2="288" y1="203" y2="248"/>
<line class="pen1" fill="none" x1="234" x2="298" y1="194" y2="194"/>
<line class="pen1" fill="none" x1="10" x2="10" y1="194" y2="258"/>
<line class="pen1" fill="none" x1="10" x2="138" y1="194" y2="194"/>
<line class="pen1" fill="none" x1="138" x2="138" y1="194" y2="258"/>
<line class="pen1" fill="none" x1="138" x2="202" y1="258" y2="258"/>
</g>
</svg>
