<?xml version="1.0" encoding="UTF-8" standalone="no"?>
<!DOCTYPE svg PUBLIC "-//W3C//DTD SVG 1.0//EN" "http://www.w3.org/TR/2001/REC-SVG-20010904/DTD/svg10.dtd">
<svg xmlns="http://www.w3.org/2000/svg" xmlns:xlink="http://www.w3.org/1999/xlink" fill-rule="evenodd" height="4.5in" preserveAspectRatio="none" stroke-linecap="round" viewBox="0 0 324 324" width="4.5in">
<style type="text/css">
.brush0 { fill: rgb(255,255,255); }
.pen0 { stroke: rgb(0,0,0); stroke-width: 1; stroke-linejoin: round; }
.font0 { font-size: 11px; font-family: "MS Sans Serif"; }
.pen1 { stroke: rgb(0,0,0); stroke-width: 7; stroke-linejoin: round; }
.brush1 { fill: none; }
.font1 { font-weight: bold; font-size: 16px; font-family: System, sans-serif; }
</style>
<g>
<path class="pen1" d="M 153.88023962806764,129.8398992922589 A 79.5,79.5 0 0 0 154.35760537564173,257.5144095425497" fill="none"/>
<line class="pen1" fill="none" x1="154" x2="282" y1="258" y2="258"/>
<line class="pen1" fill="none" x1="154" x2="282" y1="130" y2="130"/>
<path class="pen1" d="M 281.27877372651983,257.04084340949544 A 79.5,79.5 0 0 0 281.75534462938106,130.3203219800887" fill="none"/>
<path class="pen1" d="M 89.44365081389596,161.44365081389594 A 22.0,22.0 0 0 0 90.44432398408938,193.49643281803205" fill="none"/>
<path class="pen1" d="M 57.44365081389596,161.44365081389594 A 22.0,22.0 0 0 0 58.44432398408938,193.49643281803205" fill="none"/>
<path class="pen1" d="M 25.443650813895957,161.44365081389594 A 22.0,22.0 0 0 0 26.444323984089383,193.49643281803205" fill="none"/>
<line class="pen1" fill="none" x1="186" x2="218" y1="226" y2="194"/>
<line class="pen1" fill="none" x1="218" x2="250" y1="194" y2="226"/>
</g>
</svg>
