<?xml version="1.0" encoding="UTF-8" standalone="no"?>
<!DOCTYPE svg PUBLIC "-//W3C//DTD SVG 1.0//EN" "http://www.w3.org/TR/2001/REC-SVG-20010904/DTD/svg10.dtd">
<svg xmlns="http://www.w3.org/2000/svg" xmlns:xlink="http://www.w3.org/1999/xlink" fill-rule="evenodd" height="4.5in" preserveAspectRatio="none" stroke-linecap="round" viewBox="0 0 612 324" width="8.5in">
<style type="text/css">
.brush0 { fill: rgb(255,255,255); }
.pen0 { stroke: rgb(0,0,0); stroke-width: 1; stroke-linejoin: round; }
.font0 { font-size: 11px; font-family: "MS Sans Serif"; }
.pen1 { stroke: rgb(0,0,0); stroke-width: 7; stroke-linejoin: round; }
.brush1 { fill: none; }
.font1 { font-weight: bold; font-size: 16px; font-family: System, sans-serif; }
</style>
<g>
<line class="pen1" fill="none" x1="378" x2="410" y1="258" y2="194"/>
<line class="pen1" fill="none" x1="410" x2="442" y1="194" y2="258"/>
<line class="pen1" fill="none" x1="442" x2="474" y1="258" y2="194"/>
<line class="pen1" fill="none" x1="474" x2="506" y1="194" y2="258"/>
<line class="pen1" fill="none" x1="378" x2="506" y1="194" y2="194"/>
<line class="pen1" fill="none" x1="570" x2="506" y1="130" y2="194"/>
<line class="pen1" fill="none" x1="570" x2="602" y1="130" y2="162"/>
<line class="pen1" fill="none" x1="26" x2="26" y1="130" y2="258"/>
<line class="pen1" fill="none" x1="138" x2="266" y1="258" y2="258"/>
<line class="pen1" fill="none" x1="138" x2="266" y1="130" y2="130"/>
<path class="pen1" d="M 137.88023962806764,129.8398992922589 A 79.5,79.5 0 0 0 138.35760537564173,257.5144095425497" fill="none"/>
<path class="pen1" d="M 265.27877372651983,257.04084340949544 A 79.5,79.5 0 0 0 265.75534462938106,130.3203219800887" fill="none"/>
<line class="pen1" fill="none" x1="58" x2="90" y1="162" y2="194"/>
<line class="pen1" fill="none" x1="90" x2="58" y1="194" y2="226"/>
<line class="pen1" fill="none" x1="346" x2="314" y1="162" y2="194"/>
<line class="pen1" fill="none" x1="314" x2="346" y1="194" y2="226"/>
<line class="pen1" fill="none" x1="10" x2="42" y1="66" y2="66"/>
<line class="pen1" fill="none" x1="42" x2="42" y1="66" y2="98"/>
<line class="pen1" fill="none" x1="42" x2="10" y1="98" y2="98"/>
<line class="pen1" fill="none" x1="10" x2="10" y1="98" y2="66"/>
</g>
</svg>
