<?xml version="1.0" encoding="UTF-8" standalone="no"?>
<!DOCTYPE svg PUBLIC "-//W3C//DTD SVG 1.0//EN" "http://www.w3.org/TR/2001/REC-SVG-20010904/DTD/svg10.dtd">
<svg xmlns="http://www.w3.org/2000/svg" xmlns:xlink="http://www.w3.org/1999/xlink" fill-rule="evenodd" height="4.5in" preserveAspectRatio="none" stroke-linecap="round" viewBox="0 0 628 324" width="8.71875in">
<style type="text/css">
.brush0 { fill: rgb(255,255,255); }
.pen0 { stroke: rgb(0,0,0); stroke-width: 1; stroke-linejoin: round; }
.font0 { font-size: 11px; font-family: "MS Sans Serif"; }
.pen1 { stroke: rgb(0,0,0); stroke-width: 7; stroke-linejoin: round; }
.brush1 { fill: none; }
.font1 { font-weight: bold; font-size: 16px; font-family: System, sans-serif; }
</style>
<g>
<line class="pen1" fill="none" x1="10" x2="42" y1="258" y2="194"/>
<line class="pen1" fill="none" x1="42" x2="74" y1="194" y2="258"/>
<line class="pen1" fill="none" x1="74" x2="106" y1="258" y2="194"/>
<line class="pen1" fill="none" x1="106" x2="138" y1="194" y2="258"/>
<line class="pen1" fill="none" x1="10" x2="138" y1="194" y2="194"/>
<line class="pen1" fill="none" x1="202" x2="138" y1="130" y2="194"/>
<line class="pen1" fill="none" x1="202" x2="234" y1="130" y2="162"/>
<line class="pen1" fill="none" x1="106" x2="122" y1="98" y2="66"/>
<line class="pen1" fill="none" x1="122" x2="138" y1="66" y2="98"/>
<line class="pen1" fill="none" x1="266" x2="394" y1="258" y2="258"/>
<line class="pen1" fill="none" x1="330" x2="394" y1="130" y2="130"/>
<line class="pen1" fill="none" x1="394" x2="394" y1="130" y2="194"/>
<line class="pen1" fill="none" x1="394" x2="330" y1="194" y2="194"/>
<line class="pen1" fill="none" x1="330" x2="330" y1="194" y2="130"/>
<line class="pen1" fill="none" x1="330" x2="330" y1="194" y2="258"/>
<line class="pen1" fill="none" x1="458" x2="522" y1="162" y2="162"/>
<line class="pen1" fill="none" x1="522" x2="522" y1="162" y2="226"/>
<line class="pen1" fill="none" x1="522" x2="458" y1="226" y2="226"/>
<line class="pen1" fill="none" x1="458" x2="458" y1="226" y2="162"/>
<path class="pen1" d="M 490.89381678346916,193.22806732336755 A 45.0,44.5 0 0 0 424.0425932509952,192.20044863397945" fill="none"/>
<path class="pen1" d="M 490.1896042251178,193.7981632442294 A 45.0,45.0 0 0 0 552.8198051533947,192.81980515339464" fill="none"/>
<path class="pen1" d="M 600.8198051533947,192.81980515339464 A 45.0,45.0 0 0 0 601.3208100255129,129.68921528778446" fill="none"/>
<path class="pen1" d="M 601.1801948466053,193.18019484660536 A 45.0,45.0 0 0 0 602.1896042251178,257.79816324422944" fill="none"/>
</g>
</svg>
