<?xml version="1.0" encoding="UTF-8" standalone="no"?>
<!DOCTYPE svg PUBLIC "-//W3C//DTD SVG 1.0//EN" "http://www.w3.org/TR/2001/REC-SVG-20010904/DTD/svg10.dtd">
<svg xmlns="http://www.w3.org/2000/svg" xmlns:xlink="http://www.w3.org/1999/xlink" fill-rule="evenodd" height="4.5in" preserveAspectRatio="none" stroke-linecap="round" viewBox="0 0 500 324" width="6.9375in">
<style type="text/css">
.brush0 { fill: rgb(255,255,255); }
.pen0 { stroke: rgb(0,0,0); stroke-width: 1; stroke-linejoin: round; }
.font0 { font-size: 11px; font-family: "MS Sans Serif"; }
.pen1 { stroke: rgb(0,0,0); stroke-width: 7; stroke-linejoin: round; }
.brush1 { fill: none; }
.font1 { font-weight: bold; font-size: 16px; font-family: System, sans-serif; }
</style>
<g>
<line class="pen1" fill="none" x1="106" x2="234" y1="194" y2="194"/>
<line class="pen1" fill="none" x1="106" x2="138" y1="258" y2="194"/>
<line class="pen1" fill="none" x1="138" x2="170" y1="194" y2="258"/>
<line class="pen1" fill="none" x1="170" x2="202" y1="258" y2="194"/>
<line class="pen1" fill="none" x1="202" x2="234" y1="194" y2="258"/>
<path class="pen1" d="M 329.88023962806767,129.8398992922589 A 79.5,79.5 0 0 0 330.3576053756417,257.5144095425497" fill="none"/>
<line class="pen1" fill="none" x1="330" x2="458" y1="130" y2="130"/>
<line class="pen1" fill="none" x1="330" x2="458" y1="258" y2="258"/>
<path class="pen1" d="M 457.27877372651983,257.04084340949544 A 79.5,79.5 0 0 0 457.75534462938106,130.3203219800887" fill="none"/>
<path class="pen1" d="M 361.44365081389594,97.44365081389596 A 22.0,22.0 0 0 0 362.4443239840894,129.49643281803205" fill="none"/>
<path class="pen1" d="M 393.44365081389594,97.44365081389596 A 22.0,22.0 0 0 0 394.4443239840894,129.49643281803205" fill="none"/>
<path class="pen1" d="M 425.44365081389594,97.44365081389596 A 22.0,22.0 0 0 0 426.4443239840894,129.49643281803205" fill="none"/>
<line class="pen1" fill="none" x1="474" x2="442" y1="66" y2="98"/>
<line class="pen1" fill="none" x1="442" x2="474" y1="98" y2="130"/>
<path class="pen1" d="M 136.9928882767534,257.9694814629319 A 15.5,15.5 0 1 0 106.00805822773465,257.99974005716984" fill="none"/>
<path class="pen1" d="M 200.9928882767534,257.9694814629319 A 15.5,15.5 0 1 0 170.00805822773467,257.99974005716984" fill="none"/>
<path class="pen1" d="M 264.99288827675343,257.9694814629319 A 15.5,15.5 0 1 0 234.00805822773467,257.99974005716984" fill="none"/>
<circle class="pen1" cx="41.5" cy="193.5" fill="none" r="31.5"/>
<line class="pen1" fill="none" x1="26" x2="42" y1="98" y2="66"/>
<line class="pen1" fill="none" x1="42" x2="58" y1="66" y2="98"/>
</g>
</svg>
