<?xml version="1.0" encoding="UTF-8" standalone="no"?>
<!DOCTYPE svg PUBLIC "-//W3C//DTD SVG 1.0//EN" "http://www.w3.org/TR/2001/REC-SVG-20010904/DTD/svg10.dtd">
<svg xmlns="http://www.w3.org/2000/svg" xmlns:xlink="http://www.w3.org/1999/xlink" fill-rule="evenodd" height="4.5in" preserveAspectRatio="none" stroke-linecap="round" viewBox="0 0 340 324" width="4.71875in">
<style type="text/css">
.brush0 { fill: rgb(255,255,255); }
.pen0 { stroke: rgb(0,0,0); stroke-width: 1; stroke-linejoin: round; }
.font0 { font-size: 11px; font-family: "MS Sans Serif"; }
.pen1 { stroke: rgb(0,0,0); stroke-width: 7; stroke-linejoin: round; }
.brush1 { fill: none; }
.font1 { font-weight: bold; font-size: 16px; font-family: System, sans-serif; }
</style>
<g>
<line class="pen1" fill="none" x1="266" x2="266" y1="130" y2="258"/>
<line class="pen1" fill="none" x1="266" x2="138" y1="258" y2="258"/>
<line class="pen1" fill="none" x1="138" x2="266" y1="258" y2="130"/>
<path class="pen1" d="M 312.81980515339467,192.81980515339464 A 45.0,45.0 0 0 0 313.3208100255128,129.68921528778446" fill="none"/>
<path class="pen1" d="M 313.1801948466054,193.18019484660536 A 45.0,45.0 0 0 0 314.1896042251178,257.79816324422944" fill="none"/>
<line class="pen1" fill="none" x1="74" x2="42" y1="130" y2="162"/>
<line class="pen1" fill="none" x1="74" x2="106" y1="130" y2="162"/>
<line class="pen1" fill="none" x1="74" x2="74" y1="130" y2="258"/>
<path class="pen1" d="M 74.95775686614864,193.16012090199274 A 44.5,44.5 0 0 0 8.501657828992187,192.64435708337388" fill="none"/>
<path class="pen1" d="M 74.18960422511782,193.7981632442294 A 45.0,45.0 0 0 0 136.81980515339464,192.81980515339464" fill="none"/>
<line class="pen1" fill="none" x1="58" x2="74" y1="98" y2="66"/>
<line class="pen1" fill="none" x1="74" x2="90" y1="66" y2="98"/>
</g>
</svg>
