<?xml version="1.0" encoding="UTF-8" standalone="no"?>
<!DOCTYPE svg PUBLIC "-//W3C//DTD SVG 1.0//EN" "http://www.w3.org/TR/2001/REC-SVG-20010904/DTD/svg10.dtd">
<svg xmlns="http://www.w3.org/2000/svg" xmlns:xlink="http://www.w3.org/1999/xlink" fill-rule="evenodd" height="4.5in" preserveAspectRatio="none" stroke-linecap="round" viewBox="0 0 340 324" width="4.71875in">
<style type="text/css">
.brush0 { fill: rgb(255,255,255); }
.pen0 { stroke: rgb(0,0,0); stroke-width: 1; stroke-linejoin: round; }
.font0 { font-size: 11px; font-family: "MS Sans Serif"; }
.pen1 { stroke: rgb(0,0,0); stroke-width: 7; stroke-linejoin: round; }
.brush1 { fill: none; }
.font1 { font-weight: bold; font-size: 16px; font-family: System, sans-serif; }
</style>
<g>
<circle class="pen1" cx="73.5" cy="289.5" fill="none" r="31.5"/>
<line class="pen1" fill="none" x1="10" x2="138" y1="258" y2="258"/>
<path class="pen1" d="M 137.99998450068972,194.00196841240611 A 63.5,63.5 0 0 0 74.00196841240611,257.9999845006897" fill="none"/>
<line class="pen1" fill="none" x1="170" x2="170" y1="130" y2="258"/>
<line class="pen1" fill="none" x1="154" x2="186" y1="66" y2="66"/>
<line class="pen1" fill="none" x1="186" x2="186" y1="66" y2="98"/>
<line class="pen1" fill="none" x1="186" x2="154" y1="98" y2="98"/>
<line class="pen1" fill="none" x1="154" x2="154" y1="98" y2="66"/>
<path class="pen1" d="M 266.89381678346916,193.22806732336755 A 45.0,44.5 0 0 0 200.0425932509952,192.20044863397945" fill="none"/>
<path class="pen1" d="M 266.1896042251178,193.7981632442294 A 45.0,45.0 0 0 0 328.81980515339467,192.81980515339464" fill="none"/>
<path class="pen1" d="M 266.89381678346916,257.22806732336755 A 45.0,44.5 0 0 0 200.0425932509952,256.2004486339795" fill="none"/>
<path class="pen1" d="M 266.1896042251178,257.79816324422944 A 45.0,45.0 0 0 0 328.81980515339467,256.8198051533946" fill="none"/>
</g>
</svg>
