<?xml version="1.0" encoding="UTF-8" standalone="no"?>
<!DOCTYPE svg PUBLIC "-//W3C//DTD SVG 1.0//EN" "http://www.w3.org/TR/2001/REC-SVG-20010904/DTD/svg10.dtd">
<svg xmlns="http://www.w3.org/2000/svg" xmlns:xlink="http://www.w3.org/1999/xlink" fill-rule="evenodd" height="4.5in" preserveAspectRatio="none" stroke-linecap="round" viewBox="0 0 436 324" width="6.052083333333333in">
<style type="text/css">
.brush0 { fill: rgb(255,255,255); }
.pen0 { stroke: rgb(0,0,0); stroke-width: 1; stroke-linejoin: round; }
.font0 { font-size: 11px; font-family: "MS Sans Serif"; }
.pen1 { stroke: rgb(0,0,0); stroke-width: 7; stroke-linejoin: round; }
.brush1 { fill: none; }
.font1 { font-weight: bold; font-size: 16px; font-family: System, sans-serif; }
</style>
<g>
<line class="pen1" fill="none" x1="10" x2="74" y1="258" y2="194"/>
<line class="pen1" fill="none" x1="74" x2="138" y1="194" y2="258"/>
<line class="pen1" fill="none" x1="10" x2="138" y1="258" y2="258"/>
<line class="pen1" fill="none" x1="58" x2="90" y1="66" y2="66"/>
<line class="pen1" fill="none" x1="90" x2="90" y1="66" y2="98"/>
<line class="pen1" fill="none" x1="90" x2="58" y1="98" y2="98"/>
<line class="pen1" fill="none" x1="58" x2="58" y1="98" y2="66"/>
<path class="pen1" d="M 138.06681334801561,161.991250632998 A 127.0,127.5 0 0 0 202.51660167769637,257.0626179235348" fill="none"/>
<path class="pen1" d="M 200.99627285096017,161.98455804386091 A 31.5,31.5 0 1 0 138.00396750426663,161.9999370237418" fill="none"/>
<path class="pen1" d="M 264.99627285096017,161.98455804386091 A 31.5,31.5 0 1 0 202.00396750426663,161.9999370237418" fill="none"/>
<path class="pen1" d="M 201.1722459475495,256.53350659998927 A 127.5,127.5 0 0 0 264.94557872560836,161.86354548213757" fill="none"/>
<path class="pen1" d="M 424.9980921477605,193.99223327246327 A 63.5,63.5 0 1 0 298.00196841240614,193.9999845006897" fill="none"/>
<line class="pen1" fill="none" x1="298" x2="426" y1="258" y2="258"/>
<line class="pen1" fill="none" x1="298" x2="298" y1="194" y2="258"/>
<line class="pen1" fill="none" x1="426" x2="426" y1="194" y2="258"/>
<line class="pen1" fill="none" x1="362" x2="362" y1="194" y2="194"/>
</g>
</svg>
