<?xml version="1.0" encoding="UTF-8" standalone="no"?>
<!DOCTYPE svg PUBLIC "-//W3C//DTD SVG 1.0//EN" "http://www.w3.org/TR/2001/REC-SVG-20010904/DTD/svg10.dtd">
<svg xmlns="http://www.w3.org/2000/svg" xmlns:xlink="http://www.w3.org/1999/xlink" fill-rule="evenodd" height="4.5in" preserveAspectRatio="none" stroke-linecap="round" viewBox="0 0 468 324" width="6.5in">
<style type="text/css">
.brush0 { fill: rgb(255,255,255); }
.pen0 { stroke: rgb(0,0,0); stroke-width: 1; stroke-linejoin: round; }
.font0 { font-size: 11px; font-family: "MS Sans Serif"; }
.pen1 { stroke: rgb(0,0,0); stroke-width: 7; stroke-linejoin: round; }
.brush1 { fill: none; }
.font1 { font-weight: bold; font-size: 16px; font-family: System, sans-serif; }
</style>
<g>
<circle class="pen1" cx="233.5" cy="193.5" fill="none" r="63.5"/>
<path class="pen1" d="M 234.89381678346916,193.22806732336755 A 45.0,44.5 0 0 0 168.0425932509952,192.20044863397945" fill="none"/>
<path class="pen1" d="M 234.18960422511782,193.7981632442294 A 45.0,45.0 0 0 0 296.81980515339467,192.81980515339464" fill="none"/>
<line class="pen1" fill="none" x1="234" x2="234" y1="130" y2="258"/>
<line class="pen1" fill="none" x1="234" x2="202" y1="258" y2="226"/>
<line class="pen1" fill="none" x1="234" x2="266" y1="258" y2="226"/>
<circle class="pen1" cx="41.5" cy="193.5" fill="none" r="31.5"/>
<path class="pen1" d="M 137.88023962806764,129.8398992922589 A 79.5,79.5 0 0 0 138.35760537564173,257.5144095425497" fill="none"/>
<path class="pen1" d="M 394.89381678346916,257.22806732336755 A 45.0,44.5 0 0 0 328.0425932509952,256.2004486339795" fill="none"/>
<path class="pen1" d="M 394.1896042251178,257.79816324422944 A 45.0,45.0 0 0 0 456.81980515339467,256.8198051533946" fill="none"/>
</g>
</svg>
