<?xml version="1.0" encoding="UTF-8" standalone="no"?>
<!DOCTYPE svg PUBLIC "-//W3C//DTD SVG 1.0//EN" "http://www.w3.org/TR/2001/REC-SVG-20010904/DTD/svg10.dtd">
<svg xmlns="http://www.w3.org/2000/svg" xmlns:xlink="http://www.w3.org/1999/xlink" fill-rule="evenodd" height="4.5in" preserveAspectRatio="none" stroke-linecap="round" viewBox="0 0 260 324" width="3.6145833333333335in">
<style type="text/css">
.brush0 { fill: rgb(255,255,255); }
.pen0 { stroke: rgb(0,0,0); stroke-width: 1; stroke-linejoin: round; }
.font0 { font-size: 11px; font-family: "MS Sans Serif"; }
.pen1 { stroke: rgb(0,0,0); stroke-width: 7; stroke-linejoin: round; }
.brush1 { fill: none; }
.font1 { font-weight: bold; font-size: 16px; font-family: System, sans-serif; }
</style>
<g>
<path class="pen1" d="M 121.27877372651983,257.04084340949544 A 79.5,79.5 0 0 0 121.75534462938107,130.3203219800887" fill="none"/>
<path class="pen1" d="M 120.81980515339464,224.81980515339464 A 45.0,45.0 0 0 0 121.32081002551281,161.68921528778446" fill="none"/>
<path class="pen1" d="M 104.55634918610404,208.55634918610406 A 22.0,22.0 0 0 0 105.04981849108188,177.95329516461075" fill="none"/>
<line class="pen1" fill="none" x1="218" x2="218" y1="226" y2="226"/>
<circle class="pen1" cx="217.5" cy="225.5" fill="none" r="31.5"/>
<line class="pen1" fill="none" x1="186" x2="250" y1="130" y2="194"/>
<line class="pen1" fill="none" x1="250" x2="186" y1="130" y2="194"/>
<line class="pen1" fill="none" x1="186" x2="250" y1="194" y2="194"/>
<line class="pen1" fill="none" x1="10" x2="74" y1="194" y2="194"/>
<line class="pen1" fill="none" x1="42" x2="42" y1="226" y2="226"/>
<line class="pen1" fill="none" x1="42" x2="42" y1="162" y2="162"/>
</g>
</svg>
