<?xml version="1.0" encoding="UTF-8" standalone="no"?>
<!DOCTYPE svg PUBLIC "-//W3C//DTD SVG 1.0//EN" "http://www.w3.org/TR/2001/REC-SVG-20010904/DTD/svg10.dtd">
<svg xmlns="http://www.w3.org/2000/svg" xmlns:xlink="http://www.w3.org/1999/xlink" fill-rule="evenodd" height="4.5in" preserveAspectRatio="none" stroke-linecap="round" viewBox="0 0 372 324" width="5.166666666666667in">
<style type="text/css">
.brush0 { fill: rgb(255,255,255); }
.pen0 { stroke: rgb(0,0,0); stroke-width: 1; stroke-linejoin: round; }
.font0 { font-size: 11px; font-family: "MS Sans Serif"; }
.pen1 { stroke: rgb(0,0,0); stroke-width: 7; stroke-linejoin: round; }
.brush1 { fill: none; }
.font1 { font-weight: bold; font-size: 16px; font-family: System, sans-serif; }
</style>
<g>
<circle class="pen1" cx="41.5" cy="193.5" fill="none" r="31.5"/>
<path class="pen1" d="M 104.99627285096015,161.98455804386091 A 31.5,31.5 0 1 0 42.00396750426663,161.9999370237418" fill="none"/>
<path class="pen1" d="M 41.23834446969337,256.63990083873813 A 127.0,127.5 0 0 0 104.9497137109981,161.86354548213757" fill="none"/>
<line class="pen1" fill="none" x1="202" x2="138" y1="130" y2="194"/>
<line class="pen1" fill="none" x1="138" x2="202" y1="194" y2="194"/>
<line class="pen1" fill="none" x1="202" x2="138" y1="194" y2="258"/>
<line class="pen1" fill="none" x1="234" x2="362" y1="130" y2="130"/>
<line class="pen1" fill="none" x1="362" x2="362" y1="130" y2="258"/>
<line class="pen1" fill="none" x1="362" x2="234" y1="258" y2="258"/>
<line class="pen1" fill="none" x1="234" x2="234" y1="258" y2="130"/>
<circle class="pen1" cx="297.5" cy="193.5" fill="none" r="63.5"/>
<circle class="pen1" cx="297.5" cy="193.5" fill="none" r="31.5"/>
<line class="pen1" fill="none" x1="298" x2="298" y1="194" y2="194"/>
</g>
</svg>
