<?xml version="1.0" encoding="UTF-8" standalone="no"?>
<!DOCTYPE svg PUBLIC "-//W3C//DTD SVG 1.0//EN" "http://www.w3.org/TR/2001/REC-SVG-20010904/DTD/svg10.dtd">
<svg xmlns="http://www.w3.org/2000/svg" xmlns:xlink="http://www.w3.org/1999/xlink" fill-rule="evenodd" height="4.5in" preserveAspectRatio="none" stroke-linecap="round" viewBox="0 0 468 324" width="6.5in">
<style type="text/css">
.brush0 { fill: rgb(255,255,255); }
.pen0 { stroke: rgb(0,0,0); stroke-width: 1; stroke-linejoin: round; }
.font0 { font-size: 11px; font-family: "MS Sans Serif"; }
.pen1 { stroke: rgb(0,0,0); stroke-width: 7; stroke-linejoin: round; }
.brush1 { fill: none; }
.brush2 { fill: rgb(0,0,0); }
.font1 { font-weight: bold; font-size: 16px; font-family: System, sans-serif; }
</style>
<g>
<path class="pen1" d="M 74.95775686614864,257.16012090199274 A 44.5,44.5 0 0 0 8.501657828992187,256.6443570833739" fill="none"/>
<path class="pen1" d="M 74.18960422511782,257.79816324422944 A 45.0,45.0 0 0 0 136.81980515339464,256.8198051533946" fill="none"/>
<line class="pen1" fill="none" x1="202" x2="170" y1="130" y2="162"/>
<line class="pen1" fill="none" x1="202" x2="234" y1="130" y2="162"/>
<line class="pen1" fill="none" x1="202" x2="202" y1="130" y2="258"/>
<line class="pen1" fill="none" x1="298" x2="266" y1="162" y2="194"/>
<line class="pen1" fill="none" x1="266" x2="298" y1="194" y2="226"/>
<path class="pen1" d="M 328.81980515339467,192.81980515339464 A 45.0,45.0 0 0 0 329.3208100255128,129.68921528778446" fill="none"/>
<path class="pen1" d="M 329.1801948466054,193.18019484660536 A 45.0,45.0 0 0 0 330.1896042251178,257.79816324422944" fill="none"/>
<line class="pen1" fill="none" x1="362" x2="394" y1="162" y2="194"/>
<line class="pen1" fill="none" x1="394" x2="362" y1="194" y2="226"/>
<line class="pen1" fill="none" x1="426" x2="426" y1="162" y2="210"/>
<line class="pen1" fill="none" x1="426" x2="426" y1="225" y2="225"/>
</g>
</svg>
