<?xml version="1.0" encoding="UTF-8" standalone="no"?>
<!DOCTYPE svg PUBLIC "-//W3C//DTD SVG 1.0//EN" "http://www.w3.org/TR/2001/REC-SVG-20010904/DTD/svg10.dtd">
<svg xmlns="http://www.w3.org/2000/svg" xmlns:xlink="http://www.w3.org/1999/xlink" fill-rule="evenodd" height="4.5in" preserveAspectRatio="none" stroke-linecap="round" viewBox="0 0 324 324" width="4.5in">
<style type="text/css">
.brush0 { fill: rgb(255,255,255); }
.pen0 { stroke: rgb(0,0,0); stroke-width: 1; stroke-linejoin: round; }
.font0 { font-size: 11px; font-family: "MS Sans Serif"; }
.pen1 { stroke: rgb(0,0,0); stroke-width: 7; stroke-linejoin: round; }
.brush1 { fill: none; }
.font1 { font-weight: bold; font-size: 16px; font-family: System, sans-serif; }
</style>
<g>
<path class="pen1" d="M 249.96948146293192,224.9928882767534 A 15.5,15.5 0 1 0 234.00805822773467,209.99974005716984" fill="none"/>
<path class="pen1" d="M 234.00805822773467,241.99974005716984 A 15.5,15.5 0 1 0 249.99974005716984,226.00805822773467" fill="none"/>
<line class="pen1" fill="none" x1="298" x2="298" y1="130" y2="258"/>
<line class="pen1" fill="none" x1="282" x2="314" y1="66" y2="66"/>
<line class="pen1" fill="none" x1="314" x2="314" y1="66" y2="98"/>
<line class="pen1" fill="none" x1="314" x2="282" y1="98" y2="98"/>
<line class="pen1" fill="none" x1="282" x2="282" y1="98" y2="66"/>
<path class="pen1" d="M 136.99809214776047,193.99223327246327 A 63.5,63.5 0 1 0 10.001968412406121,193.9999845006897" fill="none"/>
<path class="pen1" d="M 74.00196841240611,193.9999845006897 A 63.5,63.5 0 0 0 200.99809214776047,193.99223327246327" fill="none"/>
<line class="pen1" fill="none" x1="106" x2="138" y1="162" y2="194"/>
<line class="pen1" fill="none" x1="138" x2="170" y1="194" y2="162"/>
<line class="pen1" fill="none" x1="42" x2="74" y1="226" y2="194"/>
<line class="pen1" fill="none" x1="74" x2="106" y1="194" y2="226"/>
<line class="pen1" fill="none" x1="90" x2="106" y1="98" y2="66"/>
<line class="pen1" fill="none" x1="106" x2="122" y1="66" y2="98"/>
</g>
</svg>
