<?xml version="1.0" encoding="UTF-8" standalone="no"?>
<!DOCTYPE svg PUBLIC "-//W3C//DTD SVG 1.0//EN" "http://www.w3.org/TR/2001/REC-SVG-20010904/DTD/svg10.dtd">
<svg xmlns="http://www.w3.org/2000/svg" xmlns:xlink="http://www.w3.org/1999/xlink" fill-rule="evenodd" height="4.5in" preserveAspectRatio="none" stroke-linecap="round" viewBox="0 0 404 324" width="5.604166666666667in">
<style type="text/css">
.brush0 { fill: rgb(255,255,255); }
.pen0 { stroke: rgb(0,0,0); stroke-width: 1; stroke-linejoin: round; }
.font0 { font-size: 11px; font-family: "MS Sans Serif"; }
.pen1 { stroke: rgb(0,0,0); stroke-width: 7; stroke-linejoin: round; }
.brush1 { fill: none; }
.font1 { font-weight: bold; font-size: 16px; font-family: System, sans-serif; }
</style>
<g>
<path class="pen1" d="M 72.99627285096015,161.98455804386091 A 31.5,31.5 0 1 0 10.003967504266633,161.9999370237418" fill="none"/>
<path class="pen1" d="M 9.238344469693367,256.63990083873813 A 127.0,127.5 0 0 0 72.9497137109981,161.86354548213757" fill="none"/>
<line class="pen1" fill="none" x1="10" x2="74" y1="258" y2="258"/>
<line class="pen1" fill="none" x1="202" x2="170" y1="66" y2="98"/>
<line class="pen1" fill="none" x1="202" x2="234" y1="66" y2="98"/>
<line class="pen1" fill="none" x1="202" x2="202" y1="66" y2="194"/>
<path class="pen1" d="M 137.88023962806764,129.8398992922589 A 79.5,79.5 0 0 0 138.35760537564173,257.5144095425497" fill="none"/>
<path class="pen1" d="M 265.27877372651983,257.04084340949544 A 79.5,79.5 0 0 0 265.75534462938106,130.3203219800887" fill="none"/>
<line class="pen1" fill="none" x1="138" x2="266" y1="130" y2="130"/>
<line class="pen1" fill="none" x1="138" x2="266" y1="258" y2="258"/>
<line class="pen1" fill="none" x1="330" x2="330" y1="130" y2="258"/>
<line class="pen1" fill="none" x1="394" x2="394" y1="130" y2="258"/>
</g>
</svg>
