<?xml version="1.0" encoding="UTF-8" standalone="no"?>
<!DOCTYPE svg PUBLIC "-//W3C//DTD SVG 1.0//EN" "http://www.w3.org/TR/2001/REC-SVG-20010904/DTD/svg10.dtd">
<svg xmlns="http://www.w3.org/2000/svg" xmlns:xlink="http://www.w3.org/1999/xlink" fill-rule="evenodd" height="4.5in" preserveAspectRatio="none" stroke-linecap="round" viewBox="0 0 500 324" width="6.9375in">
<style type="text/css">
.brush0 { fill: rgb(255,255,255); }
.pen0 { stroke: rgb(0,0,0); stroke-width: 1; stroke-linejoin: round; }
.font0 { font-size: 11px; font-family: "MS Sans Serif"; }
.pen1 { stroke: rgb(0,0,0); stroke-width: 7; stroke-linejoin: round; }
.brush1 { fill: none; }
.brush2 { fill: rgb(0,0,0); }
.font1 { font-weight: bold; font-size: 16px; font-family: System, sans-serif; }
</style>
<g>
<line class="pen1" fill="none" x1="74" x2="74" y1="130" y2="258"/>
<line class="pen1" fill="none" x1="42" x2="106" y1="258" y2="258"/>
<line class="pen1" fill="none" x1="10" x2="138" y1="130" y2="130"/>
<circle class="pen1" cx="73.5" cy="97.5" fill="none" r="31.5"/>
<line class="pen1" fill="none" x1="74" x2="74" y1="66" y2="130"/>
<path class="pen1" d="M 170.06681334801561,161.991250632998 A 127.0,127.5 0 0 0 234.51660167769637,257.0626179235348" fill="none"/>
<path class="pen1" d="M 232.99627285096017,161.98455804386091 A 31.5,31.5 0 1 0 170.00396750426663,161.9999370237418" fill="none"/>
<path class="pen1" d="M 296.99627285096017,161.98455804386091 A 31.5,31.5 0 1 0 234.00396750426663,161.9999370237418" fill="none"/>
<path class="pen1" d="M 233.1722459475495,256.53350659998927 A 127.5,127.5 0 0 0 296.94557872560836,161.86354548213757" fill="none"/>
<line class="pen1" fill="none" x1="362" x2="362" y1="130" y2="258"/>
<line class="pen1" fill="none" x1="362" x2="330" y1="258" y2="226"/>
<line class="pen1" fill="none" x1="362" x2="394" y1="258" y2="226"/>
<path class="pen1" d="M 457.88023962806767,129.8398992922589 A 79.5,79.5 0 0 0 458.3576053756417,257.5144095425497" fill="none"/>
<path class="pen1" d="M 473.9694814629319,192.9928882767534 A 15.5,15.5 0 1 0 458.00805822773464,177.99974005716984" fill="none"/>
<line class="pen1" fill="none" x1="474" x2="474" y1="194" y2="210"/>
<line class="pen1" fill="none" x1="474" x2="474" y1="225" y2="225"/>
</g>
</svg>
