<?xml version="1.0" encoding="UTF-8" standalone="no"?>
<!DOCTYPE svg PUBLIC "-//W3C//DTD SVG 1.0//EN" "http://www.w3.org/TR/2001/REC-SVG-20010904/DTD/svg10.dtd">
<svg xmlns="http://www.w3.org/2000/svg" xmlns:xlink="http://www.w3.org/1999/xlink" fill-rule="evenodd" height="4.5in" preserveAspectRatio="none" stroke-linecap="round" viewBox="0 0 276 324" width="3.8333333333333335in">
<style type="text/css">
.brush0 { fill: rgb(255,255,255); }
.pen0 { stroke: rgb(0,0,0); stroke-width: 1; stroke-linejoin: round; }
.font0 { font-size: 11px; font-family: "MS Sans Serif"; }
.pen1 { stroke: rgb(0,0,0); stroke-width: 7; stroke-linejoin: round; }
.brush1 { fill: none; }
.font1 { font-weight: bold; font-size: 16px; font-family: System, sans-serif; }
</style>
<g>
<path class="pen1" d="M 202.89381678346916,129.22806732336755 A 45.0,44.5 0 0 0 136.0425932509952,128.20044863397945" fill="none"/>
<path class="pen1" d="M 202.18960422511782,129.7981632442294 A 45.0,45.0 0 0 0 264.81980515339467,128.81980515339464" fill="none"/>
<path class="pen1" d="M 202.89381678346916,193.22806732336755 A 45.0,44.5 0 0 0 136.0425932509952,192.20044863397945" fill="none"/>
<path class="pen1" d="M 202.18960422511782,193.7981632442294 A 45.0,45.0 0 0 0 264.81980515339467,192.81980515339464" fill="none"/>
<path class="pen1" d="M 202.89381678346916,257.22806732336755 A 45.0,44.5 0 0 0 136.0425932509952,256.2004486339795" fill="none"/>
<path class="pen1" d="M 202.18960422511782,257.79816324422944 A 45.0,45.0 0 0 0 264.81980515339467,256.8198051533946" fill="none"/>
<circle class="pen1" cx="41.5" cy="193.5" fill="none" r="31.5"/>
<path class="pen1" d="M 104.99627285096015,161.98455804386091 A 31.5,31.5 0 1 0 42.00396750426663,161.9999370237418" fill="none"/>
<path class="pen1" d="M 41.23834446969337,256.63990083873813 A 127.0,127.5 0 0 0 104.9497137109981,161.86354548213757" fill="none"/>
</g>
</svg>
