<?xml version="1.0" encoding="UTF-8" standalone="no"?>
<!DOCTYPE svg PUBLIC "-//W3C//DTD SVG 1.0//EN" "http://www.w3.org/TR/2001/REC-SVG-20010904/DTD/svg10.dtd">
<svg xmlns="http://www.w3.org/2000/svg" xmlns:xlink="http://www.w3.org/1999/xlink" fill-rule="evenodd" height="4.5in" preserveAspectRatio="none" stroke-linecap="round" viewBox="0 0 436 324" width="6.052083333333333in">
<style type="text/css">
.brush0 { fill: rgb(255,255,255); }
.pen0 { stroke: rgb(0,0,0); stroke-width: 1; stroke-linejoin: round; }
.font0 { font-size: 11px; font-family: "MS Sans Serif"; }
.pen1 { stroke: rgb(0,0,0); stroke-width: 7; stroke-linejoin: round; }
.brush1 { fill: none; }
.brush2 { fill: rgb(0,0,0); }
.font1 { font-weight: bold; font-size: 16px; font-family: System, sans-serif; }
</style>
<g>
<circle class="pen1" cx="169.5" cy="193.5" fill="none" r="31.5"/>
<circle class="pen1" cx="233.5" cy="193.5" fill="none" r="31.5"/>
<circle class="pen1" cx="201.5" cy="257.5" fill="none" r="31.5"/>
<path class="pen1" d="M 265.9999845006897,130.00196841240611 A 63.5,63.5 0 0 0 202.00196841240611,193.9999845006897" fill="none"/>
<line class="pen1" fill="none" x1="330" x2="298" y1="130" y2="162"/>
<line class="pen1" fill="none" x1="330" x2="362" y1="130" y2="162"/>
<line class="pen1" fill="none" x1="330" x2="330" y1="130" y2="258"/>
<circle class="pen1" cx="329.5" cy="193.5" fill="none" r="31.5"/>
<line class="pen1" fill="none" x1="394" x2="394" y1="162" y2="210"/>
<line class="pen1" fill="none" x1="394" x2="394" y1="225" y2="225"/>
<circle class="pen1" cx="41.5" cy="193.5" fill="none" r="31.5"/>
<path class="pen1" d="M 104.99627285096015,161.98455804386091 A 31.5,31.5 0 1 0 42.00396750426663,161.9999370237418" fill="none"/>
<path class="pen1" d="M 41.23834446969337,256.63990083873813 A 127.0,127.5 0 0 0 104.9497137109981,161.86354548213757" fill="none"/>
</g>
</svg>
