<?xml version="1.0" encoding="UTF-8" standalone="no"?>
<!DOCTYPE svg PUBLIC "-//W3C//DTD SVG 1.0//EN" "http://www.w3.org/TR/2001/REC-SVG-20010904/DTD/svg10.dtd">
<svg xmlns="http://www.w3.org/2000/svg" xmlns:xlink="http://www.w3.org/1999/xlink" fill-rule="evenodd" height="4.5in" preserveAspectRatio="none" stroke-linecap="round" viewBox="0 0 244 324" width="3.3854166666666665in">
<style type="text/css">
.brush0 { fill: rgb(255,255,255); }
.pen0 { stroke: rgb(0,0,0); stroke-width: 1; stroke-linejoin: round; }
.font0 { font-size: 11px; font-family: "MS Sans Serif"; }
.pen1 { stroke: rgb(0,0,0); stroke-width: 7; stroke-linejoin: round; }
.brush1 { fill: none; }
.font1 { font-weight: bold; font-size: 16px; font-family: System, sans-serif; }
</style>
<g>
<path class="pen1" d="M 154.89381678346916,129.22806732336755 A 45.0,44.5 0 0 0 88.0425932509952,128.20044863397945" fill="none"/>
<path class="pen1" d="M 137.49643281803202,146.44432398408938 A 22.0,22.0 0 0 0 105.44365081389596,145.44365081389594" fill="none"/>
<line class="pen1" fill="none" x1="58" x2="122" y1="162" y2="162"/>
<line class="pen1" fill="none" x1="122" x2="122" y1="162" y2="226"/>
<line class="pen1" fill="none" x1="122" x2="58" y1="226" y2="226"/>
<line class="pen1" fill="none" x1="58" x2="58" y1="226" y2="162"/>
<line class="pen1" fill="none" x1="122" x2="186" y1="162" y2="162"/>
<line class="pen1" fill="none" x1="186" x2="186" y1="162" y2="226"/>
<line class="pen1" fill="none" x1="186" x2="122" y1="226" y2="226"/>
<line class="pen1" fill="none" x1="122" x2="122" y1="226" y2="162"/>
<path class="pen1" d="M 90.18960422511782,257.79816324422944 A 45.0,45.0 0 0 0 152.81980515339464,256.8198051533946" fill="none"/>
<path class="pen1" d="M 106.44432398408938,241.49643281803205 A 22.0,22.0 0 0 0 136.55634918610406,240.55634918610406" fill="none"/>
<line class="pen1" fill="none" x1="202" x2="234" y1="162" y2="194"/>
<line class="pen1" fill="none" x1="234" x2="202" y1="194" y2="226"/>
<line class="pen1" fill="none" x1="42" x2="10" y1="162" y2="194"/>
<line class="pen1" fill="none" x1="10" x2="42" y1="194" y2="226"/>
</g>
</svg>
