<?xml version="1.0" encoding="UTF-8" standalone="no"?>
<!DOCTYPE svg PUBLIC "-//W3C//DTD SVG 1.0//EN" "http://www.w3.org/TR/2001/REC-SVG-20010904/DTD/svg10.dtd">
<svg xmlns="http://www.w3.org/2000/svg" xmlns:xlink="http://www.w3.org/1999/xlink" fill-rule="evenodd" height="4.5in" preserveAspectRatio="none" stroke-linecap="round" viewBox="0 0 500 324" width="6.9375in">
<style type="text/css">
.brush0 { fill: rgb(255,255,255); }
.pen0 { stroke: rgb(0,0,0); stroke-width: 1; stroke-linejoin: round; }
.font0 { font-size: 11px; font-family: "MS Sans Serif"; }
.pen1 { stroke: rgb(0,0,0); stroke-width: 7; stroke-linejoin: round; }
.brush1 { fill: none; }
.font1 { font-weight: bold; font-size: 16px; font-family: System, sans-serif; }
</style>
<g>
<path class="pen1" d="M 328.9980921477605,193.99223327246327 A 63.5,63.5 0 1 0 202.00196841240611,193.9999845006897" fill="none"/>
<line class="pen1" fill="none" x1="266" x2="234" y1="130" y2="162"/>
<line class="pen1" fill="none" x1="266" x2="298" y1="130" y2="162"/>
<line class="pen1" fill="none" x1="266" x2="266" y1="130" y2="258"/>
<line class="pen1" fill="none" x1="106" x2="170" y1="162" y2="162"/>
<line class="pen1" fill="none" x1="170" x2="170" y1="162" y2="226"/>
<line class="pen1" fill="none" x1="170" x2="106" y1="226" y2="226"/>
<line class="pen1" fill="none" x1="106" x2="106" y1="226" y2="162"/>
<circle class="pen1" cx="425.5" cy="225.5" fill="none" r="31.5"/>
<line class="pen1" fill="none" x1="448" x2="403" y1="203" y2="248"/>
<line class="pen1" fill="none" x1="403" x2="448" y1="203" y2="248"/>
<path class="pen1" d="M 489.9999845006897,130.00196841240611 A 63.5,63.5 0 0 0 426.00196841240614,193.9999845006897" fill="none"/>
<path class="pen1" d="M 424.9980921477605,193.99223327246327 A 63.5,63.5 0 0 0 361.9999845006897,130.00196841240611" fill="none"/>
<line class="pen1" fill="none" x1="10" x2="42" y1="258" y2="194"/>
<line class="pen1" fill="none" x1="42" x2="74" y1="194" y2="258"/>
<line class="pen1" fill="none" x1="26" x2="42" y1="98" y2="66"/>
<line class="pen1" fill="none" x1="42" x2="58" y1="66" y2="98"/>
</g>
</svg>
