<?xml version="1.0" encoding="UTF-8" standalone="no"?>
<!DOCTYPE svg PUBLIC "-//W3C//DTD SVG 1.0//EN" "http://www.w3.org/TR/2001/REC-SVG-20010904/DTD/svg10.dtd">
<svg xmlns="http://www.w3.org/2000/svg" xmlns:xlink="http://www.w3.org/1999/xlink" fill-rule="evenodd" height="4.5in" preserveAspectRatio="none" stroke-linecap="round" viewBox="0 0 452 324" width="6.270833333333333in">
<style type="text/css">
.brush0 { fill: rgb(255,255,255); }
.pen0 { stroke: rgb(0,0,0); stroke-width: 1; stroke-linejoin: round; }
.font0 { font-size: 11px; font-family: "MS Sans Serif"; }
.pen1 { stroke: rgb(0,0,0); stroke-width: 7; stroke-linejoin: round; }
.brush1 { fill: none; }
.font1 { font-weight: bold; font-size: 16px; font-family: System, sans-serif; }
</style>
<g>
<line class="pen1" fill="none" x1="218" x2="282" y1="162" y2="162"/>
<line class="pen1" fill="none" x1="282" x2="282" y1="162" y2="226"/>
<line class="pen1" fill="none" x1="282" x2="218" y1="226" y2="226"/>
<line class="pen1" fill="none" x1="218" x2="218" y1="226" y2="162"/>
<line class="pen1" fill="none" x1="170" x2="202" y1="162" y2="194"/>
<line class="pen1" fill="none" x1="202" x2="170" y1="194" y2="226"/>
<circle class="pen1" cx="377.5" cy="225.5" fill="none" r="31.5"/>
<line class="pen1" fill="none" x1="400" x2="355" y1="203" y2="248"/>
<line class="pen1" fill="none" x1="355" x2="400" y1="203" y2="248"/>
<path class="pen1" d="M 441.9999845006897,130.00196841240611 A 63.5,63.5 0 0 0 378.00196841240614,193.9999845006897" fill="none"/>
<path class="pen1" d="M 376.9980921477605,193.99223327246327 A 63.5,63.5 0 0 0 313.9999845006897,130.00196841240611" fill="none"/>
<path class="pen1" d="M 137.99998450068972,130.00196841240611 A 63.5,63.5 0 0 0 74.00196841240611,193.9999845006897" fill="none"/>
<path class="pen1" d="M 72.99809214776047,193.99223327246327 A 63.5,63.5 0 0 0 9.999984500689715,130.00196841240611" fill="none"/>
</g>
</svg>
