<?xml version="1.0" encoding="UTF-8" standalone="no"?>
<!DOCTYPE svg PUBLIC "-//W3C//DTD SVG 1.0//EN" "http://www.w3.org/TR/2001/REC-SVG-20010904/DTD/svg10.dtd">
<svg xmlns="http://www.w3.org/2000/svg" xmlns:xlink="http://www.w3.org/1999/xlink" fill-rule="evenodd" height="4.5in" preserveAspectRatio="none" stroke-linecap="round" viewBox="0 0 436 324" width="6.052083333333333in">
<style type="text/css">
.brush0 { fill: rgb(255,255,255); }
.pen0 { stroke: rgb(0,0,0); stroke-width: 1; stroke-linejoin: round; }
.font0 { font-size: 11px; font-family: "MS Sans Serif"; }
.pen1 { stroke: rgb(0,0,0); stroke-width: 7; stroke-linejoin: round; }
.brush1 { fill: none; }
.font1 { font-weight: bold; font-size: 16px; font-family: System, sans-serif; }
</style>
<g>
<path class="pen1" d="M 137.88023962806764,129.8398992922589 A 79.5,79.5 0 0 0 138.35760537564173,257.5144095425497" fill="none"/>
<path class="pen1" d="M 201.27877372651983,257.04084340949544 A 79.5,79.5 0 0 0 201.75534462938106,130.3203219800887" fill="none"/>
<line class="pen1" fill="none" x1="138" x2="202" y1="130" y2="130"/>
<line class="pen1" fill="none" x1="138" x2="202" y1="258" y2="258"/>
<line class="pen1" fill="none" x1="170" x2="170" y1="194" y2="194"/>
<path class="pen1" d="M 361.99223327246324,256.9980921477605 A 63.5,63.5 0 0 0 361.9999845006897,130.00196841240611" fill="none"/>
<path class="pen1" d="M 298.00196841240614,193.9999845006897 A 63.5,63.5 0 0 0 361.99223327246324,256.9980921477605" fill="none"/>
<line class="pen1" fill="none" x1="266" x2="298" y1="226" y2="194"/>
<line class="pen1" fill="none" x1="298" x2="330" y1="194" y2="226"/>
<line class="pen1" fill="none" x1="10" x2="74" y1="194" y2="258"/>
<line class="pen1" fill="none" x1="74" x2="10" y1="194" y2="258"/>
<circle class="pen1" cx="41.5" cy="161.5" fill="none" r="31.5"/>
</g>
</svg>
