<?xml version="1.0" encoding="UTF-8" standalone="no"?>
<!DOCTYPE svg PUBLIC "-//W3C//DTD SVG 1.0//EN" "http://www.w3.org/TR/2001/REC-SVG-20010904/DTD/svg10.dtd">
<svg xmlns="http://www.w3.org/2000/svg" xmlns:xlink="http://www.w3.org/1999/xlink" fill-rule="evenodd" height="4.5in" preserveAspectRatio="none" stroke-linecap="round" viewBox="0 0 404 324" width="5.604166666666667in">
<style type="text/css">
.brush0 { fill: rgb(255,255,255); }
.pen0 { stroke: rgb(0,0,0); stroke-width: 1; stroke-linejoin: round; }
.font0 { font-size: 11px; font-family: "MS Sans Serif"; }
.pen1 { stroke: rgb(0,0,0); stroke-width: 7; stroke-linejoin: round; }
.brush1 { fill: none; }
.font1 { font-weight: bold; font-size: 16px; font-family: System, sans-serif; }
</style>
<g>
<path class="pen1" d="M 233.18019484660536,193.18019484660536 A 45.0,45.0 0 0 0 234.18960422511782,257.79816324422944" fill="none"/>
<line class="pen1" fill="none" x1="234" x2="362" y1="194" y2="194"/>
<line class="pen1" fill="none" x1="234" x2="362" y1="258" y2="258"/>
<path class="pen1" d="M 360.81980515339467,256.8198051533946 A 45.0,45.0 0 0 0 361.3208100255128,193.68921528778446" fill="none"/>
<line class="pen1" fill="none" x1="186" x2="154" y1="162" y2="194"/>
<line class="pen1" fill="none" x1="154" x2="186" y1="194" y2="226"/>
<line class="pen1" fill="none" x1="10" x2="138" y1="130" y2="130"/>
<line class="pen1" fill="none" x1="138" x2="138" y1="130" y2="258"/>
<line class="pen1" fill="none" x1="138" x2="10" y1="258" y2="258"/>
<line class="pen1" fill="none" x1="10" x2="10" y1="258" y2="130"/>
<line class="pen1" fill="none" x1="42" x2="106" y1="162" y2="162"/>
<line class="pen1" fill="none" x1="106" x2="106" y1="162" y2="226"/>
<line class="pen1" fill="none" x1="106" x2="42" y1="226" y2="226"/>
<line class="pen1" fill="none" x1="42" x2="42" y1="226" y2="162"/>
</g>
</svg>
