<?xml version="1.0" encoding="UTF-8" standalone="no"?>
<!DOCTYPE svg PUBLIC "-//W3C//DTD SVG 1.0//EN" "http://www.w3.org/TR/2001/REC-SVG-20010904/DTD/svg10.dtd">
<svg xmlns="http://www.w3.org/2000/svg" xmlns:xlink="http://www.w3.org/1999/xlink" fill-rule="evenodd" height="4.5in" preserveAspectRatio="none" stroke-linecap="round" viewBox="0 0 724 324" width="10.052083333333334in">
<style type="text/css">
.brush0 { fill: rgb(255,255,255); }
.pen0 { stroke: rgb(0,0,0); stroke-width: 1; stroke-linejoin: round; }
.font0 { font-size: 11px; font-family: "MS Sans Serif"; }
.pen1 { stroke: rgb(0,0,0); stroke-width: 7; stroke-linejoin: round; }
.brush1 { fill: none; }
.font1 { font-weight: bold; font-size: 16px; font-family: System, sans-serif; }
</style>
<g>
<line class="pen1" fill="none" x1="234" x2="362" y1="258" y2="258"/>
<line class="pen1" fill="none" x1="298" x2="298" y1="130" y2="258"/>
<line class="pen1" fill="none" x1="298" x2="362" y1="130" y2="130"/>
<line class="pen1" fill="none" x1="362" x2="362" y1="130" y2="194"/>
<line class="pen1" fill="none" x1="362" x2="298" y1="194" y2="194"/>
<line class="pen1" fill="none" x1="298" x2="298" y1="194" y2="130"/>
<path class="pen1" d="M 520.9980921477604,193.99223327246327 A 63.5,63.5 0 1 0 394.00196841240614,193.9999845006897" fill="none"/>
<line class="pen1" fill="none" x1="458" x2="458" y1="130" y2="258"/>
<line class="pen1" fill="none" x1="394" x2="522" y1="194" y2="194"/>
<line class="pen1" fill="none" x1="522" x2="490" y1="194" y2="162"/>
<line class="pen1" fill="none" x1="522" x2="490" y1="194" y2="226"/>
<line class="pen1" fill="none" x1="650" x2="714" y1="130" y2="194"/>
<line class="pen1" fill="none" x1="714" x2="650" y1="130" y2="194"/>
<circle class="pen1" cx="681.5" cy="225.5" fill="none" r="31.5"/>
<line class="pen1" fill="none" x1="682" x2="682" y1="226" y2="226"/>
<line class="pen1" fill="none" x1="554" x2="618" y1="194" y2="194"/>
<line class="pen1" fill="none" x1="650" x2="714" y1="194" y2="194"/>
<line class="pen1" fill="none" x1="74" x2="74" y1="130" y2="258"/>
<line class="pen1" fill="none" x1="42" x2="106" y1="258" y2="258"/>
<path class="pen1" d="M 136.99809214776047,193.99223327246327 A 63.5,63.5 0 1 0 10.001968412406121,193.9999845006897" fill="none"/>
<line class="pen1" fill="none" x1="138" x2="202" y1="194" y2="194"/>
<line class="pen1" fill="none" x1="170" x2="202" y1="162" y2="194"/>
<line class="pen1" fill="none" x1="202" x2="170" y1="194" y2="226"/>
</g>
</svg>
