<?xml version="1.0" encoding="UTF-8" standalone="no"?>
<!DOCTYPE svg PUBLIC "-//W3C//DTD SVG 1.0//EN" "http://www.w3.org/TR/2001/REC-SVG-20010904/DTD/svg10.dtd">
<svg xmlns="http://www.w3.org/2000/svg" xmlns:xlink="http://www.w3.org/1999/xlink" fill-rule="evenodd" height="4.5in" preserveAspectRatio="none" stroke-linecap="round" viewBox="0 0 660 324" width="9.166666666666666in">
<style type="text/css">
.brush0 { fill: rgb(255,255,255); }
.pen0 { stroke: rgb(0,0,0); stroke-width: 1; stroke-linejoin: round; }
.font0 { font-size: 11px; font-family: "MS Sans Serif"; }
.pen1 { stroke: rgb(0,0,0); stroke-width: 7; stroke-linejoin: round; }
.brush1 { fill: none; }
.font1 { font-weight: bold; font-size: 16px; font-family: System, sans-serif; }
</style>
<g>
<line class="pen1" fill="none" x1="362" x2="330" y1="130" y2="162"/>
<line class="pen1" fill="none" x1="362" x2="394" y1="130" y2="162"/>
<line class="pen1" fill="none" x1="362" x2="362" y1="130" y2="258"/>
<path class="pen1" d="M 234.89381678346916,193.22806732336755 A 45.0,44.5 0 0 0 168.0425932509952,192.20044863397945" fill="none"/>
<path class="pen1" d="M 234.18960422511782,193.7981632442294 A 45.0,45.0 0 0 0 296.81980515339467,192.81980515339464" fill="none"/>
<line class="pen1" fill="none" x1="10" x2="138" y1="194" y2="194"/>
<line class="pen1" fill="none" x1="74" x2="74" y1="130" y2="258"/>
<line class="pen1" fill="none" x1="58" x2="90" y1="66" y2="66"/>
<line class="pen1" fill="none" x1="90" x2="90" y1="66" y2="98"/>
<line class="pen1" fill="none" x1="90" x2="58" y1="98" y2="98"/>
<line class="pen1" fill="none" x1="58" x2="58" y1="98" y2="66"/>
<circle class="pen1" cx="585.5" cy="193.5" fill="none" r="63.5"/>
<circle class="pen1" cx="585.5" cy="193.5" fill="none" r="31.5"/>
<line class="pen1" fill="none" x1="586" x2="586" y1="194" y2="194"/>
<line class="pen1" fill="none" x1="426" x2="490" y1="194" y2="194"/>
</g>
</svg>
