<?xml version="1.0" encoding="UTF-8" standalone="no"?>
<!DOCTYPE svg PUBLIC "-//W3C//DTD SVG 1.0//EN" "http://www.w3.org/TR/2001/REC-SVG-20010904/DTD/svg10.dtd">
<svg xmlns="http://www.w3.org/2000/svg" xmlns:xlink="http://www.w3.org/1999/xlink" fill-rule="evenodd" height="4.5in" preserveAspectRatio="none" stroke-linecap="round" viewBox="0 0 564 324" width="7.833333333333333in">
<style type="text/css">
.brush0 { fill: rgb(255,255,255); }
.pen0 { stroke: rgb(0,0,0); stroke-width: 1; stroke-linejoin: round; }
.font0 { font-size: 11px; font-family: "MS Sans Serif"; }
.pen1 { stroke: rgb(0,0,0); stroke-width: 7; stroke-linejoin: round; }
.brush1 { fill: none; }
.font1 { font-weight: bold; font-size: 16px; font-family: System, sans-serif; }
</style>
<g>
<line class="pen1" fill="none" x1="42" x2="170" y1="162" y2="162"/>
<line class="pen1" fill="none" x1="10" x2="138" y1="226" y2="226"/>
<line class="pen1" fill="none" x1="90" x2="26" y1="130" y2="258"/>
<line class="pen1" fill="none" x1="154" x2="90" y1="130" y2="258"/>
<line class="pen1" fill="none" x1="202" x2="330" y1="130" y2="258"/>
<line class="pen1" fill="none" x1="330" x2="202" y1="130" y2="258"/>
<line class="pen1" fill="none" x1="426" x2="490" y1="194" y2="194"/>
<line class="pen1" fill="none" x1="458" x2="458" y1="162" y2="226"/>
<path class="pen1" d="M 392.99288827675343,209.96948146293192 A 15.5,15.5 0 1 0 362.00805822773464,209.99974005716984" fill="none"/>
<line class="pen1" fill="none" x1="394" x2="362" y1="210" y2="258"/>
<line class="pen1" fill="none" x1="362" x2="394" y1="258" y2="258"/>
<line class="pen1" fill="none" x1="538" x2="538" y1="194" y2="258"/>
<line class="pen1" fill="none" x1="522" x2="554" y1="258" y2="258"/>
<line class="pen1" fill="none" x1="522" x2="538" y1="210" y2="194"/>
</g>
</svg>
