<?xml version="1.0" encoding="UTF-8" standalone="no"?>
<!DOCTYPE svg PUBLIC "-//W3C//DTD SVG 1.0//EN" "http://www.w3.org/TR/2001/REC-SVG-20010904/DTD/svg10.dtd">
<svg xmlns="http://www.w3.org/2000/svg" xmlns:xlink="http://www.w3.org/1999/xlink" fill-rule="evenodd" height="4.5in" preserveAspectRatio="none" stroke-linecap="round" viewBox="0 0 356 324" width="4.9375in">
<style type="text/css">
.brush0 { fill: rgb(255,255,255); }
.pen0 { stroke: rgb(0,0,0); stroke-width: 1; stroke-linejoin: round; }
.font0 { font-size: 11px; font-family: "MS Sans Serif"; }
.pen1 { stroke: rgb(0,0,0); stroke-width: 7; stroke-linejoin: round; }
.brush1 { fill: none; }
.font1 { font-weight: bold; font-size: 16px; font-family: System, sans-serif; }
</style>
<g>
<path class="pen1" d="M 312.99627285096017,161.98455804386091 A 31.5,31.5 0 1 0 250.00396750426663,161.9999370237418" fill="none"/>
<path class="pen1" d="M 250.00396750426663,225.9999370237418 A 31.5,31.5 0 0 0 312.99627285096017,225.98455804386091" fill="none"/>
<line class="pen1" fill="none" x1="314" x2="314" y1="162" y2="226"/>
<line class="pen1" fill="none" x1="250" x2="250" y1="162" y2="226"/>
<line class="pen1" fill="none" x1="218" x2="346" y1="258" y2="258"/>
<line class="pen1" fill="none" x1="282" x2="282" y1="162" y2="162"/>
<line class="pen1" fill="none" x1="282" x2="282" y1="194" y2="194"/>
<line class="pen1" fill="none" x1="282" x2="282" y1="226" y2="226"/>
<path class="pen1" d="M 217.99223327246327,320.9980921477605 A 63.5,63.5 0 0 0 280.9980921477605,257.99223327246324" fill="none"/>
<line class="pen1" fill="none" x1="10" x2="138" y1="130" y2="130"/>
<line class="pen1" fill="none" x1="138" x2="138" y1="130" y2="258"/>
<line class="pen1" fill="none" x1="138" x2="10" y1="258" y2="258"/>
<line class="pen1" fill="none" x1="10" x2="10" y1="258" y2="130"/>
<line class="pen1" fill="none" x1="42" x2="106" y1="162" y2="162"/>
<line class="pen1" fill="none" x1="106" x2="106" y1="162" y2="226"/>
<line class="pen1" fill="none" x1="106" x2="42" y1="226" y2="226"/>
<line class="pen1" fill="none" x1="42" x2="42" y1="226" y2="162"/>
<line class="pen1" fill="none" x1="186" x2="154" y1="162" y2="194"/>
<line class="pen1" fill="none" x1="154" x2="186" y1="194" y2="226"/>
</g>
</svg>
