<?xml version="1.0" encoding="UTF-8" standalone="no"?>
<!DOCTYPE svg PUBLIC "-//W3C//DTD SVG 1.0//EN" "http://www.w3.org/TR/2001/REC-SVG-20010904/DTD/svg10.dtd">
<svg xmlns="http://www.w3.org/2000/svg" xmlns:xlink="http://www.w3.org/1999/xlink" fill-rule="evenodd" height="4.5in" preserveAspectRatio="none" stroke-linecap="round" viewBox="0 0 532 324" width="7.385416666666667in">
<style type="text/css">
.brush0 { fill: rgb(255,255,255); }
.pen0 { stroke: rgb(0,0,0); stroke-width: 1; stroke-linejoin: round; }
.font0 { font-size: 11px; font-family: "MS Sans Serif"; }
.pen1 { stroke: rgb(0,0,0); stroke-width: 7; stroke-linejoin: round; }
.brush1 { fill: none; }
.font1 { font-weight: bold; font-size: 16px; font-family: System, sans-serif; }
</style>
<g>
<line class="pen1" fill="none" x1="42" x2="170" y1="130" y2="130"/>
<line class="pen1" fill="none" x1="42" x2="74" y1="258" y2="258"/>
<line class="pen1" fill="none" x1="138" x2="170" y1="258" y2="258"/>
<line class="pen1" fill="none" x1="106" x2="106" y1="258" y2="322"/>
<line class="pen1" fill="none" x1="74" x2="106" y1="290" y2="322"/>
<line class="pen1" fill="none" x1="106" x2="138" y1="322" y2="290"/>
<path class="pen1" d="M 169.27877372651983,257.04084340949544 A 79.5,79.5 0 0 0 169.75534462938106,130.3203219800887" fill="none"/>
<path class="pen1" d="M 41.88023962806765,129.8398992922589 A 79.5,79.5 0 0 0 42.35760537564172,257.5144095425497" fill="none"/>
<circle class="pen1" cx="73.5" cy="193.5" fill="none" r="31.5"/>
<line class="pen1" fill="none" x1="106" x2="170" y1="194" y2="194"/>
<line class="pen1" fill="none" x1="106" x2="106" y1="162" y2="226"/>
<line class="pen1" fill="none" x1="170" x2="170" y1="162" y2="226"/>
<line class="pen1" fill="none" x1="90" x2="106" y1="98" y2="66"/>
<line class="pen1" fill="none" x1="106" x2="122" y1="66" y2="98"/>
<line class="pen1" fill="none" x1="234" x2="266" y1="258" y2="194"/>
<line class="pen1" fill="none" x1="266" x2="298" y1="194" y2="258"/>
<line class="pen1" fill="none" x1="298" x2="330" y1="258" y2="194"/>
<line class="pen1" fill="none" x1="330" x2="362" y1="194" y2="258"/>
<line class="pen1" fill="none" x1="234" x2="362" y1="194" y2="194"/>
<path class="pen1" d="M 298.00396750426665,161.9999370237418 A 31.5,31.5 0 0 0 360.99627285096017,161.98455804386091" fill="none"/>
<line class="pen1" fill="none" x1="394" x2="522" y1="162" y2="162"/>
<line class="pen1" fill="none" x1="394" x2="522" y1="226" y2="226"/>
<line class="pen1" fill="none" x1="426" x2="426" y1="130" y2="258"/>
<line class="pen1" fill="none" x1="490" x2="490" y1="130" y2="258"/>
</g>
</svg>
