<?xml version="1.0" encoding="UTF-8" standalone="no"?>
<!DOCTYPE svg PUBLIC "-//W3C//DTD SVG 1.0//EN" "http://www.w3.org/TR/2001/REC-SVG-20010904/DTD/svg10.dtd">
<svg xmlns="http://www.w3.org/2000/svg" xmlns:xlink="http://www.w3.org/1999/xlink" fill-rule="evenodd" height="4.5in" preserveAspectRatio="none" stroke-linecap="round" viewBox="0 0 372 324" width="5.166666666666667in">
<style type="text/css">
.brush0 { fill: rgb(255,255,255); }
.pen0 { stroke: rgb(0,0,0); stroke-width: 1; stroke-linejoin: round; }
.font0 { font-size: 11px; font-family: "MS Sans Serif"; }
.pen1 { stroke: rgb(0,0,0); stroke-width: 7; stroke-linejoin: round; }
.brush1 { fill: none; }
.font1 { font-weight: bold; font-size: 16px; font-family: System, sans-serif; }
</style>
<g>
<circle class="pen1" cx="41.5" cy="225.5" fill="none" r="31.5"/>
<line class="pen1" fill="none" x1="64" x2="19" y1="203" y2="248"/>
<line class="pen1" fill="none" x1="19" x2="64" y1="203" y2="248"/>
<circle class="pen1" cx="105.5" cy="225.5" fill="none" r="31.5"/>
<line class="pen1" fill="none" x1="128" x2="83" y1="203" y2="248"/>
<line class="pen1" fill="none" x1="83" x2="128" y1="203" y2="248"/>
<circle class="pen1" cx="169.5" cy="225.5" fill="none" r="31.5"/>
<line class="pen1" fill="none" x1="192" x2="147" y1="203" y2="248"/>
<line class="pen1" fill="none" x1="147" x2="192" y1="203" y2="248"/>
<line class="pen1" fill="none" x1="10" x2="74" y1="130" y2="130"/>
<line class="pen1" fill="none" x1="74" x2="74" y1="130" y2="194"/>
<line class="pen1" fill="none" x1="74" x2="10" y1="194" y2="194"/>
<line class="pen1" fill="none" x1="10" x2="10" y1="194" y2="130"/>
<line class="pen1" fill="none" x1="74" x2="202" y1="194" y2="194"/>
<line class="pen1" fill="none" x1="170" x2="202" y1="162" y2="194"/>
<line class="pen1" fill="none" x1="186" x2="154" y1="146" y2="178"/>
<path class="pen1" d="M 298.89381678346916,193.22806732336755 A 45.0,44.5 0 0 0 232.0425932509952,192.20044863397945" fill="none"/>
<path class="pen1" d="M 298.1896042251178,193.7981632442294 A 45.0,45.0 0 0 0 360.81980515339467,192.81980515339464" fill="none"/>
</g>
</svg>
