<?xml version="1.0" encoding="UTF-8" standalone="no"?>
<!DOCTYPE svg PUBLIC "-//W3C//DTD SVG 1.0//EN" "http://www.w3.org/TR/2001/REC-SVG-20010904/DTD/svg10.dtd">
<svg xmlns="http://www.w3.org/2000/svg" xmlns:xlink="http://www.w3.org/1999/xlink" fill-rule="evenodd" height="4.5in" preserveAspectRatio="none" stroke-linecap="round" viewBox="0 0 468 324" width="6.5in">
<style type="text/css">
.brush0 { fill: rgb(255,255,255); }
.pen0 { stroke: rgb(0,0,0); stroke-width: 1; stroke-linejoin: round; }
.font0 { font-size: 11px; font-family: "MS Sans Serif"; }
.pen1 { stroke: rgb(0,0,0); stroke-width: 7; stroke-linejoin: round; }
.brush1 { fill: none; }
.font1 { font-weight: bold; font-size: 16px; font-family: System, sans-serif; }
</style>
<g>
<path class="pen1" d="M 361.9999370237418,130.00396750426663 A 31.5,31.5 0 1 0 361.98455804386094,192.99627285096017" fill="none"/>
<path class="pen1" d="M 330.00396750426665,161.9999370237418 A 31.5,31.5 0 0 0 392.99627285096017,161.98455804386091" fill="none"/>
<path class="pen1" d="M 393.9999370237418,162.00396750426663 A 31.5,31.5 0 1 0 393.98455804386094,224.99627285096017" fill="none"/>
<path class="pen1" d="M 362.00396750426665,193.9999370237418 A 31.5,31.5 0 0 0 424.99627285096017,193.98455804386091" fill="none"/>
<path class="pen1" d="M 394.00396750426665,225.9999370237418 A 31.5,31.5 0 0 0 456.99627285096017,225.98455804386091" fill="none"/>
<path class="pen1" d="M 425.9999370237418,194.00396750426663 A 31.5,31.5 0 1 0 425.98455804386094,256.99627285096017" fill="none"/>
<circle class="pen1" cx="233.5" cy="193.5" fill="none" r="63.5"/>
<line class="pen1" fill="none" x1="234" x2="234" y1="130" y2="258"/>
<circle class="pen1" cx="73.5" cy="193.5" fill="none" r="63.5"/>
<circle class="pen1" cx="73.5" cy="193.5" fill="none" r="15.5"/>
<line class="pen1" fill="none" x1="106" x2="74" y1="226" y2="258"/>
<line class="pen1" fill="none" x1="74" x2="106" y1="258" y2="290"/>
</g>
</svg>
