<?xml version="1.0" encoding="UTF-8" standalone="no"?>
<!DOCTYPE svg PUBLIC "-//W3C//DTD SVG 1.0//EN" "http://www.w3.org/TR/2001/REC-SVG-20010904/DTD/svg10.dtd">
<svg xmlns="http://www.w3.org/2000/svg" xmlns:xlink="http://www.w3.org/1999/xlink" fill-rule="evenodd" height="4.5in" preserveAspectRatio="none" stroke-linecap="round" viewBox="0 0 564 324" width="7.833333333333333in">
<style type="text/css">
.brush0 { fill: rgb(255,255,255); }
.pen0 { stroke: rgb(0,0,0); stroke-width: 1; stroke-linejoin: round; }
.font0 { font-size: 11px; font-family: "MS Sans Serif"; }
.pen1 { stroke: rgb(0,0,0); stroke-width: 7; stroke-linejoin: round; }
.brush1 { fill: none; }
.font1 { font-weight: bold; font-size: 16px; font-family: System, sans-serif; }
</style>
<g>
<path class="pen1" d="M 457.9999370237418,130.00396750426663 A 31.5,31.5 0 1 0 457.98455804386094,192.99627285096017" fill="none"/>
<path class="pen1" d="M 426.00396750426665,161.9999370237418 A 31.5,31.5 0 0 0 488.99627285096017,161.98455804386091" fill="none"/>
<path class="pen1" d="M 489.9999370237418,162.00396750426663 A 31.5,31.5 0 1 0 489.98455804386094,224.99627285096017" fill="none"/>
<path class="pen1" d="M 458.00396750426665,193.9999370237418 A 31.5,31.5 0 0 0 520.9962728509602,193.98455804386091" fill="none"/>
<path class="pen1" d="M 490.00396750426665,225.9999370237418 A 31.5,31.5 0 0 0 552.9962728509602,225.98455804386091" fill="none"/>
<path class="pen1" d="M 521.9999370237418,194.00396750426663 A 31.5,31.5 0 1 0 521.9845580438609,256.99627285096017" fill="none"/>
<circle class="pen1" cx="329.5" cy="193.5" fill="none" r="63.5"/>
<line class="pen1" fill="none" x1="330" x2="330" y1="130" y2="258"/>
<circle class="pen1" cx="169.5" cy="193.5" fill="none" r="63.5"/>
<circle class="pen1" cx="169.5" cy="193.5" fill="none" r="15.5"/>
<line class="pen1" fill="none" x1="202" x2="170" y1="226" y2="258"/>
<line class="pen1" fill="none" x1="170" x2="202" y1="258" y2="290"/>
<line class="pen1" fill="none" x1="10" x2="74" y1="194" y2="194"/>
<line class="pen1" fill="none" x1="42" x2="42" y1="226" y2="226"/>
<line class="pen1" fill="none" x1="42" x2="42" y1="162" y2="162"/>
</g>
</svg>
