<?xml version="1.0" encoding="UTF-8" standalone="no"?>
<!DOCTYPE svg PUBLIC "-//W3C//DTD SVG 1.0//EN" "http://www.w3.org/TR/2001/REC-SVG-20010904/DTD/svg10.dtd">
<svg xmlns="http://www.w3.org/2000/svg" xmlns:xlink="http://www.w3.org/1999/xlink" fill-rule="evenodd" height="4.5in" preserveAspectRatio="none" stroke-linecap="round" viewBox="0 0 356 324" width="4.9375in">
<style type="text/css">
.brush0 { fill: rgb(255,255,255); }
.pen0 { stroke: rgb(0,0,0); stroke-width: 1; stroke-linejoin: round; }
.font0 { font-size: 11px; font-family: "MS Sans Serif"; }
.pen1 { stroke: rgb(0,0,0); stroke-width: 7; stroke-linejoin: round; }
.brush1 { fill: none; }
.font1 { font-weight: bold; font-size: 16px; font-family: System, sans-serif; }
</style>
<g>
<line class="pen1" fill="none" x1="74" x2="202" y1="130" y2="130"/>
<line class="pen1" fill="none" x1="202" x2="202" y1="130" y2="258"/>
<line class="pen1" fill="none" x1="202" x2="74" y1="258" y2="258"/>
<line class="pen1" fill="none" x1="74" x2="74" y1="258" y2="130"/>
<line class="pen1" fill="none" x1="10" x2="138" y1="194" y2="194"/>
<line class="pen1" fill="none" x1="138" x2="106" y1="194" y2="162"/>
<line class="pen1" fill="none" x1="138" x2="106" y1="194" y2="226"/>
<line class="pen1" fill="none" x1="250" x2="250" y1="162" y2="194"/>
<circle class="pen1" cx="249.5" cy="225.5" fill="none" r="15.5"/>
<path class="pen1" d="M 313.27877372651983,257.04084340949544 A 79.5,79.5 0 0 0 313.75534462938106,130.3203219800887" fill="none"/>
<path class="pen1" d="M 312.81980515339467,224.81980515339464 A 45.0,45.0 0 0 0 313.3208100255128,161.68921528778446" fill="none"/>
<path class="pen1" d="M 296.55634918610406,208.55634918610406 A 22.0,22.0 0 0 0 297.04981849108185,177.95329516461075" fill="none"/>
<line class="pen1" fill="none" x1="122" x2="154" y1="66" y2="66"/>
<line class="pen1" fill="none" x1="154" x2="154" y1="66" y2="98"/>
<line class="pen1" fill="none" x1="154" x2="122" y1="98" y2="98"/>
<line class="pen1" fill="none" x1="122" x2="122" y1="98" y2="66"/>
</g>
</svg>
