<?xml version="1.0" encoding="UTF-8" standalone="no"?>
<!DOCTYPE svg PUBLIC "-//W3C//DTD SVG 1.0//EN" "http://www.w3.org/TR/2001/REC-SVG-20010904/DTD/svg10.dtd">
<svg xmlns="http://www.w3.org/2000/svg" xmlns:xlink="http://www.w3.org/1999/xlink" fill-rule="evenodd" height="4.5in" preserveAspectRatio="none" stroke-linecap="round" viewBox="0 0 420 324" width="5.833333333333333in">
<style type="text/css">
.brush0 { fill: rgb(255,255,255); }
.pen0 { stroke: rgb(0,0,0); stroke-width: 1; stroke-linejoin: round; }
.font0 { font-size: 11px; font-family: "MS Sans Serif"; }
.pen1 { stroke: rgb(0,0,0); stroke-width: 7; stroke-linejoin: round; }
.brush1 { fill: none; }
.font1 { font-weight: bold; font-size: 16px; font-family: System, sans-serif; }
</style>
<g>
<line class="pen1" fill="none" x1="10" x2="74" y1="162" y2="162"/>
<line class="pen1" fill="none" x1="74" x2="74" y1="162" y2="226"/>
<line class="pen1" fill="none" x1="74" x2="10" y1="226" y2="226"/>
<line class="pen1" fill="none" x1="10" x2="10" y1="226" y2="162"/>
<circle class="pen1" cx="169.5" cy="193.5" fill="none" r="63.5"/>
<line class="pen1" fill="none" x1="170" x2="170" y1="162" y2="226"/>
<line class="pen1" fill="none" x1="138" x2="202" y1="226" y2="226"/>
<path class="pen1" d="M 137.44365081389594,97.44365081389596 A 22.0,22.0 0 0 0 138.44432398408938,129.49643281803205" fill="none"/>
<path class="pen1" d="M 201.44365081389594,97.44365081389596 A 22.0,22.0 0 0 0 202.44432398408938,129.49643281803205" fill="none"/>
<path class="pen1" d="M 169.44365081389594,97.44365081389596 A 22.0,22.0 0 0 0 170.44432398408938,129.49643281803205" fill="none"/>
<line class="pen1" fill="none" x1="250" x2="218" y1="66" y2="98"/>
<line class="pen1" fill="none" x1="218" x2="250" y1="98" y2="130"/>
<circle class="pen1" cx="345.5" cy="193.5" fill="none" r="63.5"/>
<circle class="pen1" cx="345.5" cy="193.5" fill="none" r="31.5"/>
</g>
</svg>
