<?xml version="1.0" encoding="UTF-8" standalone="no"?>
<!DOCTYPE svg PUBLIC "-//W3C//DTD SVG 1.0//EN" "http://www.w3.org/TR/2001/REC-SVG-20010904/DTD/svg10.dtd">
<svg xmlns="http://www.w3.org/2000/svg" xmlns:xlink="http://www.w3.org/1999/xlink" fill-rule="evenodd" height="4.5in" preserveAspectRatio="none" stroke-linecap="round" viewBox="0 0 308 324" width="4.270833333333333in">
<style type="text/css">
.brush0 { fill: rgb(255,255,255); }
.pen0 { stroke: rgb(0,0,0); stroke-width: 1; stroke-linejoin: round; }
.font0 { font-size: 11px; font-family: "MS Sans Serif"; }
.pen1 { stroke: rgb(0,0,0); stroke-width: 7; stroke-linejoin: round; }
.brush1 { fill: none; }
.font1 { font-weight: bold; font-size: 16px; font-family: System, sans-serif; }
</style>
<g>
<path class="pen1" d="M 41.9999370237418,130.00396750426663 A 31.5,31.5 0 1 0 41.98455804386093,192.99627285096017" fill="none"/>
<path class="pen1" d="M 10.003967504266633,161.9999370237418 A 31.5,31.5 0 0 0 72.99627285096015,161.98455804386091" fill="none"/>
<path class="pen1" d="M 73.9999370237418,162.00396750426663 A 31.5,31.5 0 1 0 73.98455804386093,224.99627285096017" fill="none"/>
<path class="pen1" d="M 42.00396750426663,193.9999370237418 A 31.5,31.5 0 0 0 104.99627285096015,193.98455804386091" fill="none"/>
<path class="pen1" d="M 74.00396750426663,225.9999370237418 A 31.5,31.5 0 0 0 136.99627285096017,225.98455804386091" fill="none"/>
<path class="pen1" d="M 105.9999370237418,194.00396750426663 A 31.5,31.5 0 1 0 105.98455804386093,256.99627285096017" fill="none"/>
<line class="pen1" fill="none" x1="170" x2="234" y1="162" y2="162"/>
<line class="pen1" fill="none" x1="234" x2="234" y1="162" y2="226"/>
<line class="pen1" fill="none" x1="234" x2="170" y1="226" y2="226"/>
<line class="pen1" fill="none" x1="170" x2="170" y1="226" y2="162"/>
<line class="pen1" fill="none" x1="234" x2="298" y1="162" y2="162"/>
<line class="pen1" fill="none" x1="298" x2="298" y1="162" y2="226"/>
<line class="pen1" fill="none" x1="298" x2="234" y1="226" y2="226"/>
<line class="pen1" fill="none" x1="234" x2="234" y1="226" y2="162"/>
<line class="pen1" fill="none" x1="58" x2="90" y1="66" y2="66"/>
<line class="pen1" fill="none" x1="90" x2="90" y1="66" y2="98"/>
<line class="pen1" fill="none" x1="90" x2="58" y1="98" y2="98"/>
<line class="pen1" fill="none" x1="58" x2="58" y1="98" y2="66"/>
</g>
</svg>
