<?xml version="1.0" encoding="UTF-8" standalone="no"?>
<!DOCTYPE svg PUBLIC "-//W3C//DTD SVG 1.0//EN" "http://www.w3.org/TR/2001/REC-SVG-20010904/DTD/svg10.dtd">
<svg xmlns="http://www.w3.org/2000/svg" xmlns:xlink="http://www.w3.org/1999/xlink" fill-rule="evenodd" height="4.5in" preserveAspectRatio="none" stroke-linecap="round" viewBox="0 0 564 324" width="7.833333333333333in">
<style type="text/css">
.brush0 { fill: rgb(255,255,255); }
.pen0 { stroke: rgb(0,0,0); stroke-width: 1; stroke-linejoin: round; }
.font0 { font-size: 11px; font-family: "MS Sans Serif"; }
.pen1 { stroke: rgb(0,0,0); stroke-width: 7; stroke-linejoin: round; }
.brush1 { fill: none; }
.font1 { font-weight: bold; font-size: 16px; font-family: System, sans-serif; }
</style>
<g>
<line class="pen1" fill="none" x1="138" x2="10" y1="130" y2="258"/>
<line class="pen1" fill="none" x1="138" x2="138" y1="130" y2="194"/>
<line class="pen1" fill="none" x1="106" x2="170" y1="194" y2="194"/>
<line class="pen1" fill="none" x1="170" x2="170" y1="194" y2="258"/>
<line class="pen1" fill="none" x1="170" x2="106" y1="258" y2="258"/>
<line class="pen1" fill="none" x1="106" x2="106" y1="258" y2="194"/>
<path class="pen1" d="M 217.18019484660536,129.18019484660536 A 45.0,45.0 0 0 0 218.18960422511782,193.7981632442294" fill="none"/>
<path class="pen1" d="M 216.81980515339464,256.8198051533946 A 45.0,45.0 0 0 0 217.3208100255128,193.68921528778446" fill="none"/>
<line class="pen1" fill="none" x1="218" x2="218" y1="130" y2="258"/>
<line class="pen1" fill="none" x1="266" x2="394" y1="194" y2="194"/>
<line class="pen1" fill="none" x1="394" x2="362" y1="194" y2="162"/>
<line class="pen1" fill="none" x1="394" x2="362" y1="194" y2="226"/>
<line class="pen1" fill="none" x1="394" x2="394" y1="130" y2="258"/>
<path class="pen1" d="M 426.0668133480156,161.991250632998 A 127.0,127.5 0 0 0 490.51660167769637,257.0626179235348" fill="none"/>
<path class="pen1" d="M 488.99627285096017,161.98455804386091 A 31.5,31.5 0 1 0 426.00396750426665,161.9999370237418" fill="none"/>
<path class="pen1" d="M 552.9962728509602,161.98455804386091 A 31.5,31.5 0 1 0 490.00396750426665,161.9999370237418" fill="none"/>
<path class="pen1" d="M 489.1722459475495,256.53350659998927 A 127.5,127.5 0 0 0 552.9455787256084,161.86354548213757" fill="none"/>
</g>
</svg>
