<?xml version="1.0" encoding="UTF-8" standalone="no"?>
<!DOCTYPE svg PUBLIC "-//W3C//DTD SVG 1.0//EN" "http://www.w3.org/TR/2001/REC-SVG-20010904/DTD/svg10.dtd">
<svg xmlns="http://www.w3.org/2000/svg" xmlns:xlink="http://www.w3.org/1999/xlink" fill-rule="evenodd" height="4.5in" preserveAspectRatio="none" stroke-linecap="round" viewBox="0 0 404 324" width="5.604166666666667in">
<style type="text/css">
.brush0 { fill: rgb(255,255,255); }
.pen0 { stroke: rgb(0,0,0); stroke-width: 1; stroke-linejoin: round; }
.font0 { font-size: 11px; font-family: "MS Sans Serif"; }
.pen1 { stroke: rgb(0,0,0); stroke-width: 7; stroke-linejoin: round; }
.brush1 { fill: none; }
.font1 { font-weight: bold; font-size: 16px; font-family: System, sans-serif; }
</style>
<g>
<line class="pen1" fill="none" x1="10" x2="42" y1="66" y2="66"/>
<line class="pen1" fill="none" x1="42" x2="42" y1="66" y2="98"/>
<line class="pen1" fill="none" x1="42" x2="10" y1="98" y2="98"/>
<line class="pen1" fill="none" x1="10" x2="10" y1="98" y2="66"/>
<line class="pen1" fill="none" x1="26" x2="26" y1="194" y2="258"/>
<line class="pen1" fill="none" x1="10" x2="42" y1="258" y2="258"/>
<line class="pen1" fill="none" x1="10" x2="26" y1="210" y2="194"/>
<line class="pen1" fill="none" x1="106" x2="106" y1="194" y2="258"/>
<line class="pen1" fill="none" x1="74" x2="138" y1="258" y2="258"/>
<line class="pen1" fill="none" x1="74" x2="138" y1="194" y2="194"/>
<line class="pen1" fill="none" x1="298" x2="170" y1="130" y2="258"/>
<line class="pen1" fill="none" x1="202" x2="266" y1="162" y2="162"/>
<line class="pen1" fill="none" x1="202" x2="266" y1="226" y2="226"/>
<path class="pen1" d="M 392.99627285096017,161.98455804386091 A 31.5,31.5 0 1 0 330.00396750426665,161.9999370237418" fill="none"/>
<path class="pen1" d="M 329.1722459475495,256.53350659998927 A 127.5,127.5 0 0 0 392.94557872560836,161.86354548213757" fill="none"/>
<line class="pen1" fill="none" x1="330" x2="394" y1="258" y2="258"/>
</g>
</svg>
