<?xml version="1.0" encoding="UTF-8" standalone="no"?>
<!DOCTYPE svg PUBLIC "-//W3C//DTD SVG 1.0//EN" "http://www.w3.org/TR/2001/REC-SVG-20010904/DTD/svg10.dtd">
<svg xmlns="http://www.w3.org/2000/svg" xmlns:xlink="http://www.w3.org/1999/xlink" fill-rule="evenodd" height="4.5in" preserveAspectRatio="none" stroke-linecap="round" viewBox="0 0 436 324" width="6.052083333333333in">
<style type="text/css">
.brush0 { fill: rgb(255,255,255); }
.pen0 { stroke: rgb(0,0,0); stroke-width: 1; stroke-linejoin: round; }
.font0 { font-size: 11px; font-family: "MS Sans Serif"; }
.pen1 { stroke: rgb(0,0,0); stroke-width: 7; stroke-linejoin: round; }
.brush1 { fill: none; }
.font1 { font-weight: bold; font-size: 16px; font-family: System, sans-serif; }
</style>
<g>
<path class="pen1" d="M 424.9980921477605,257.99223327246324 A 63.5,63.5 0 1 0 298.00196841240614,257.9999845006897" fill="none"/>
<path class="pen1" d="M 298.00196841240614,193.9999845006897 A 63.5,63.5 0 0 0 424.9980921477605,193.99223327246327" fill="none"/>
<circle class="pen1" cx="41.5" cy="225.5" fill="none" r="31.5"/>
<line class="pen1" fill="none" x1="10" x2="74" y1="226" y2="226"/>
<path class="pen1" d="M 201.99998450068972,194.00196841240611 A 63.5,63.5 0 0 0 138.00196841240611,257.9999845006897" fill="none"/>
<path class="pen1" d="M 265.9999845006897,194.00196841240611 A 63.5,63.5 0 0 0 202.00196841240611,257.9999845006897" fill="none"/>
<path class="pen1" d="M 170.89381678346916,257.22806732336755 A 45.0,44.5 0 0 0 104.0425932509952,256.2004486339795" fill="none"/>
<path class="pen1" d="M 170.18960422511782,257.79816324422944 A 45.0,45.0 0 0 0 232.81980515339464,256.8198051533946" fill="none"/>
</g>
</svg>
