<?xml version="1.0" encoding="UTF-8" standalone="no"?>
<!DOCTYPE svg PUBLIC "-//W3C//DTD SVG 1.0//EN" "http://www.w3.org/TR/2001/REC-SVG-20010904/DTD/svg10.dtd">
<svg xmlns="http://www.w3.org/2000/svg" xmlns:xlink="http://www.w3.org/1999/xlink" fill-rule="evenodd" height="4.5in" preserveAspectRatio="none" stroke-linecap="round" viewBox="0 0 532 324" width="7.385416666666667in">
<style type="text/css">
.brush0 { fill: rgb(255,255,255); }
.pen0 { stroke: rgb(0,0,0); stroke-width: 1; stroke-linejoin: round; }
.font0 { font-size: 11px; font-family: "MS Sans Serif"; }
.pen1 { stroke: rgb(0,0,0); stroke-width: 7; stroke-linejoin: round; }
.brush1 { fill: none; }
.font1 { font-weight: bold; font-size: 16px; font-family: System, sans-serif; }
</style>
<g>
<line class="pen1" fill="none" x1="10" x2="138" y1="258" y2="258"/>
<line class="pen1" fill="none" x1="42" x2="74" y1="226" y2="258"/>
<line class="pen1" fill="none" x1="74" x2="106" y1="258" y2="226"/>
<line class="pen1" fill="none" x1="234" x2="298" y1="258" y2="258"/>
<line class="pen1" fill="none" x1="426" x2="490" y1="162" y2="162"/>
<line class="pen1" fill="none" x1="490" x2="490" y1="162" y2="226"/>
<line class="pen1" fill="none" x1="490" x2="426" y1="226" y2="226"/>
<line class="pen1" fill="none" x1="426" x2="426" y1="226" y2="162"/>
<circle class="pen1" cx="297.5" cy="225.5" fill="none" r="31.5"/>
<path class="pen1" d="M 344.81980515339467,256.8198051533946 A 45.0,45.0 0 0 0 345.3208100255128,193.68921528778446" fill="none"/>
<path class="pen1" d="M 458.89381678346916,193.22806732336755 A 45.0,44.5 0 0 0 392.0425932509952,192.20044863397945" fill="none"/>
<path class="pen1" d="M 458.1896042251178,193.7981632442294 A 45.0,45.0 0 0 0 520.8198051533947,192.81980515339464" fill="none"/>
<line class="pen1" fill="none" x1="170" x2="234" y1="130" y2="258"/>
</g>
</svg>
