<?xml version="1.0" encoding="UTF-8" standalone="no"?>
<!DOCTYPE svg PUBLIC "-//W3C//DTD SVG 1.0//EN" "http://www.w3.org/TR/2001/REC-SVG-20010904/DTD/svg10.dtd">
<svg xmlns="http://www.w3.org/2000/svg" xmlns:xlink="http://www.w3.org/1999/xlink" fill-rule="evenodd" height="4.5in" preserveAspectRatio="none" stroke-linecap="round" viewBox="0 0 564 324" width="7.833333333333333in">
<style type="text/css">
.brush0 { fill: rgb(255,255,255); }
.pen0 { stroke: rgb(0,0,0); stroke-width: 1; stroke-linejoin: round; }
.font0 { font-size: 11px; font-family: "MS Sans Serif"; }
.pen1 { stroke: rgb(0,0,0); stroke-width: 7; stroke-linejoin: round; }
.brush1 { fill: none; }
.brush2 { fill: rgb(0,0,0); }
.font1 { font-weight: bold; font-size: 16px; font-family: System, sans-serif; }
</style>
<g>
<circle class="pen1" cx="41.5" cy="225.5" fill="none" r="31.5"/>
<line class="pen1" fill="none" x1="64" x2="19" y1="203" y2="248"/>
<line class="pen1" fill="none" x1="19" x2="64" y1="203" y2="248"/>
<circle class="pen1" cx="105.5" cy="225.5" fill="none" r="31.5"/>
<line class="pen1" fill="none" x1="128" x2="83" y1="203" y2="248"/>
<line class="pen1" fill="none" x1="83" x2="128" y1="203" y2="248"/>
<line class="pen1" fill="none" x1="10" x2="138" y1="194" y2="194"/>
<path class="pen1" d="M 265.99223327246324,256.9980921477605 A 63.5,63.5 0 0 0 265.9999845006897,130.00196841240611" fill="none"/>
<line class="pen1" fill="none" x1="298" x2="266" y1="226" y2="258"/>
<line class="pen1" fill="none" x1="266" x2="298" y1="258" y2="290"/>
<line class="pen1" fill="none" x1="362" x2="490" y1="194" y2="194"/>
<line class="pen1" fill="none" x1="490" x2="458" y1="194" y2="162"/>
<line class="pen1" fill="none" x1="490" x2="458" y1="194" y2="226"/>
<line class="pen1" fill="none" x1="522" x2="522" y1="162" y2="210"/>
<line class="pen1" fill="none" x1="522" x2="522" y1="225" y2="225"/>
<line class="pen1" fill="none" x1="202" x2="170" y1="130" y2="162"/>
<line class="pen1" fill="none" x1="202" x2="234" y1="130" y2="162"/>
<line class="pen1" fill="none" x1="202" x2="202" y1="130" y2="258"/>
</g>
</svg>
