<?xml version="1.0" encoding="UTF-8" standalone="no"?>
<!DOCTYPE svg PUBLIC "-//W3C//DTD SVG 1.0//EN" "http://www.w3.org/TR/2001/REC-SVG-20010904/DTD/svg10.dtd">
<svg xmlns="http://www.w3.org/2000/svg" xmlns:xlink="http://www.w3.org/1999/xlink" fill-rule="evenodd" height="8.947916666666666in" preserveAspectRatio="none" stroke-linecap="round" viewBox="0 0 1320 644" width="18.322916666666668in">
<style type="text/css">
.brush0 { fill: rgb(255,255,255); }
.pen0 { stroke: rgb(0,0,0); stroke-width: 1; stroke-linejoin: round; }
.font0 { font-size: 11px; font-family: "MS Sans Serif"; }
.pen1 { stroke: rgb(0,0,0); stroke-width: 14; stroke-linejoin: round; }
.brush1 { fill: none; }
.font1 { font-weight: bold; font-size: 16px; font-family: System, sans-serif; }
</style>
<g>
<path class="pen1" d="M 882.6396103067893,512.6396103067892 A 90.0,90.0 0 0 0 882.1365538062888,384.86127867297637" fill="none"/>
<path class="pen1" d="M 627.3603896932108,385.3603896932107 A 90.0,90.0 0 0 0 628.3624043285026,513.6260907721797" fill="none"/>
<line class="pen1" fill="none" x1="628" x2="884" y1="386" y2="386"/>
<line class="pen1" fill="none" x1="628" x2="884" y1="514" y2="514"/>
<line class="pen1" fill="none" x1="1108" x2="980" y1="258" y2="514"/>
<line class="pen1" fill="none" x1="980" x2="1108" y1="514" y2="514"/>
<circle class="pen1" cx="1043.5" cy="385.5" fill="none" r="63.5"/>
<line class="pen1" fill="none" x1="1236" x2="1172" y1="258" y2="322"/>
<line class="pen1" fill="none" x1="1236" x2="1300" y1="258" y2="322"/>
<line class="pen1" fill="none" x1="1236" x2="1236" y1="258" y2="514"/>
<line class="pen1" fill="none" x1="276" x2="532" y1="258" y2="258"/>
<line class="pen1" fill="none" x1="532" x2="532" y1="258" y2="514"/>
<line class="pen1" fill="none" x1="532" x2="276" y1="514" y2="514"/>
<line class="pen1" fill="none" x1="20" x2="276" y1="514" y2="514"/>
<circle class="pen1" cx="403.5" cy="321.5" fill="none" r="63.5"/>
<circle class="pen1" cx="403.5" cy="449.5" fill="none" r="63.5"/>
<path class="pen1" d="M 276.0009803808491,385.9999961553692 A 127.5,127.5 0 0 0 530.9990348184513,385.9961051938461" fill="none"/>
<line class="pen1" fill="none" x1="404" x2="404" y1="258" y2="514"/>
</g>
</svg>
