<?xml version="1.0" encoding="UTF-8" standalone="no"?>
<!DOCTYPE svg PUBLIC "-//W3C//DTD SVG 1.0//EN" "http://www.w3.org/TR/2001/REC-SVG-20010904/DTD/svg10.dtd">
<svg xmlns="http://www.w3.org/2000/svg" xmlns:xlink="http://www.w3.org/1999/xlink" fill-rule="evenodd" height="8.947916666666666in" preserveAspectRatio="none" stroke-linecap="round" viewBox="0 0 872 644" width="12.104166666666666in">
<style type="text/css">
.brush0 { fill: rgb(255,255,255); }
.pen0 { stroke: rgb(0,0,0); stroke-width: 1; stroke-linejoin: round; }
.font0 { font-size: 11px; font-family: "MS Sans Serif"; }
.pen1 { stroke: rgb(0,0,0); stroke-width: 14; stroke-linejoin: round; }
.brush1 { fill: none; }
.font1 { font-weight: bold; font-size: 16px; font-family: System, sans-serif; }
</style>
<g>
<path class="pen1" d="M 690.6396103067893,512.6396103067892 A 90.0,90.0 0 0 0 690.1365538062888,384.86127867297637" fill="none"/>
<path class="pen1" d="M 819.3603896932108,385.3603896932107 A 90.0,90.0 0 0 0 820.3624043285026,513.6260907721797" fill="none"/>
<line class="pen1" fill="none" x1="20" x2="276" y1="514" y2="514"/>
<circle class="pen1" cx="147.5" cy="385.5" fill="none" r="127.5"/>
<line class="pen1" fill="none" x1="404" x2="404" y1="386" y2="386"/>
<line class="pen1" fill="none" x1="340" x2="340" y1="258" y2="514"/>
<line class="pen1" fill="none" x1="500" x2="500" y1="386" y2="514"/>
<line class="pen1" fill="none" x1="468" x2="532" y1="514" y2="514"/>
<line class="pen1" fill="none" x1="468" x2="500" y1="418" y2="386"/>
<path class="pen1" d="M 626.9962728509602,417.98455804386094 A 31.5,31.5 0 1 0 564.0039675042666,417.9999370237418" fill="none"/>
<line class="pen1" fill="none" x1="628" x2="564" y1="418" y2="514"/>
<line class="pen1" fill="none" x1="564" x2="628" y1="514" y2="514"/>
</g>
</svg>
