<?xml version="1.0" encoding="UTF-8" standalone="no"?>
<!DOCTYPE svg PUBLIC "-//W3C//DTD SVG 1.0//EN" "http://www.w3.org/TR/2001/REC-SVG-20010904/DTD/svg10.dtd">
<svg xmlns="http://www.w3.org/2000/svg" xmlns:xlink="http://www.w3.org/1999/xlink" fill-rule="evenodd" height="8.947916666666666in" preserveAspectRatio="none" stroke-linecap="round" viewBox="0 0 1192 644" width="16.552083333333332in">
<style type="text/css">
.brush0 { fill: rgb(255,255,255); }
.pen0 { stroke: rgb(0,0,0); stroke-width: 1; stroke-linejoin: round; }
.font0 { font-size: 11px; font-family: "MS Sans Serif"; }
.pen1 { stroke: rgb(0,0,0); stroke-width: 14; stroke-linejoin: round; }
.brush1 { fill: none; }
.font1 { font-weight: bold; font-size: 16px; font-family: System, sans-serif; }
</style>
<g>
<path class="pen1" d="M 726.1527171155184,384.0791139584605 A 90.0,90.0 0 0 0 592.7871599446877,383.0421472506648" fill="none"/>
<path class="pen1" d="M 724.3624043285026,385.62609077217974 A 90.0,90.0 0 0 0 850.6396103067893,384.6396103067893" fill="none"/>
<line class="pen1" fill="none" x1="916" x2="1044" y1="386" y2="258"/>
<line class="pen1" fill="none" x1="1044" x2="1172" y1="258" y2="386"/>
<line class="pen1" fill="none" x1="148" x2="404" y1="322" y2="322"/>
<line class="pen1" fill="none" x1="148" x2="404" y1="450" y2="450"/>
<line class="pen1" fill="none" x1="404" x2="532" y1="386" y2="386"/>
<line class="pen1" fill="none" x1="20" x2="148" y1="386" y2="386"/>
<line class="pen1" fill="none" x1="20" x2="20" y1="322" y2="450"/>
<line class="pen1" fill="none" x1="148" x2="148" y1="322" y2="450"/>
<line class="pen1" fill="none" x1="404" x2="404" y1="322" y2="450"/>
<line class="pen1" fill="none" x1="244" x2="276" y1="194" y2="130"/>
<line class="pen1" fill="none" x1="276" x2="308" y1="130" y2="194"/>
</g>
</svg>
