<?xml version="1.0" encoding="UTF-8" standalone="no"?>
<!DOCTYPE svg PUBLIC "-//W3C//DTD SVG 1.0//EN" "http://www.w3.org/TR/2001/REC-SVG-20010904/DTD/svg10.dtd">
<svg xmlns="http://www.w3.org/2000/svg" xmlns:xlink="http://www.w3.org/1999/xlink" fill-rule="evenodd" height="8.947916666666666in" preserveAspectRatio="none" stroke-linecap="round" viewBox="0 0 1192 644" width="16.552083333333332in">
<style type="text/css">
.brush0 { fill: rgb(255,255,255); }
.pen0 { stroke: rgb(0,0,0); stroke-width: 1; stroke-linejoin: round; }
.font0 { font-size: 11px; font-family: "MS Sans Serif"; }
.pen1 { stroke: rgb(0,0,0); stroke-width: 14; stroke-linejoin: round; }
.brush1 { fill: none; }
.font1 { font-weight: bold; font-size: 16px; font-family: System, sans-serif; }
</style>
<g>
<path class="pen1" d="M 723.9999961553692,386.0009803808491 A 127.5,127.5 0 0 0 596.0009803808491,513.9999961553692" fill="none"/>
<path class="pen1" d="M 723.9961051938461,384.99903481845126 A 127.5,127.5 0 0 0 850.9990348184513,257.9961051938461" fill="none"/>
<line class="pen1" fill="none" x1="916" x2="1172" y1="322" y2="322"/>
<line class="pen1" fill="none" x1="916" x2="1172" y1="450" y2="450"/>
<line class="pen1" fill="none" x1="980" x2="980" y1="258" y2="514"/>
<line class="pen1" fill="none" x1="1108" x2="1108" y1="258" y2="514"/>
<line class="pen1" fill="none" x1="276" x2="532" y1="258" y2="258"/>
<line class="pen1" fill="none" x1="532" x2="532" y1="258" y2="514"/>
<line class="pen1" fill="none" x1="532" x2="276" y1="514" y2="514"/>
<line class="pen1" fill="none" x1="20" x2="276" y1="514" y2="514"/>
<circle class="pen1" cx="403.5" cy="321.5" fill="none" r="63.5"/>
<circle class="pen1" cx="403.5" cy="449.5" fill="none" r="63.5"/>
<path class="pen1" d="M 276.0009803808491,385.9999961553692 A 127.5,127.5 0 0 0 530.9990348184513,385.9961051938461" fill="none"/>
<line class="pen1" fill="none" x1="404" x2="404" y1="258" y2="514"/>
</g>
</svg>
